<svg width="147" height="40" viewBox="0 0 147 40" fill="none" xmlns="http://www.w3.org/2000/svg">
<rect width="147" height="40" rx="20" fill="#0369D8"/>
<path d="M21.9999 21.9448V22.3335C21.9999 23.1291 22.316 23.8922 22.8786 24.4548C23.4412 25.0174 24.2043 25.3335 24.9999 25.3335C25.7956 25.3335 26.5586 25.0174 27.1212 24.4548C27.6838 23.8922 27.9999 23.1291 27.9999 22.3335V21.2202C27.5549 21.0629 27.1799 20.7534 26.941 20.3463C26.7022 19.9392 26.6149 19.4608 26.6947 18.9956C26.7745 18.5305 27.0162 18.1085 27.377 17.8042C27.7378 17.5 28.1946 17.3332 28.6666 17.3332C29.1386 17.3332 29.5953 17.5 29.9562 17.8042C30.317 18.1085 30.5587 18.5305 30.6385 18.9956C30.7182 19.4608 30.631 19.9392 30.3922 20.3463C30.1533 20.7534 29.7782 21.0629 29.3333 21.2202V22.3335C29.3333 23.4828 28.8767 24.585 28.064 25.3976C27.2514 26.2103 26.1492 26.6668 24.9999 26.6668C23.8506 26.6668 22.7484 26.2103 21.9358 25.3976C21.1231 24.585 20.6666 23.4828 20.6666 22.3335V21.9448C19.7345 21.787 18.8885 21.3043 18.2783 20.5823C17.6682 19.8602 17.3334 18.9455 17.3333 18.0002V14.6668C17.3333 14.3132 17.4737 13.9741 17.7238 13.724C17.9738 13.474 18.313 13.3335 18.6666 13.3335H19.3333C19.5101 13.3335 19.6796 13.4037 19.8047 13.5288C19.9297 13.6538 19.9999 13.8234 19.9999 14.0002C19.9999 14.177 19.9297 14.3465 19.8047 14.4716C19.6796 14.5966 19.5101 14.6668 19.3333 14.6668H18.6666V18.0002C18.6666 18.7074 18.9475 19.3857 19.4476 19.8858C19.9477 20.3859 20.626 20.6668 21.3333 20.6668C22.0405 20.6668 22.7188 20.3859 23.2189 19.8858C23.719 19.3857 23.9999 18.7074 23.9999 18.0002V14.6668H23.3333C23.1564 14.6668 22.9869 14.5966 22.8618 14.4716C22.7368 14.3465 22.6666 14.177 22.6666 14.0002C22.6666 13.8234 22.7368 13.6538 22.8618 13.5288C22.9869 13.4037 23.1564 13.3335 23.3333 13.3335H23.9999C24.3535 13.3335 24.6927 13.474 24.9427 13.724C25.1928 13.9741 25.3333 14.3132 25.3333 14.6668V18.0002C25.3331 18.9455 24.9983 19.8602 24.3882 20.5823C23.778 21.3043 22.932 21.787 21.9999 21.9448ZM28.6666 20.0002C28.8434 20.0002 29.013 19.9299 29.138 19.8049C29.263 19.6799 29.3333 19.5103 29.3333 19.3335C29.3333 19.1567 29.263 18.9871 29.138 18.8621C29.013 18.7371 28.8434 18.6668 28.6666 18.6668C28.4898 18.6668 28.3202 18.7371 28.1952 18.8621C28.0702 18.9871 27.9999 19.1567 27.9999 19.3335C27.9999 19.5103 28.0702 19.6799 28.1952 19.8049C28.3202 19.9299 28.4898 20.0002 28.6666 20.0002Z" fill="white"/>
<path d="M39.176 25.112C38.952 25.112 38.77 25.0607 38.63 24.958C38.4993 24.8553 38.42 24.72 38.392 24.552C38.364 24.3747 38.3967 24.1787 38.49 23.964L42.186 15.774C42.3073 15.5033 42.452 15.312 42.62 15.2C42.7973 15.0787 42.998 15.018 43.222 15.018C43.4367 15.018 43.628 15.0787 43.796 15.2C43.9733 15.312 44.1227 15.5033 44.244 15.774L47.954 23.964C48.0567 24.1787 48.094 24.3747 48.066 24.552C48.038 24.7293 47.9587 24.8693 47.828 24.972C47.6973 25.0653 47.5247 25.112 47.31 25.112C47.0487 25.112 46.8433 25.0513 46.694 24.93C46.554 24.7993 46.428 24.6033 46.316 24.342L45.406 22.228L46.162 22.718H40.254L41.01 22.228L40.114 24.342C39.9927 24.6127 39.8667 24.8087 39.736 24.93C39.6053 25.0513 39.4187 25.112 39.176 25.112ZM43.194 17.076L41.234 21.738L40.87 21.29H45.546L45.196 21.738L43.222 17.076H43.194ZM51.8916 25.14C51.2943 25.14 50.7669 24.9953 50.3096 24.706C49.8616 24.4167 49.5116 24.006 49.2596 23.474C49.0076 22.9327 48.8816 22.298 48.8816 21.57C48.8816 20.8327 49.0076 20.2027 49.2596 19.68C49.5116 19.148 49.8616 18.7373 50.3096 18.448C50.7669 18.1587 51.2943 18.014 51.8916 18.014C52.4609 18.014 52.9556 18.154 53.3756 18.434C53.8049 18.714 54.0943 19.0827 54.2436 19.54H54.0896V15.9C54.0896 15.6107 54.1643 15.3913 54.3136 15.242C54.4629 15.0927 54.6776 15.018 54.9576 15.018C55.2376 15.018 55.4523 15.0927 55.6016 15.242C55.7603 15.3913 55.8396 15.6107 55.8396 15.9V24.216C55.8396 24.5053 55.7649 24.7293 55.6156 24.888C55.4663 25.0373 55.2516 25.112 54.9716 25.112C54.6916 25.112 54.4769 25.0373 54.3276 24.888C54.1783 24.7293 54.1036 24.5053 54.1036 24.216V23.124L54.2576 23.544C54.1176 24.0293 53.8329 24.4167 53.4036 24.706C52.9743 24.9953 52.4703 25.14 51.8916 25.14ZM52.3816 23.81C52.7269 23.81 53.0303 23.726 53.2916 23.558C53.5529 23.39 53.7536 23.1427 53.8936 22.816C54.0429 22.48 54.1176 22.0647 54.1176 21.57C54.1176 20.8233 53.9589 20.268 53.6416 19.904C53.3243 19.5307 52.9043 19.344 52.3816 19.344C52.0363 19.344 51.7329 19.428 51.4716 19.596C51.2103 19.7547 51.0049 20.002 50.8556 20.338C50.7156 20.6647 50.6456 21.0753 50.6456 21.57C50.6456 22.3073 50.8043 22.8673 51.1216 23.25C51.4389 23.6233 51.8589 23.81 52.3816 23.81ZM60.2861 25.14C59.6888 25.14 59.1615 24.9953 58.7041 24.706C58.2561 24.4167 57.9061 24.006 57.6541 23.474C57.4021 22.9327 57.2761 22.298 57.2761 21.57C57.2761 20.8327 57.4021 20.2027 57.6541 19.68C57.9061 19.148 58.2561 18.7373 58.7041 18.448C59.1615 18.1587 59.6888 18.014 60.2861 18.014C60.8555 18.014 61.3501 18.154 61.7701 18.434C62.1995 18.714 62.4888 19.0827 62.6381 19.54H62.4841V15.9C62.4841 15.6107 62.5588 15.3913 62.7081 15.242C62.8575 15.0927 63.0721 15.018 63.3521 15.018C63.6321 15.018 63.8468 15.0927 63.9961 15.242C64.1548 15.3913 64.2341 15.6107 64.2341 15.9V24.216C64.2341 24.5053 64.1595 24.7293 64.0101 24.888C63.8608 25.0373 63.6461 25.112 63.3661 25.112C63.0861 25.112 62.8715 25.0373 62.7221 24.888C62.5728 24.7293 62.4981 24.5053 62.4981 24.216V23.124L62.6521 23.544C62.5121 24.0293 62.2275 24.4167 61.7981 24.706C61.3688 24.9953 60.8648 25.14 60.2861 25.14ZM60.7761 23.81C61.1215 23.81 61.4248 23.726 61.6861 23.558C61.9475 23.39 62.1481 23.1427 62.2881 22.816C62.4375 22.48 62.5121 22.0647 62.5121 21.57C62.5121 20.8233 62.3535 20.268 62.0361 19.904C61.7188 19.5307 61.2988 19.344 60.7761 19.344C60.4308 19.344 60.1275 19.428 59.8661 19.596C59.6048 19.7547 59.3995 20.002 59.2501 20.338C59.1101 20.6647 59.0401 21.0753 59.0401 21.57C59.0401 22.3073 59.1988 22.8673 59.5161 23.25C59.8335 23.6233 60.2535 23.81 60.7761 23.81ZM72.4815 25.14C71.8841 25.14 71.3568 24.9953 70.8995 24.706C70.4515 24.4167 70.1015 24.006 69.8495 23.474C69.5975 22.9327 69.4715 22.298 69.4715 21.57C69.4715 20.8327 69.5975 20.2027 69.8495 19.68C70.1015 19.148 70.4515 18.7373 70.8995 18.448C71.3568 18.1587 71.8841 18.014 72.4815 18.014C73.0508 18.014 73.5455 18.154 73.9655 18.434C74.3948 18.714 74.6841 19.0827 74.8335 19.54H74.6795V15.9C74.6795 15.6107 74.7541 15.3913 74.9035 15.242C75.0528 15.0927 75.2675 15.018 75.5475 15.018C75.8275 15.018 76.0421 15.0927 76.1915 15.242C76.3501 15.3913 76.4295 15.6107 76.4295 15.9V24.216C76.4295 24.5053 76.3548 24.7293 76.2055 24.888C76.0561 25.0373 75.8415 25.112 75.5615 25.112C75.2815 25.112 75.0668 25.0373 74.9175 24.888C74.7681 24.7293 74.6935 24.5053 74.6935 24.216V23.124L74.8475 23.544C74.7075 24.0293 74.4228 24.4167 73.9935 24.706C73.5641 24.9953 73.0601 25.14 72.4815 25.14ZM72.9715 23.81C73.3168 23.81 73.6201 23.726 73.8815 23.558C74.1428 23.39 74.3435 23.1427 74.4835 22.816C74.6328 22.48 74.7075 22.0647 74.7075 21.57C74.7075 20.8233 74.5488 20.268 74.2315 19.904C73.9141 19.5307 73.4941 19.344 72.9715 19.344C72.6261 19.344 72.3228 19.428 72.0615 19.596C71.8001 19.7547 71.5948 20.002 71.4455 20.338C71.3055 20.6647 71.2355 21.0753 71.2355 21.57C71.2355 22.3073 71.3941 22.8673 71.7115 23.25C72.0288 23.6233 72.4488 23.81 72.9715 23.81ZM79.112 25.098C78.832 25.098 78.6173 25.014 78.468 24.846C78.3187 24.678 78.244 24.4447 78.244 24.146V19.008C78.244 18.7 78.3187 18.4667 78.468 18.308C78.6173 18.14 78.832 18.056 79.112 18.056C79.392 18.056 79.6067 18.14 79.756 18.308C79.9147 18.4667 79.994 18.7 79.994 19.008V24.146C79.994 24.4447 79.9193 24.678 79.77 24.846C79.6207 25.014 79.4013 25.098 79.112 25.098ZM79.112 16.754C78.7853 16.754 78.5287 16.6747 78.342 16.516C78.1647 16.348 78.076 16.1193 78.076 15.83C78.076 15.5313 78.1647 15.3027 78.342 15.144C78.5287 14.9853 78.7853 14.906 79.112 14.906C79.448 14.906 79.7047 14.9853 79.882 15.144C80.0593 15.3027 80.148 15.5313 80.148 15.83C80.148 16.1193 80.0593 16.348 79.882 16.516C79.7047 16.6747 79.448 16.754 79.112 16.754ZM84.0663 25.14C83.5717 25.14 83.1283 25.0467 82.7363 24.86C82.3537 24.664 82.0503 24.4027 81.8263 24.076C81.6117 23.7493 81.5043 23.3807 81.5043 22.97C81.5043 22.466 81.635 22.0693 81.8963 21.78C82.1577 21.4813 82.5823 21.2667 83.1703 21.136C83.7583 21.0053 84.547 20.94 85.5363 20.94H86.2363V21.948H85.5503C84.9717 21.948 84.5097 21.976 84.1643 22.032C83.819 22.088 83.5717 22.186 83.4223 22.326C83.2823 22.4567 83.2123 22.6433 83.2123 22.886C83.2123 23.194 83.3197 23.446 83.5343 23.642C83.749 23.838 84.0477 23.936 84.4303 23.936C84.7383 23.936 85.009 23.866 85.2423 23.726C85.485 23.5767 85.6763 23.376 85.8163 23.124C85.9563 22.872 86.0263 22.5827 86.0263 22.256V20.646C86.0263 20.1793 85.9237 19.8433 85.7183 19.638C85.513 19.4327 85.1677 19.33 84.6823 19.33C84.4117 19.33 84.1177 19.3627 83.8003 19.428C83.4923 19.4933 83.1657 19.6053 82.8203 19.764C82.643 19.848 82.4843 19.8713 82.3443 19.834C82.2137 19.7967 82.111 19.722 82.0363 19.61C81.9617 19.4887 81.9243 19.358 81.9243 19.218C81.9243 19.078 81.9617 18.9427 82.0363 18.812C82.111 18.672 82.237 18.5693 82.4143 18.504C82.8437 18.3267 83.2543 18.2007 83.6463 18.126C84.0477 18.0513 84.4117 18.014 84.7383 18.014C85.4103 18.014 85.961 18.1167 86.3903 18.322C86.829 18.5273 87.1557 18.84 87.3703 19.26C87.585 19.6707 87.6923 20.2027 87.6923 20.856V24.216C87.6923 24.5053 87.6223 24.7293 87.4823 24.888C87.3423 25.0373 87.1417 25.112 86.8803 25.112C86.619 25.112 86.4137 25.0373 86.2643 24.888C86.1243 24.7293 86.0543 24.5053 86.0543 24.216V23.544H86.1663C86.101 23.8707 85.9703 24.1553 85.7743 24.398C85.5877 24.6313 85.3497 24.8133 85.0603 24.944C84.771 25.0747 84.4397 25.14 84.0663 25.14ZM92.6606 27.66C92.1566 27.66 91.6666 27.6133 91.1906 27.52C90.7239 27.4267 90.2993 27.282 89.9166 27.086C89.7393 26.9927 89.6179 26.8807 89.5526 26.75C89.4966 26.6193 89.4779 26.484 89.4966 26.344C89.5246 26.2133 89.5806 26.0967 89.6646 25.994C89.7579 25.8913 89.8699 25.8213 90.0006 25.784C90.1313 25.7467 90.2666 25.7653 90.4066 25.84C90.8173 26.0453 91.2046 26.176 91.5686 26.232C91.9419 26.2973 92.2593 26.33 92.5206 26.33C93.1459 26.33 93.6126 26.176 93.9206 25.868C94.2379 25.5693 94.3966 25.1213 94.3966 24.524V23.264H94.5226C94.3826 23.74 94.0886 24.1227 93.6406 24.412C93.2019 24.692 92.7026 24.832 92.1426 24.832C91.5266 24.832 90.9899 24.692 90.5326 24.412C90.0753 24.1227 89.7206 23.7213 89.4686 23.208C89.2166 22.6947 89.0906 22.0973 89.0906 21.416C89.0906 20.9027 89.1606 20.4407 89.3006 20.03C89.4499 19.61 89.6553 19.2507 89.9166 18.952C90.1873 18.6533 90.5093 18.4247 90.8826 18.266C91.2653 18.098 91.6853 18.014 92.1426 18.014C92.7213 18.014 93.2253 18.1587 93.6546 18.448C94.0933 18.728 94.3779 19.1013 94.5086 19.568L94.3686 19.918V18.924C94.3686 18.6347 94.4433 18.4153 94.5926 18.266C94.7513 18.1167 94.9659 18.042 95.2366 18.042C95.5166 18.042 95.7313 18.1167 95.8806 18.266C96.0299 18.4153 96.1046 18.6347 96.1046 18.924V24.314C96.1046 25.4247 95.8106 26.26 95.2226 26.82C94.6346 27.38 93.7806 27.66 92.6606 27.66ZM92.6186 23.502C92.9826 23.502 93.2953 23.418 93.5566 23.25C93.8179 23.082 94.0186 22.844 94.1586 22.536C94.3079 22.2187 94.3826 21.8453 94.3826 21.416C94.3826 20.772 94.2239 20.268 93.9066 19.904C93.5893 19.5307 93.1599 19.344 92.6186 19.344C92.2546 19.344 91.9419 19.428 91.6806 19.596C91.4193 19.764 91.2139 20.002 91.0646 20.31C90.9246 20.618 90.8546 20.9867 90.8546 21.416C90.8546 22.06 91.0133 22.5687 91.3306 22.942C91.6479 23.3153 92.0773 23.502 92.6186 23.502ZM98.7858 25.112C98.5058 25.112 98.2911 25.0373 98.1418 24.888C97.9925 24.7293 97.9178 24.5053 97.9178 24.216V18.924C97.9178 18.6347 97.9925 18.4153 98.1418 18.266C98.2911 18.1167 98.5011 18.042 98.7718 18.042C99.0425 18.042 99.2525 18.1167 99.4018 18.266C99.5511 18.4153 99.6258 18.6347 99.6258 18.924V19.876L99.4718 19.526C99.6771 19.0313 99.9945 18.658 100.424 18.406C100.862 18.1447 101.357 18.014 101.908 18.014C102.458 18.014 102.911 18.1167 103.266 18.322C103.62 18.5273 103.886 18.84 104.064 19.26C104.241 19.6707 104.33 20.1933 104.33 20.828V24.216C104.33 24.5053 104.255 24.7293 104.106 24.888C103.956 25.0373 103.742 25.112 103.462 25.112C103.182 25.112 102.962 25.0373 102.804 24.888C102.654 24.7293 102.58 24.5053 102.58 24.216V20.912C102.58 20.38 102.477 19.9927 102.272 19.75C102.076 19.5073 101.768 19.386 101.348 19.386C100.834 19.386 100.424 19.5493 100.116 19.876C99.8171 20.1933 99.6678 20.618 99.6678 21.15V24.216C99.6678 24.8133 99.3738 25.112 98.7858 25.112ZM109.229 25.14C108.52 25.14 107.904 24.9953 107.381 24.706C106.859 24.4167 106.453 24.006 106.163 23.474C105.874 22.9327 105.729 22.298 105.729 21.57C105.729 21.0193 105.809 20.5293 105.967 20.1C106.135 19.6613 106.373 19.288 106.681 18.98C106.989 18.6627 107.358 18.4247 107.787 18.266C108.217 18.098 108.697 18.014 109.229 18.014C109.939 18.014 110.555 18.1587 111.077 18.448C111.6 18.7373 112.006 19.148 112.295 19.68C112.585 20.212 112.729 20.842 112.729 21.57C112.729 22.1207 112.645 22.6153 112.477 23.054C112.319 23.4927 112.085 23.8707 111.777 24.188C111.469 24.496 111.101 24.734 110.671 24.902C110.242 25.0607 109.761 25.14 109.229 25.14ZM109.229 23.81C109.575 23.81 109.878 23.726 110.139 23.558C110.401 23.39 110.601 23.1427 110.741 22.816C110.891 22.48 110.965 22.0647 110.965 21.57C110.965 20.8233 110.807 20.268 110.489 19.904C110.172 19.5307 109.752 19.344 109.229 19.344C108.884 19.344 108.581 19.428 108.319 19.596C108.058 19.7547 107.853 20.002 107.703 20.338C107.563 20.6647 107.493 21.0753 107.493 21.57C107.493 22.3073 107.652 22.8673 107.969 23.25C108.287 23.6233 108.707 23.81 109.229 23.81ZM116.68 25.14C116.278 25.14 115.854 25.098 115.406 25.014C114.958 24.93 114.556 24.7853 114.202 24.58C114.052 24.4867 113.945 24.3793 113.88 24.258C113.824 24.1273 113.8 24.0013 113.81 23.88C113.828 23.7493 113.875 23.6373 113.95 23.544C114.034 23.4507 114.136 23.39 114.258 23.362C114.388 23.334 114.528 23.3573 114.678 23.432C115.051 23.6093 115.401 23.7353 115.728 23.81C116.054 23.8753 116.376 23.908 116.694 23.908C117.142 23.908 117.473 23.8333 117.688 23.684C117.912 23.5253 118.024 23.32 118.024 23.068C118.024 22.8533 117.949 22.69 117.8 22.578C117.66 22.4567 117.445 22.368 117.156 22.312L115.756 22.046C115.177 21.934 114.734 21.724 114.426 21.416C114.127 21.0987 113.978 20.6927 113.978 20.198C113.978 19.75 114.099 19.3627 114.342 19.036C114.594 18.7093 114.939 18.4573 115.378 18.28C115.816 18.1027 116.32 18.014 116.89 18.014C117.3 18.014 117.683 18.0607 118.038 18.154C118.402 18.238 118.752 18.3733 119.088 18.56C119.228 18.6347 119.321 18.7327 119.368 18.854C119.424 18.9753 119.438 19.1013 119.41 19.232C119.382 19.3533 119.326 19.4653 119.242 19.568C119.158 19.6613 119.05 19.722 118.92 19.75C118.798 19.7687 118.658 19.7407 118.5 19.666C118.21 19.5167 117.93 19.4093 117.66 19.344C117.398 19.2787 117.146 19.246 116.904 19.246C116.446 19.246 116.106 19.3253 115.882 19.484C115.667 19.6427 115.56 19.8527 115.56 20.114C115.56 20.31 115.625 20.4733 115.756 20.604C115.886 20.7347 116.087 20.8233 116.358 20.87L117.758 21.136C118.364 21.248 118.822 21.4533 119.13 21.752C119.447 22.0507 119.606 22.452 119.606 22.956C119.606 23.6373 119.34 24.174 118.808 24.566C118.276 24.9487 117.566 25.14 116.68 25.14ZM121.878 25.098C121.598 25.098 121.383 25.014 121.234 24.846C121.084 24.678 121.01 24.4447 121.01 24.146V19.008C121.01 18.7 121.084 18.4667 121.234 18.308C121.383 18.14 121.598 18.056 121.878 18.056C122.158 18.056 122.372 18.14 122.522 18.308C122.68 18.4667 122.76 18.7 122.76 19.008V24.146C122.76 24.4447 122.685 24.678 122.536 24.846C122.386 25.014 122.167 25.098 121.878 25.098ZM121.878 16.754C121.551 16.754 121.294 16.6747 121.108 16.516C120.93 16.348 120.842 16.1193 120.842 15.83C120.842 15.5313 120.93 15.3027 121.108 15.144C121.294 14.9853 121.551 14.906 121.878 14.906C122.214 14.906 122.47 14.9853 122.648 15.144C122.825 15.3027 122.914 15.5313 122.914 15.83C122.914 16.1193 122.825 16.348 122.648 16.516C122.47 16.6747 122.214 16.754 121.878 16.754ZM127.084 25.14C126.683 25.14 126.258 25.098 125.81 25.014C125.362 24.93 124.961 24.7853 124.606 24.58C124.457 24.4867 124.349 24.3793 124.284 24.258C124.228 24.1273 124.205 24.0013 124.214 23.88C124.233 23.7493 124.279 23.6373 124.354 23.544C124.438 23.4507 124.541 23.39 124.662 23.362C124.793 23.334 124.933 23.3573 125.082 23.432C125.455 23.6093 125.805 23.7353 126.132 23.81C126.459 23.8753 126.781 23.908 127.098 23.908C127.546 23.908 127.877 23.8333 128.092 23.684C128.316 23.5253 128.428 23.32 128.428 23.068C128.428 22.8533 128.353 22.69 128.204 22.578C128.064 22.4567 127.849 22.368 127.56 22.312L126.16 22.046C125.581 21.934 125.138 21.724 124.83 21.416C124.531 21.0987 124.382 20.6927 124.382 20.198C124.382 19.75 124.503 19.3627 124.746 19.036C124.998 18.7093 125.343 18.4573 125.782 18.28C126.221 18.1027 126.725 18.014 127.294 18.014C127.705 18.014 128.087 18.0607 128.442 18.154C128.806 18.238 129.156 18.3733 129.492 18.56C129.632 18.6347 129.725 18.7327 129.772 18.854C129.828 18.9753 129.842 19.1013 129.814 19.232C129.786 19.3533 129.73 19.4653 129.646 19.568C129.562 19.6613 129.455 19.722 129.324 19.75C129.203 19.7687 129.063 19.7407 128.904 19.666C128.615 19.5167 128.335 19.4093 128.064 19.344C127.803 19.2787 127.551 19.246 127.308 19.246C126.851 19.246 126.51 19.3253 126.286 19.484C126.071 19.6427 125.964 19.8527 125.964 20.114C125.964 20.31 126.029 20.4733 126.16 20.604C126.291 20.7347 126.491 20.8233 126.762 20.87L128.162 21.136C128.769 21.248 129.226 21.4533 129.534 21.752C129.851 22.0507 130.01 22.452 130.01 22.956C130.01 23.6373 129.744 24.174 129.212 24.566C128.68 24.9487 127.971 25.14 127.084 25.14Z" fill="white"/>
</svg>
