<svg width="461" height="80" viewBox="0 0 461 80" fill="none" xmlns="http://www.w3.org/2000/svg">
<rect x="20" y="20" width="100" height="40" rx="8" fill="#1B4965"/>
<path d="M42.98 45.14C42.5693 45.14 42.1587 45.1073 41.748 45.042C41.3373 44.986 40.95 44.8973 40.586 44.776C40.222 44.6453 39.8953 44.4867 39.606 44.3C39.438 44.188 39.3213 44.0527 39.256 43.894C39.1907 43.7353 39.1673 43.5813 39.186 43.432C39.214 43.2733 39.2747 43.138 39.368 43.026C39.4707 42.9047 39.5967 42.83 39.746 42.802C39.8953 42.774 40.0587 42.816 40.236 42.928C40.6467 43.1707 41.0807 43.348 41.538 43.46C41.9953 43.572 42.476 43.628 42.98 43.628C43.7173 43.628 44.254 43.5067 44.59 43.264C44.926 43.012 45.094 42.69 45.094 42.298C45.094 41.9713 44.9727 41.7147 44.73 41.528C44.4967 41.3413 44.0907 41.1873 43.512 41.066L41.972 40.744C41.0853 40.5573 40.4227 40.2447 39.984 39.806C39.5547 39.358 39.34 38.77 39.34 38.042C39.34 37.5847 39.4333 37.1693 39.62 36.796C39.8067 36.4227 40.068 36.1007 40.404 35.83C40.7493 35.5593 41.1553 35.354 41.622 35.214C42.098 35.0647 42.6207 34.99 43.19 34.99C43.75 34.99 44.282 35.06 44.786 35.2C45.29 35.34 45.7427 35.5453 46.144 35.816C46.2933 35.9187 46.3913 36.0447 46.438 36.194C46.494 36.3433 46.508 36.4927 46.48 36.642C46.452 36.782 46.3867 36.9033 46.284 37.006C46.1813 37.1087 46.0507 37.1693 45.892 37.188C45.7427 37.2067 45.57 37.16 45.374 37.048C45.0287 36.852 44.6787 36.712 44.324 36.628C43.9693 36.544 43.5867 36.502 43.176 36.502C42.7467 36.502 42.378 36.5627 42.07 36.684C41.762 36.8053 41.524 36.978 41.356 37.202C41.1973 37.4167 41.118 37.6733 41.118 37.972C41.118 38.308 41.23 38.5787 41.454 38.784C41.678 38.98 42.0607 39.134 42.602 39.246L44.128 39.568C45.052 39.764 45.738 40.072 46.186 40.492C46.6433 40.912 46.872 41.472 46.872 42.172C46.872 42.62 46.7787 43.026 46.592 43.39C46.4147 43.754 46.1533 44.0667 45.808 44.328C45.472 44.5893 45.066 44.79 44.59 44.93C44.114 45.07 43.5773 45.14 42.98 45.14ZM50.72 45.14C50.1507 45.14 49.6794 45.0373 49.306 44.832C48.9327 44.6173 48.6527 44.3 48.466 43.88C48.2887 43.46 48.2 42.9373 48.2 42.312V38.924C48.2 38.6253 48.2747 38.406 48.424 38.266C48.5734 38.1167 48.788 38.042 49.068 38.042C49.348 38.042 49.5627 38.1167 49.712 38.266C49.8707 38.406 49.95 38.6253 49.95 38.924V42.34C49.95 42.8253 50.048 43.1847 50.244 43.418C50.44 43.6513 50.7527 43.768 51.182 43.768C51.6487 43.768 52.0314 43.6093 52.33 43.292C52.6287 42.9653 52.778 42.536 52.778 42.004V38.924C52.778 38.6253 52.8527 38.406 53.002 38.266C53.1514 38.1167 53.366 38.042 53.646 38.042C53.926 38.042 54.1407 38.1167 54.29 38.266C54.4487 38.406 54.528 38.6253 54.528 38.924V44.216C54.528 44.8133 54.2434 45.112 53.674 45.112C53.4034 45.112 53.1934 45.0373 53.044 44.888C52.8947 44.7293 52.82 44.5053 52.82 44.216V43.152L53.016 43.572C52.82 44.076 52.5214 44.4633 52.12 44.734C51.728 45.0047 51.2614 45.14 50.72 45.14ZM57.2455 45.112C56.9655 45.112 56.7508 45.0373 56.6015 44.888C56.4521 44.7293 56.3775 44.5053 56.3775 44.216V38.924C56.3775 38.6347 56.4521 38.4153 56.6015 38.266C56.7508 38.1167 56.9608 38.042 57.2315 38.042C57.5021 38.042 57.7121 38.1167 57.8615 38.266C58.0108 38.4153 58.0855 38.6347 58.0855 38.924V39.946L57.9315 39.526C58.1181 39.0593 58.4075 38.6907 58.7995 38.42C59.1915 38.1493 59.6581 38.014 60.1995 38.014C60.7501 38.014 61.2028 38.1447 61.5575 38.406C61.9121 38.6673 62.1595 39.0687 62.2995 39.61H62.1035C62.2901 39.1153 62.5981 38.728 63.0275 38.448C63.4568 38.1587 63.9515 38.014 64.5115 38.014C65.0341 38.014 65.4635 38.1167 65.7995 38.322C66.1448 38.5273 66.4015 38.84 66.5695 39.26C66.7375 39.6707 66.8215 40.1933 66.8215 40.828V44.216C66.8215 44.5053 66.7421 44.7293 66.5835 44.888C66.4341 45.0373 66.2195 45.112 65.9395 45.112C65.6595 45.112 65.4448 45.0373 65.2955 44.888C65.1461 44.7293 65.0715 44.5053 65.0715 44.216V40.898C65.0715 40.3753 64.9828 39.9927 64.8055 39.75C64.6375 39.5073 64.3481 39.386 63.9375 39.386C63.4801 39.386 63.1208 39.5493 62.8595 39.876C62.5981 40.1933 62.4675 40.6367 62.4675 41.206V44.216C62.4675 44.5053 62.3928 44.7293 62.2435 44.888C62.0941 45.0373 61.8795 45.112 61.5995 45.112C61.3195 45.112 61.1001 45.0373 60.9415 44.888C60.7921 44.7293 60.7175 44.5053 60.7175 44.216V40.898C60.7175 40.3753 60.6288 39.9927 60.4515 39.75C60.2835 39.5073 59.9988 39.386 59.5975 39.386C59.1401 39.386 58.7808 39.5493 58.5195 39.876C58.2581 40.1933 58.1275 40.6367 58.1275 41.206V44.216C58.1275 44.8133 57.8335 45.112 57.2455 45.112ZM69.5228 45.112C69.2428 45.112 69.0281 45.0373 68.8788 44.888C68.7295 44.7293 68.6548 44.5053 68.6548 44.216V38.924C68.6548 38.6347 68.7295 38.4153 68.8788 38.266C69.0281 38.1167 69.2381 38.042 69.5088 38.042C69.7795 38.042 69.9895 38.1167 70.1388 38.266C70.2881 38.4153 70.3628 38.6347 70.3628 38.924V39.946L70.2088 39.526C70.3955 39.0593 70.6848 38.6907 71.0768 38.42C71.4688 38.1493 71.9355 38.014 72.4768 38.014C73.0275 38.014 73.4801 38.1447 73.8348 38.406C74.1895 38.6673 74.4368 39.0687 74.5768 39.61H74.3808C74.5675 39.1153 74.8755 38.728 75.3048 38.448C75.7341 38.1587 76.2288 38.014 76.7888 38.014C77.3115 38.014 77.7408 38.1167 78.0768 38.322C78.4221 38.5273 78.6788 38.84 78.8468 39.26C79.0148 39.6707 79.0988 40.1933 79.0988 40.828V44.216C79.0988 44.5053 79.0195 44.7293 78.8608 44.888C78.7115 45.0373 78.4968 45.112 78.2168 45.112C77.9368 45.112 77.7221 45.0373 77.5728 44.888C77.4235 44.7293 77.3488 44.5053 77.3488 44.216V40.898C77.3488 40.3753 77.2601 39.9927 77.0828 39.75C76.9148 39.5073 76.6255 39.386 76.2148 39.386C75.7575 39.386 75.3981 39.5493 75.1368 39.876C74.8755 40.1933 74.7448 40.6367 74.7448 41.206V44.216C74.7448 44.5053 74.6701 44.7293 74.5208 44.888C74.3715 45.0373 74.1568 45.112 73.8768 45.112C73.5968 45.112 73.3775 45.0373 73.2188 44.888C73.0695 44.7293 72.9948 44.5053 72.9948 44.216V40.898C72.9948 40.3753 72.9061 39.9927 72.7288 39.75C72.5608 39.5073 72.2761 39.386 71.8748 39.386C71.4175 39.386 71.0581 39.5493 70.7968 39.876C70.5355 40.1933 70.4048 40.6367 70.4048 41.206V44.216C70.4048 44.8133 70.1108 45.112 69.5228 45.112ZM83.1581 45.14C82.6635 45.14 82.2201 45.0467 81.8281 44.86C81.4455 44.664 81.1421 44.4027 80.9181 44.076C80.7035 43.7493 80.5961 43.3807 80.5961 42.97C80.5961 42.466 80.7268 42.0693 80.9881 41.78C81.2495 41.4813 81.6741 41.2667 82.2621 41.136C82.8501 41.0053 83.6388 40.94 84.6281 40.94H85.3281V41.948H84.6421C84.0635 41.948 83.6015 41.976 83.2561 42.032C82.9108 42.088 82.6635 42.186 82.5141 42.326C82.3741 42.4567 82.3041 42.6433 82.3041 42.886C82.3041 43.194 82.4115 43.446 82.6261 43.642C82.8408 43.838 83.1395 43.936 83.5221 43.936C83.8301 43.936 84.1008 43.866 84.3341 43.726C84.5768 43.5767 84.7681 43.376 84.9081 43.124C85.0481 42.872 85.1181 42.5827 85.1181 42.256V40.646C85.1181 40.1793 85.0155 39.8433 84.8101 39.638C84.6048 39.4327 84.2595 39.33 83.7741 39.33C83.5035 39.33 83.2095 39.3627 82.8921 39.428C82.5841 39.4933 82.2575 39.6053 81.9121 39.764C81.7348 39.848 81.5761 39.8713 81.4361 39.834C81.3055 39.7967 81.2028 39.722 81.1281 39.61C81.0535 39.4887 81.0161 39.358 81.0161 39.218C81.0161 39.078 81.0535 38.9427 81.1281 38.812C81.2028 38.672 81.3288 38.5693 81.5061 38.504C81.9355 38.3267 82.3461 38.2007 82.7381 38.126C83.1395 38.0513 83.5035 38.014 83.8301 38.014C84.5021 38.014 85.0528 38.1167 85.4821 38.322C85.9208 38.5273 86.2475 38.84 86.4621 39.26C86.6768 39.6707 86.7841 40.2027 86.7841 40.856V44.216C86.7841 44.5053 86.7141 44.7293 86.5741 44.888C86.4341 45.0373 86.2335 45.112 85.9721 45.112C85.7108 45.112 85.5055 45.0373 85.3561 44.888C85.2161 44.7293 85.1461 44.5053 85.1461 44.216V43.544H85.2581C85.1928 43.8707 85.0621 44.1553 84.8661 44.398C84.6795 44.6313 84.4415 44.8133 84.1521 44.944C83.8628 45.0747 83.5315 45.14 83.1581 45.14ZM89.4564 45.112C89.1671 45.112 88.9431 45.0373 88.7844 44.888C88.6351 44.7293 88.5604 44.5053 88.5604 44.216V38.924C88.5604 38.6347 88.6351 38.4153 88.7844 38.266C88.9337 38.1167 89.1437 38.042 89.4144 38.042C89.6851 38.042 89.8951 38.1167 90.0444 38.266C90.1937 38.4153 90.2684 38.6347 90.2684 38.924V39.806H90.1284C90.2591 39.246 90.5157 38.8213 90.8984 38.532C91.2811 38.2427 91.7897 38.07 92.4244 38.014C92.6204 37.9953 92.7744 38.0467 92.8864 38.168C93.0077 38.28 93.0777 38.4573 93.0964 38.7C93.1151 38.9333 93.0591 39.1247 92.9284 39.274C92.8071 39.414 92.6204 39.498 92.3684 39.526L92.0604 39.554C91.4911 39.61 91.0617 39.7873 90.7724 40.086C90.4831 40.3753 90.3384 40.786 90.3384 41.318V44.216C90.3384 44.5053 90.2637 44.7293 90.1144 44.888C89.9651 45.0373 89.7457 45.112 89.4564 45.112ZM96.2026 47.632C95.9973 47.632 95.8293 47.576 95.6986 47.464C95.568 47.3613 95.4886 47.2213 95.4606 47.044C95.442 46.8667 95.4746 46.68 95.5586 46.484L96.5106 44.37V45.098L93.9626 39.204C93.8786 38.9987 93.8506 38.8073 93.8786 38.63C93.9066 38.4527 93.9906 38.3127 94.1306 38.21C94.28 38.098 94.4806 38.042 94.7326 38.042C94.9473 38.042 95.12 38.0933 95.2506 38.196C95.3813 38.2893 95.498 38.4713 95.6006 38.742L97.4906 43.46H97.0706L99.0026 38.728C99.1053 38.4667 99.2266 38.2893 99.3666 38.196C99.5066 38.0933 99.6933 38.042 99.9266 38.042C100.132 38.042 100.295 38.098 100.417 38.21C100.538 38.3127 100.613 38.4527 100.641 38.63C100.669 38.798 100.636 38.9847 100.543 39.19L97.1406 46.96C97.0193 47.2213 96.8886 47.3987 96.7486 47.492C96.6086 47.5853 96.4266 47.632 96.2026 47.632Z" fill="white"/>
<g filter="url(#filter0_b_668_20868)">
<rect x="127" y="20" width="100" height="40" rx="8" fill="white" fill-opacity="0.75"/>
<path d="M149.98 45.14C149.569 45.14 149.159 45.1073 148.748 45.042C148.337 44.986 147.95 44.8973 147.586 44.776C147.222 44.6453 146.895 44.4867 146.606 44.3C146.438 44.188 146.321 44.0527 146.256 43.894C146.191 43.7353 146.167 43.5813 146.186 43.432C146.214 43.2733 146.275 43.138 146.368 43.026C146.471 42.9047 146.597 42.83 146.746 42.802C146.895 42.774 147.059 42.816 147.236 42.928C147.647 43.1707 148.081 43.348 148.538 43.46C148.995 43.572 149.476 43.628 149.98 43.628C150.717 43.628 151.254 43.5067 151.59 43.264C151.926 43.012 152.094 42.69 152.094 42.298C152.094 41.9713 151.973 41.7147 151.73 41.528C151.497 41.3413 151.091 41.1873 150.512 41.066L148.972 40.744C148.085 40.5573 147.423 40.2447 146.984 39.806C146.555 39.358 146.34 38.77 146.34 38.042C146.34 37.5847 146.433 37.1693 146.62 36.796C146.807 36.4227 147.068 36.1007 147.404 35.83C147.749 35.5593 148.155 35.354 148.622 35.214C149.098 35.0647 149.621 34.99 150.19 34.99C150.75 34.99 151.282 35.06 151.786 35.2C152.29 35.34 152.743 35.5453 153.144 35.816C153.293 35.9187 153.391 36.0447 153.438 36.194C153.494 36.3433 153.508 36.4927 153.48 36.642C153.452 36.782 153.387 36.9033 153.284 37.006C153.181 37.1087 153.051 37.1693 152.892 37.188C152.743 37.2067 152.57 37.16 152.374 37.048C152.029 36.852 151.679 36.712 151.324 36.628C150.969 36.544 150.587 36.502 150.176 36.502C149.747 36.502 149.378 36.5627 149.07 36.684C148.762 36.8053 148.524 36.978 148.356 37.202C148.197 37.4167 148.118 37.6733 148.118 37.972C148.118 38.308 148.23 38.5787 148.454 38.784C148.678 38.98 149.061 39.134 149.602 39.246L151.128 39.568C152.052 39.764 152.738 40.072 153.186 40.492C153.643 40.912 153.872 41.472 153.872 42.172C153.872 42.62 153.779 43.026 153.592 43.39C153.415 43.754 153.153 44.0667 152.808 44.328C152.472 44.5893 152.066 44.79 151.59 44.93C151.114 45.07 150.577 45.14 149.98 45.14ZM157.72 45.14C157.151 45.14 156.679 45.0373 156.306 44.832C155.933 44.6173 155.653 44.3 155.466 43.88C155.289 43.46 155.2 42.9373 155.2 42.312V38.924C155.2 38.6253 155.275 38.406 155.424 38.266C155.573 38.1167 155.788 38.042 156.068 38.042C156.348 38.042 156.563 38.1167 156.712 38.266C156.871 38.406 156.95 38.6253 156.95 38.924V42.34C156.95 42.8253 157.048 43.1847 157.244 43.418C157.44 43.6513 157.753 43.768 158.182 43.768C158.649 43.768 159.031 43.6093 159.33 43.292C159.629 42.9653 159.778 42.536 159.778 42.004V38.924C159.778 38.6253 159.853 38.406 160.002 38.266C160.151 38.1167 160.366 38.042 160.646 38.042C160.926 38.042 161.141 38.1167 161.29 38.266C161.449 38.406 161.528 38.6253 161.528 38.924V44.216C161.528 44.8133 161.243 45.112 160.674 45.112C160.403 45.112 160.193 45.0373 160.044 44.888C159.895 44.7293 159.82 44.5053 159.82 44.216V43.152L160.016 43.572C159.82 44.076 159.521 44.4633 159.12 44.734C158.728 45.0047 158.261 45.14 157.72 45.14ZM164.245 45.112C163.965 45.112 163.751 45.0373 163.601 44.888C163.452 44.7293 163.377 44.5053 163.377 44.216V38.924C163.377 38.6347 163.452 38.4153 163.601 38.266C163.751 38.1167 163.961 38.042 164.231 38.042C164.502 38.042 164.712 38.1167 164.861 38.266C165.011 38.4153 165.085 38.6347 165.085 38.924V39.946L164.931 39.526C165.118 39.0593 165.407 38.6907 165.799 38.42C166.191 38.1493 166.658 38.014 167.199 38.014C167.75 38.014 168.203 38.1447 168.557 38.406C168.912 38.6673 169.159 39.0687 169.299 39.61H169.103C169.29 39.1153 169.598 38.728 170.027 38.448C170.457 38.1587 170.951 38.014 171.511 38.014C172.034 38.014 172.463 38.1167 172.799 38.322C173.145 38.5273 173.401 38.84 173.569 39.26C173.737 39.6707 173.821 40.1933 173.821 40.828V44.216C173.821 44.5053 173.742 44.7293 173.583 44.888C173.434 45.0373 173.219 45.112 172.939 45.112C172.659 45.112 172.445 45.0373 172.295 44.888C172.146 44.7293 172.071 44.5053 172.071 44.216V40.898C172.071 40.3753 171.983 39.9927 171.805 39.75C171.637 39.5073 171.348 39.386 170.937 39.386C170.48 39.386 170.121 39.5493 169.859 39.876C169.598 40.1933 169.467 40.6367 169.467 41.206V44.216C169.467 44.5053 169.393 44.7293 169.243 44.888C169.094 45.0373 168.879 45.112 168.599 45.112C168.319 45.112 168.1 45.0373 167.941 44.888C167.792 44.7293 167.717 44.5053 167.717 44.216V40.898C167.717 40.3753 167.629 39.9927 167.451 39.75C167.283 39.5073 166.999 39.386 166.597 39.386C166.14 39.386 165.781 39.5493 165.519 39.876C165.258 40.1933 165.127 40.6367 165.127 41.206V44.216C165.127 44.8133 164.833 45.112 164.245 45.112ZM176.523 45.112C176.243 45.112 176.028 45.0373 175.879 44.888C175.729 44.7293 175.655 44.5053 175.655 44.216V38.924C175.655 38.6347 175.729 38.4153 175.879 38.266C176.028 38.1167 176.238 38.042 176.509 38.042C176.779 38.042 176.989 38.1167 177.139 38.266C177.288 38.4153 177.363 38.6347 177.363 38.924V39.946L177.209 39.526C177.395 39.0593 177.685 38.6907 178.077 38.42C178.469 38.1493 178.935 38.014 179.477 38.014C180.027 38.014 180.48 38.1447 180.835 38.406C181.189 38.6673 181.437 39.0687 181.577 39.61H181.381C181.567 39.1153 181.875 38.728 182.305 38.448C182.734 38.1587 183.229 38.014 183.789 38.014C184.311 38.014 184.741 38.1167 185.077 38.322C185.422 38.5273 185.679 38.84 185.847 39.26C186.015 39.6707 186.099 40.1933 186.099 40.828V44.216C186.099 44.5053 186.019 44.7293 185.861 44.888C185.711 45.0373 185.497 45.112 185.217 45.112C184.937 45.112 184.722 45.0373 184.573 44.888C184.423 44.7293 184.349 44.5053 184.349 44.216V40.898C184.349 40.3753 184.26 39.9927 184.083 39.75C183.915 39.5073 183.625 39.386 183.215 39.386C182.757 39.386 182.398 39.5493 182.137 39.876C181.875 40.1933 181.745 40.6367 181.745 41.206V44.216C181.745 44.5053 181.67 44.7293 181.521 44.888C181.371 45.0373 181.157 45.112 180.877 45.112C180.597 45.112 180.377 45.0373 180.219 44.888C180.069 44.7293 179.995 44.5053 179.995 44.216V40.898C179.995 40.3753 179.906 39.9927 179.729 39.75C179.561 39.5073 179.276 39.386 178.875 39.386C178.417 39.386 178.058 39.5493 177.797 39.876C177.535 40.1933 177.405 40.6367 177.405 41.206V44.216C177.405 44.8133 177.111 45.112 176.523 45.112ZM190.158 45.14C189.663 45.14 189.22 45.0467 188.828 44.86C188.445 44.664 188.142 44.4027 187.918 44.076C187.703 43.7493 187.596 43.3807 187.596 42.97C187.596 42.466 187.727 42.0693 187.988 41.78C188.249 41.4813 188.674 41.2667 189.262 41.136C189.85 41.0053 190.639 40.94 191.628 40.94H192.328V41.948H191.642C191.063 41.948 190.601 41.976 190.256 42.032C189.911 42.088 189.663 42.186 189.514 42.326C189.374 42.4567 189.304 42.6433 189.304 42.886C189.304 43.194 189.411 43.446 189.626 43.642C189.841 43.838 190.139 43.936 190.522 43.936C190.83 43.936 191.101 43.866 191.334 43.726C191.577 43.5767 191.768 43.376 191.908 43.124C192.048 42.872 192.118 42.5827 192.118 42.256V40.646C192.118 40.1793 192.015 39.8433 191.81 39.638C191.605 39.4327 191.259 39.33 190.774 39.33C190.503 39.33 190.209 39.3627 189.892 39.428C189.584 39.4933 189.257 39.6053 188.912 39.764C188.735 39.848 188.576 39.8713 188.436 39.834C188.305 39.7967 188.203 39.722 188.128 39.61C188.053 39.4887 188.016 39.358 188.016 39.218C188.016 39.078 188.053 38.9427 188.128 38.812C188.203 38.672 188.329 38.5693 188.506 38.504C188.935 38.3267 189.346 38.2007 189.738 38.126C190.139 38.0513 190.503 38.014 190.83 38.014C191.502 38.014 192.053 38.1167 192.482 38.322C192.921 38.5273 193.247 38.84 193.462 39.26C193.677 39.6707 193.784 40.2027 193.784 40.856V44.216C193.784 44.5053 193.714 44.7293 193.574 44.888C193.434 45.0373 193.233 45.112 192.972 45.112C192.711 45.112 192.505 45.0373 192.356 44.888C192.216 44.7293 192.146 44.5053 192.146 44.216V43.544H192.258C192.193 43.8707 192.062 44.1553 191.866 44.398C191.679 44.6313 191.441 44.8133 191.152 44.944C190.863 45.0747 190.531 45.14 190.158 45.14ZM196.456 45.112C196.167 45.112 195.943 45.0373 195.784 44.888C195.635 44.7293 195.56 44.5053 195.56 44.216V38.924C195.56 38.6347 195.635 38.4153 195.784 38.266C195.934 38.1167 196.144 38.042 196.414 38.042C196.685 38.042 196.895 38.1167 197.044 38.266C197.194 38.4153 197.268 38.6347 197.268 38.924V39.806H197.128C197.259 39.246 197.516 38.8213 197.898 38.532C198.281 38.2427 198.79 38.07 199.424 38.014C199.62 37.9953 199.774 38.0467 199.886 38.168C200.008 38.28 200.078 38.4573 200.096 38.7C200.115 38.9333 200.059 39.1247 199.928 39.274C199.807 39.414 199.62 39.498 199.368 39.526L199.06 39.554C198.491 39.61 198.062 39.7873 197.772 40.086C197.483 40.3753 197.338 40.786 197.338 41.318V44.216C197.338 44.5053 197.264 44.7293 197.114 44.888C196.965 45.0373 196.746 45.112 196.456 45.112ZM203.203 47.632C202.997 47.632 202.829 47.576 202.699 47.464C202.568 47.3613 202.489 47.2213 202.461 47.044C202.442 46.8667 202.475 46.68 202.559 46.484L203.511 44.37V45.098L200.963 39.204C200.879 38.9987 200.851 38.8073 200.879 38.63C200.907 38.4527 200.991 38.3127 201.131 38.21C201.28 38.098 201.481 38.042 201.733 38.042C201.947 38.042 202.12 38.0933 202.251 38.196C202.381 38.2893 202.498 38.4713 202.601 38.742L204.491 43.46H204.071L206.003 38.728C206.105 38.4667 206.227 38.2893 206.367 38.196C206.507 38.0933 206.693 38.042 206.927 38.042C207.132 38.042 207.295 38.098 207.417 38.21C207.538 38.3127 207.613 38.4527 207.641 38.63C207.669 38.798 207.636 38.9847 207.543 39.19L204.141 46.96C204.019 47.2213 203.889 47.3987 203.749 47.492C203.609 47.5853 203.427 47.632 203.203 47.632Z" fill="#1B4965"/>
</g>
<g filter="url(#filter1_b_668_20868)">
<rect x="341" y="20" width="87" height="40" rx="8" fill="white"/>
<path d="M357.48 45.14C357.069 45.14 356.659 45.1073 356.248 45.042C355.837 44.986 355.45 44.8973 355.086 44.776C354.722 44.6453 354.395 44.4867 354.106 44.3C353.938 44.188 353.821 44.0527 353.756 43.894C353.691 43.7353 353.667 43.5813 353.686 43.432C353.714 43.2733 353.775 43.138 353.868 43.026C353.971 42.9047 354.097 42.83 354.246 42.802C354.395 42.774 354.559 42.816 354.736 42.928C355.147 43.1707 355.581 43.348 356.038 43.46C356.495 43.572 356.976 43.628 357.48 43.628C358.217 43.628 358.754 43.5067 359.09 43.264C359.426 43.012 359.594 42.69 359.594 42.298C359.594 41.9713 359.473 41.7147 359.23 41.528C358.997 41.3413 358.591 41.1873 358.012 41.066L356.472 40.744C355.585 40.5573 354.923 40.2447 354.484 39.806C354.055 39.358 353.84 38.77 353.84 38.042C353.84 37.5847 353.933 37.1693 354.12 36.796C354.307 36.4227 354.568 36.1007 354.904 35.83C355.249 35.5593 355.655 35.354 356.122 35.214C356.598 35.0647 357.121 34.99 357.69 34.99C358.25 34.99 358.782 35.06 359.286 35.2C359.79 35.34 360.243 35.5453 360.644 35.816C360.793 35.9187 360.891 36.0447 360.938 36.194C360.994 36.3433 361.008 36.4927 360.98 36.642C360.952 36.782 360.887 36.9033 360.784 37.006C360.681 37.1087 360.551 37.1693 360.392 37.188C360.243 37.2067 360.07 37.16 359.874 37.048C359.529 36.852 359.179 36.712 358.824 36.628C358.469 36.544 358.087 36.502 357.676 36.502C357.247 36.502 356.878 36.5627 356.57 36.684C356.262 36.8053 356.024 36.978 355.856 37.202C355.697 37.4167 355.618 37.6733 355.618 37.972C355.618 38.308 355.73 38.5787 355.954 38.784C356.178 38.98 356.561 39.134 357.102 39.246L358.628 39.568C359.552 39.764 360.238 40.072 360.686 40.492C361.143 40.912 361.372 41.472 361.372 42.172C361.372 42.62 361.279 43.026 361.092 43.39C360.915 43.754 360.653 44.0667 360.308 44.328C359.972 44.5893 359.566 44.79 359.09 44.93C358.614 45.07 358.077 45.14 357.48 45.14ZM365.22 45.14C364.651 45.14 364.179 45.0373 363.806 44.832C363.433 44.6173 363.153 44.3 362.966 43.88C362.789 43.46 362.7 42.9373 362.7 42.312V38.924C362.7 38.6253 362.775 38.406 362.924 38.266C363.073 38.1167 363.288 38.042 363.568 38.042C363.848 38.042 364.063 38.1167 364.212 38.266C364.371 38.406 364.45 38.6253 364.45 38.924V42.34C364.45 42.8253 364.548 43.1847 364.744 43.418C364.94 43.6513 365.253 43.768 365.682 43.768C366.149 43.768 366.531 43.6093 366.83 43.292C367.129 42.9653 367.278 42.536 367.278 42.004V38.924C367.278 38.6253 367.353 38.406 367.502 38.266C367.651 38.1167 367.866 38.042 368.146 38.042C368.426 38.042 368.641 38.1167 368.79 38.266C368.949 38.406 369.028 38.6253 369.028 38.924V44.216C369.028 44.8133 368.743 45.112 368.174 45.112C367.903 45.112 367.693 45.0373 367.544 44.888C367.395 44.7293 367.32 44.5053 367.32 44.216V43.152L367.516 43.572C367.32 44.076 367.021 44.4633 366.62 44.734C366.228 45.0047 365.761 45.14 365.22 45.14ZM371.745 45.112C371.465 45.112 371.251 45.0373 371.101 44.888C370.952 44.7293 370.877 44.5053 370.877 44.216V38.924C370.877 38.6347 370.952 38.4153 371.101 38.266C371.251 38.1167 371.461 38.042 371.731 38.042C372.002 38.042 372.212 38.1167 372.361 38.266C372.511 38.4153 372.585 38.6347 372.585 38.924V39.946L372.431 39.526C372.618 39.0593 372.907 38.6907 373.299 38.42C373.691 38.1493 374.158 38.014 374.699 38.014C375.25 38.014 375.703 38.1447 376.057 38.406C376.412 38.6673 376.659 39.0687 376.799 39.61H376.603C376.79 39.1153 377.098 38.728 377.527 38.448C377.957 38.1587 378.451 38.014 379.011 38.014C379.534 38.014 379.963 38.1167 380.299 38.322C380.645 38.5273 380.901 38.84 381.069 39.26C381.237 39.6707 381.321 40.1933 381.321 40.828V44.216C381.321 44.5053 381.242 44.7293 381.083 44.888C380.934 45.0373 380.719 45.112 380.439 45.112C380.159 45.112 379.945 45.0373 379.795 44.888C379.646 44.7293 379.571 44.5053 379.571 44.216V40.898C379.571 40.3753 379.483 39.9927 379.305 39.75C379.137 39.5073 378.848 39.386 378.437 39.386C377.98 39.386 377.621 39.5493 377.359 39.876C377.098 40.1933 376.967 40.6367 376.967 41.206V44.216C376.967 44.5053 376.893 44.7293 376.743 44.888C376.594 45.0373 376.379 45.112 376.099 45.112C375.819 45.112 375.6 45.0373 375.441 44.888C375.292 44.7293 375.217 44.5053 375.217 44.216V40.898C375.217 40.3753 375.129 39.9927 374.951 39.75C374.783 39.5073 374.499 39.386 374.097 39.386C373.64 39.386 373.281 39.5493 373.019 39.876C372.758 40.1933 372.627 40.6367 372.627 41.206V44.216C372.627 44.8133 372.333 45.112 371.745 45.112ZM384.023 45.112C383.743 45.112 383.528 45.0373 383.379 44.888C383.229 44.7293 383.155 44.5053 383.155 44.216V38.924C383.155 38.6347 383.229 38.4153 383.379 38.266C383.528 38.1167 383.738 38.042 384.009 38.042C384.279 38.042 384.489 38.1167 384.639 38.266C384.788 38.4153 384.863 38.6347 384.863 38.924V39.946L384.709 39.526C384.895 39.0593 385.185 38.6907 385.577 38.42C385.969 38.1493 386.435 38.014 386.977 38.014C387.527 38.014 387.98 38.1447 388.335 38.406C388.689 38.6673 388.937 39.0687 389.077 39.61H388.881C389.067 39.1153 389.375 38.728 389.805 38.448C390.234 38.1587 390.729 38.014 391.289 38.014C391.811 38.014 392.241 38.1167 392.577 38.322C392.922 38.5273 393.179 38.84 393.347 39.26C393.515 39.6707 393.599 40.1933 393.599 40.828V44.216C393.599 44.5053 393.519 44.7293 393.361 44.888C393.211 45.0373 392.997 45.112 392.717 45.112C392.437 45.112 392.222 45.0373 392.073 44.888C391.923 44.7293 391.849 44.5053 391.849 44.216V40.898C391.849 40.3753 391.76 39.9927 391.583 39.75C391.415 39.5073 391.125 39.386 390.715 39.386C390.257 39.386 389.898 39.5493 389.637 39.876C389.375 40.1933 389.245 40.6367 389.245 41.206V44.216C389.245 44.5053 389.17 44.7293 389.021 44.888C388.871 45.0373 388.657 45.112 388.377 45.112C388.097 45.112 387.877 45.0373 387.719 44.888C387.569 44.7293 387.495 44.5053 387.495 44.216V40.898C387.495 40.3753 387.406 39.9927 387.229 39.75C387.061 39.5073 386.776 39.386 386.375 39.386C385.917 39.386 385.558 39.5493 385.297 39.876C385.035 40.1933 384.905 40.6367 384.905 41.206V44.216C384.905 44.8133 384.611 45.112 384.023 45.112ZM397.658 45.14C397.163 45.14 396.72 45.0467 396.328 44.86C395.945 44.664 395.642 44.4027 395.418 44.076C395.203 43.7493 395.096 43.3807 395.096 42.97C395.096 42.466 395.227 42.0693 395.488 41.78C395.749 41.4813 396.174 41.2667 396.762 41.136C397.35 41.0053 398.139 40.94 399.128 40.94H399.828V41.948H399.142C398.563 41.948 398.101 41.976 397.756 42.032C397.411 42.088 397.163 42.186 397.014 42.326C396.874 42.4567 396.804 42.6433 396.804 42.886C396.804 43.194 396.911 43.446 397.126 43.642C397.341 43.838 397.639 43.936 398.022 43.936C398.33 43.936 398.601 43.866 398.834 43.726C399.077 43.5767 399.268 43.376 399.408 43.124C399.548 42.872 399.618 42.5827 399.618 42.256V40.646C399.618 40.1793 399.515 39.8433 399.31 39.638C399.105 39.4327 398.759 39.33 398.274 39.33C398.003 39.33 397.709 39.3627 397.392 39.428C397.084 39.4933 396.757 39.6053 396.412 39.764C396.235 39.848 396.076 39.8713 395.936 39.834C395.805 39.7967 395.703 39.722 395.628 39.61C395.553 39.4887 395.516 39.358 395.516 39.218C395.516 39.078 395.553 38.9427 395.628 38.812C395.703 38.672 395.829 38.5693 396.006 38.504C396.435 38.3267 396.846 38.2007 397.238 38.126C397.639 38.0513 398.003 38.014 398.33 38.014C399.002 38.014 399.553 38.1167 399.982 38.322C400.421 38.5273 400.747 38.84 400.962 39.26C401.177 39.6707 401.284 40.2027 401.284 40.856V44.216C401.284 44.5053 401.214 44.7293 401.074 44.888C400.934 45.0373 400.733 45.112 400.472 45.112C400.211 45.112 400.005 45.0373 399.856 44.888C399.716 44.7293 399.646 44.5053 399.646 44.216V43.544H399.758C399.693 43.8707 399.562 44.1553 399.366 44.398C399.179 44.6313 398.941 44.8133 398.652 44.944C398.363 45.0747 398.031 45.14 397.658 45.14ZM403.956 45.112C403.667 45.112 403.443 45.0373 403.284 44.888C403.135 44.7293 403.06 44.5053 403.06 44.216V38.924C403.06 38.6347 403.135 38.4153 403.284 38.266C403.434 38.1167 403.644 38.042 403.914 38.042C404.185 38.042 404.395 38.1167 404.544 38.266C404.694 38.4153 404.768 38.6347 404.768 38.924V39.806H404.628C404.759 39.246 405.016 38.8213 405.398 38.532C405.781 38.2427 406.29 38.07 406.924 38.014C407.12 37.9953 407.274 38.0467 407.386 38.168C407.508 38.28 407.578 38.4573 407.596 38.7C407.615 38.9333 407.559 39.1247 407.428 39.274C407.307 39.414 407.12 39.498 406.868 39.526L406.56 39.554C405.991 39.61 405.562 39.7873 405.272 40.086C404.983 40.3753 404.838 40.786 404.838 41.318V44.216C404.838 44.5053 404.764 44.7293 404.614 44.888C404.465 45.0373 404.246 45.112 403.956 45.112ZM410.703 47.632C410.497 47.632 410.329 47.576 410.199 47.464C410.068 47.3613 409.989 47.2213 409.961 47.044C409.942 46.8667 409.975 46.68 410.059 46.484L411.011 44.37V45.098L408.463 39.204C408.379 38.9987 408.351 38.8073 408.379 38.63C408.407 38.4527 408.491 38.3127 408.631 38.21C408.78 38.098 408.981 38.042 409.233 38.042C409.447 38.042 409.62 38.0933 409.751 38.196C409.881 38.2893 409.998 38.4713 410.101 38.742L411.991 43.46H411.571L413.503 38.728C413.605 38.4667 413.727 38.2893 413.867 38.196C414.007 38.0933 414.193 38.042 414.427 38.042C414.632 38.042 414.795 38.098 414.917 38.21C415.038 38.3127 415.113 38.4527 415.141 38.63C415.169 38.798 415.136 38.9847 415.043 39.19L411.641 46.96C411.519 47.2213 411.389 47.3987 411.249 47.492C411.109 47.5853 410.927 47.632 410.703 47.632Z" fill="#A5B8C3" fill-opacity="0.5"/>
</g>
<g filter="url(#filter2_b_668_20868)">
<rect x="234" y="20" width="100" height="40" rx="8" fill="#0369D8" fill-opacity="0.75"/>
<path d="M256.98 45.14C256.569 45.14 256.159 45.1073 255.748 45.042C255.337 44.986 254.95 44.8973 254.586 44.776C254.222 44.6453 253.895 44.4867 253.606 44.3C253.438 44.188 253.321 44.0527 253.256 43.894C253.191 43.7353 253.167 43.5813 253.186 43.432C253.214 43.2733 253.275 43.138 253.368 43.026C253.471 42.9047 253.597 42.83 253.746 42.802C253.895 42.774 254.059 42.816 254.236 42.928C254.647 43.1707 255.081 43.348 255.538 43.46C255.995 43.572 256.476 43.628 256.98 43.628C257.717 43.628 258.254 43.5067 258.59 43.264C258.926 43.012 259.094 42.69 259.094 42.298C259.094 41.9713 258.973 41.7147 258.73 41.528C258.497 41.3413 258.091 41.1873 257.512 41.066L255.972 40.744C255.085 40.5573 254.423 40.2447 253.984 39.806C253.555 39.358 253.34 38.77 253.34 38.042C253.34 37.5847 253.433 37.1693 253.62 36.796C253.807 36.4227 254.068 36.1007 254.404 35.83C254.749 35.5593 255.155 35.354 255.622 35.214C256.098 35.0647 256.621 34.99 257.19 34.99C257.75 34.99 258.282 35.06 258.786 35.2C259.29 35.34 259.743 35.5453 260.144 35.816C260.293 35.9187 260.391 36.0447 260.438 36.194C260.494 36.3433 260.508 36.4927 260.48 36.642C260.452 36.782 260.387 36.9033 260.284 37.006C260.181 37.1087 260.051 37.1693 259.892 37.188C259.743 37.2067 259.57 37.16 259.374 37.048C259.029 36.852 258.679 36.712 258.324 36.628C257.969 36.544 257.587 36.502 257.176 36.502C256.747 36.502 256.378 36.5627 256.07 36.684C255.762 36.8053 255.524 36.978 255.356 37.202C255.197 37.4167 255.118 37.6733 255.118 37.972C255.118 38.308 255.23 38.5787 255.454 38.784C255.678 38.98 256.061 39.134 256.602 39.246L258.128 39.568C259.052 39.764 259.738 40.072 260.186 40.492C260.643 40.912 260.872 41.472 260.872 42.172C260.872 42.62 260.779 43.026 260.592 43.39C260.415 43.754 260.153 44.0667 259.808 44.328C259.472 44.5893 259.066 44.79 258.59 44.93C258.114 45.07 257.577 45.14 256.98 45.14ZM264.72 45.14C264.151 45.14 263.679 45.0373 263.306 44.832C262.933 44.6173 262.653 44.3 262.466 43.88C262.289 43.46 262.2 42.9373 262.2 42.312V38.924C262.2 38.6253 262.275 38.406 262.424 38.266C262.573 38.1167 262.788 38.042 263.068 38.042C263.348 38.042 263.563 38.1167 263.712 38.266C263.871 38.406 263.95 38.6253 263.95 38.924V42.34C263.95 42.8253 264.048 43.1847 264.244 43.418C264.44 43.6513 264.753 43.768 265.182 43.768C265.649 43.768 266.031 43.6093 266.33 43.292C266.629 42.9653 266.778 42.536 266.778 42.004V38.924C266.778 38.6253 266.853 38.406 267.002 38.266C267.151 38.1167 267.366 38.042 267.646 38.042C267.926 38.042 268.141 38.1167 268.29 38.266C268.449 38.406 268.528 38.6253 268.528 38.924V44.216C268.528 44.8133 268.243 45.112 267.674 45.112C267.403 45.112 267.193 45.0373 267.044 44.888C266.895 44.7293 266.82 44.5053 266.82 44.216V43.152L267.016 43.572C266.82 44.076 266.521 44.4633 266.12 44.734C265.728 45.0047 265.261 45.14 264.72 45.14ZM271.245 45.112C270.965 45.112 270.751 45.0373 270.601 44.888C270.452 44.7293 270.377 44.5053 270.377 44.216V38.924C270.377 38.6347 270.452 38.4153 270.601 38.266C270.751 38.1167 270.961 38.042 271.231 38.042C271.502 38.042 271.712 38.1167 271.861 38.266C272.011 38.4153 272.085 38.6347 272.085 38.924V39.946L271.931 39.526C272.118 39.0593 272.407 38.6907 272.799 38.42C273.191 38.1493 273.658 38.014 274.199 38.014C274.75 38.014 275.203 38.1447 275.557 38.406C275.912 38.6673 276.159 39.0687 276.299 39.61H276.103C276.29 39.1153 276.598 38.728 277.027 38.448C277.457 38.1587 277.951 38.014 278.511 38.014C279.034 38.014 279.463 38.1167 279.799 38.322C280.145 38.5273 280.401 38.84 280.569 39.26C280.737 39.6707 280.821 40.1933 280.821 40.828V44.216C280.821 44.5053 280.742 44.7293 280.583 44.888C280.434 45.0373 280.219 45.112 279.939 45.112C279.659 45.112 279.445 45.0373 279.295 44.888C279.146 44.7293 279.071 44.5053 279.071 44.216V40.898C279.071 40.3753 278.983 39.9927 278.805 39.75C278.637 39.5073 278.348 39.386 277.937 39.386C277.48 39.386 277.121 39.5493 276.859 39.876C276.598 40.1933 276.467 40.6367 276.467 41.206V44.216C276.467 44.5053 276.393 44.7293 276.243 44.888C276.094 45.0373 275.879 45.112 275.599 45.112C275.319 45.112 275.1 45.0373 274.941 44.888C274.792 44.7293 274.717 44.5053 274.717 44.216V40.898C274.717 40.3753 274.629 39.9927 274.451 39.75C274.283 39.5073 273.999 39.386 273.597 39.386C273.14 39.386 272.781 39.5493 272.519 39.876C272.258 40.1933 272.127 40.6367 272.127 41.206V44.216C272.127 44.8133 271.833 45.112 271.245 45.112ZM283.523 45.112C283.243 45.112 283.028 45.0373 282.879 44.888C282.729 44.7293 282.655 44.5053 282.655 44.216V38.924C282.655 38.6347 282.729 38.4153 282.879 38.266C283.028 38.1167 283.238 38.042 283.509 38.042C283.779 38.042 283.989 38.1167 284.139 38.266C284.288 38.4153 284.363 38.6347 284.363 38.924V39.946L284.209 39.526C284.395 39.0593 284.685 38.6907 285.077 38.42C285.469 38.1493 285.935 38.014 286.477 38.014C287.027 38.014 287.48 38.1447 287.835 38.406C288.189 38.6673 288.437 39.0687 288.577 39.61H288.381C288.567 39.1153 288.875 38.728 289.305 38.448C289.734 38.1587 290.229 38.014 290.789 38.014C291.311 38.014 291.741 38.1167 292.077 38.322C292.422 38.5273 292.679 38.84 292.847 39.26C293.015 39.6707 293.099 40.1933 293.099 40.828V44.216C293.099 44.5053 293.019 44.7293 292.861 44.888C292.711 45.0373 292.497 45.112 292.217 45.112C291.937 45.112 291.722 45.0373 291.573 44.888C291.423 44.7293 291.349 44.5053 291.349 44.216V40.898C291.349 40.3753 291.26 39.9927 291.083 39.75C290.915 39.5073 290.625 39.386 290.215 39.386C289.757 39.386 289.398 39.5493 289.137 39.876C288.875 40.1933 288.745 40.6367 288.745 41.206V44.216C288.745 44.5053 288.67 44.7293 288.521 44.888C288.371 45.0373 288.157 45.112 287.877 45.112C287.597 45.112 287.377 45.0373 287.219 44.888C287.069 44.7293 286.995 44.5053 286.995 44.216V40.898C286.995 40.3753 286.906 39.9927 286.729 39.75C286.561 39.5073 286.276 39.386 285.875 39.386C285.417 39.386 285.058 39.5493 284.797 39.876C284.535 40.1933 284.405 40.6367 284.405 41.206V44.216C284.405 44.8133 284.111 45.112 283.523 45.112ZM297.158 45.14C296.663 45.14 296.22 45.0467 295.828 44.86C295.445 44.664 295.142 44.4027 294.918 44.076C294.703 43.7493 294.596 43.3807 294.596 42.97C294.596 42.466 294.727 42.0693 294.988 41.78C295.249 41.4813 295.674 41.2667 296.262 41.136C296.85 41.0053 297.639 40.94 298.628 40.94H299.328V41.948H298.642C298.063 41.948 297.601 41.976 297.256 42.032C296.911 42.088 296.663 42.186 296.514 42.326C296.374 42.4567 296.304 42.6433 296.304 42.886C296.304 43.194 296.411 43.446 296.626 43.642C296.841 43.838 297.139 43.936 297.522 43.936C297.83 43.936 298.101 43.866 298.334 43.726C298.577 43.5767 298.768 43.376 298.908 43.124C299.048 42.872 299.118 42.5827 299.118 42.256V40.646C299.118 40.1793 299.015 39.8433 298.81 39.638C298.605 39.4327 298.259 39.33 297.774 39.33C297.503 39.33 297.209 39.3627 296.892 39.428C296.584 39.4933 296.257 39.6053 295.912 39.764C295.735 39.848 295.576 39.8713 295.436 39.834C295.305 39.7967 295.203 39.722 295.128 39.61C295.053 39.4887 295.016 39.358 295.016 39.218C295.016 39.078 295.053 38.9427 295.128 38.812C295.203 38.672 295.329 38.5693 295.506 38.504C295.935 38.3267 296.346 38.2007 296.738 38.126C297.139 38.0513 297.503 38.014 297.83 38.014C298.502 38.014 299.053 38.1167 299.482 38.322C299.921 38.5273 300.247 38.84 300.462 39.26C300.677 39.6707 300.784 40.2027 300.784 40.856V44.216C300.784 44.5053 300.714 44.7293 300.574 44.888C300.434 45.0373 300.233 45.112 299.972 45.112C299.711 45.112 299.505 45.0373 299.356 44.888C299.216 44.7293 299.146 44.5053 299.146 44.216V43.544H299.258C299.193 43.8707 299.062 44.1553 298.866 44.398C298.679 44.6313 298.441 44.8133 298.152 44.944C297.863 45.0747 297.531 45.14 297.158 45.14ZM303.456 45.112C303.167 45.112 302.943 45.0373 302.784 44.888C302.635 44.7293 302.56 44.5053 302.56 44.216V38.924C302.56 38.6347 302.635 38.4153 302.784 38.266C302.934 38.1167 303.144 38.042 303.414 38.042C303.685 38.042 303.895 38.1167 304.044 38.266C304.194 38.4153 304.268 38.6347 304.268 38.924V39.806H304.128C304.259 39.246 304.516 38.8213 304.898 38.532C305.281 38.2427 305.79 38.07 306.424 38.014C306.62 37.9953 306.774 38.0467 306.886 38.168C307.008 38.28 307.078 38.4573 307.096 38.7C307.115 38.9333 307.059 39.1247 306.928 39.274C306.807 39.414 306.62 39.498 306.368 39.526L306.06 39.554C305.491 39.61 305.062 39.7873 304.772 40.086C304.483 40.3753 304.338 40.786 304.338 41.318V44.216C304.338 44.5053 304.264 44.7293 304.114 44.888C303.965 45.0373 303.746 45.112 303.456 45.112ZM310.203 47.632C309.997 47.632 309.829 47.576 309.699 47.464C309.568 47.3613 309.489 47.2213 309.461 47.044C309.442 46.8667 309.475 46.68 309.559 46.484L310.511 44.37V45.098L307.963 39.204C307.879 38.9987 307.851 38.8073 307.879 38.63C307.907 38.4527 307.991 38.3127 308.131 38.21C308.28 38.098 308.481 38.042 308.733 38.042C308.947 38.042 309.12 38.0933 309.251 38.196C309.381 38.2893 309.498 38.4713 309.601 38.742L311.491 43.46H311.071L313.003 38.728C313.105 38.4667 313.227 38.2893 313.367 38.196C313.507 38.0933 313.693 38.042 313.927 38.042C314.132 38.042 314.295 38.098 314.417 38.21C314.538 38.3127 314.613 38.4527 314.641 38.63C314.669 38.798 314.636 38.9847 314.543 39.19L311.141 46.96C311.019 47.2213 310.889 47.3987 310.749 47.492C310.609 47.5853 310.427 47.632 310.203 47.632Z" fill="white"/>
<rect x="235" y="21" width="98" height="38" rx="7" stroke="#0369D8" stroke-width="2"/>
</g>
<rect x="0.5" y="0.5" width="460" height="79" rx="4.5" stroke="#9747FF" stroke-dasharray="10 5"/>
<defs>
<filter id="filter0_b_668_20868" x="112" y="5" width="130" height="70" filterUnits="userSpaceOnUse" color-interpolation-filters="sRGB">
<feFlood flood-opacity="0" result="BackgroundImageFix"/>
<feGaussianBlur in="BackgroundImageFix" stdDeviation="7.5"/>
<feComposite in2="SourceAlpha" operator="in" result="effect1_backgroundBlur_668_20868"/>
<feBlend mode="normal" in="SourceGraphic" in2="effect1_backgroundBlur_668_20868" result="shape"/>
</filter>
<filter id="filter1_b_668_20868" x="326" y="5" width="117" height="70" filterUnits="userSpaceOnUse" color-interpolation-filters="sRGB">
<feFlood flood-opacity="0" result="BackgroundImageFix"/>
<feGaussianBlur in="BackgroundImageFix" stdDeviation="7.5"/>
<feComposite in2="SourceAlpha" operator="in" result="effect1_backgroundBlur_668_20868"/>
<feBlend mode="normal" in="SourceGraphic" in2="effect1_backgroundBlur_668_20868" result="shape"/>
</filter>
<filter id="filter2_b_668_20868" x="219" y="5" width="130" height="70" filterUnits="userSpaceOnUse" color-interpolation-filters="sRGB">
<feFlood flood-opacity="0" result="BackgroundImageFix"/>
<feGaussianBlur in="BackgroundImageFix" stdDeviation="7.5"/>
<feComposite in2="SourceAlpha" operator="in" result="effect1_backgroundBlur_668_20868"/>
<feBlend mode="normal" in="SourceGraphic" in2="effect1_backgroundBlur_668_20868" result="shape"/>
</filter>
</defs>
</svg>
