<svg width="140" height="172" viewBox="0 0 140 172" fill="none" xmlns="http://www.w3.org/2000/svg">
<g filter="url(#filter0_b_668_20861)">
<rect x="20" y="68" width="100" height="36" rx="18" fill="white" fill-opacity="0.75"/>
<rect x="20" y="68" width="100" height="36" rx="18" fill="#0369D8" fill-opacity="0.2"/>
<path d="M37.0887 91V81.06H39.0207V89.306H44.0887V91H37.0887ZM48.4298 91.14C47.8418 91.14 47.3098 91.042 46.8338 90.846C46.3578 90.6407 45.9518 90.3653 45.6158 90.02C45.2798 89.6653 45.0185 89.264 44.8318 88.816C44.6545 88.3587 44.5658 87.878 44.5658 87.374C44.5658 86.674 44.7198 86.0347 45.0278 85.456C45.3452 84.8773 45.7932 84.4153 46.3718 84.07C46.9598 83.7153 47.6505 83.538 48.4438 83.538C49.2465 83.538 49.9325 83.7153 50.5018 84.07C51.0712 84.4153 51.5052 84.8773 51.8038 85.456C52.1118 86.0253 52.2658 86.6413 52.2658 87.304C52.2658 87.416 52.2612 87.5327 52.2518 87.654C52.2425 87.766 52.2332 87.8593 52.2238 87.934H46.5538C46.5912 88.3073 46.6985 88.634 46.8758 88.914C47.0625 89.194 47.2958 89.4087 47.5758 89.558C47.8652 89.698 48.1732 89.768 48.4998 89.768C48.8732 89.768 49.2232 89.6793 49.5498 89.502C49.8858 89.3153 50.1145 89.0727 50.2358 88.774L51.8458 89.222C51.6685 89.5953 51.4118 89.9267 51.0758 90.216C50.7492 90.5053 50.3618 90.734 49.9138 90.902C49.4658 91.0607 48.9712 91.14 48.4298 91.14ZM46.5118 86.744H50.3478C50.3105 86.3707 50.2032 86.0487 50.0258 85.778C49.8578 85.498 49.6338 85.2833 49.3538 85.134C49.0738 84.9753 48.7612 84.896 48.4158 84.896C48.0798 84.896 47.7718 84.9753 47.4918 85.134C47.2212 85.2833 46.9972 85.498 46.8198 85.778C46.6518 86.0487 46.5492 86.3707 46.5118 86.744ZM53.8157 91V85.484H52.8497V84.056H53.8157V83.608C53.8157 83.0013 53.9137 82.4787 54.1097 82.04C54.315 81.592 54.5997 81.2467 54.9637 81.004C55.337 80.7613 55.771 80.64 56.2657 80.64C56.5643 80.64 56.863 80.6773 57.1617 80.752C57.4697 80.8267 57.773 80.934 58.0717 81.074L57.6937 82.488C57.5537 82.4133 57.3903 82.3527 57.2037 82.306C57.017 82.25 56.8397 82.222 56.6717 82.222C56.3543 82.222 56.1117 82.334 55.9437 82.558C55.7757 82.782 55.6917 83.1087 55.6917 83.538V84.056H57.4837V85.484H55.6917V91H53.8157ZM62.9453 90.622C62.7866 90.6873 62.5953 90.762 62.3713 90.846C62.1473 90.93 61.9046 90.9953 61.6433 91.042C61.3913 91.098 61.1346 91.126 60.8733 91.126C60.528 91.126 60.2106 91.0653 59.9213 90.944C59.632 90.8227 59.3986 90.6313 59.2213 90.37C59.0533 90.0993 58.9693 89.7493 58.9693 89.32V85.106H58.0033V83.664H58.9693V81.284H60.8453V83.664H62.3853V85.106H60.8453V88.69C60.8546 88.942 60.9246 89.124 61.0553 89.236C61.186 89.348 61.3493 89.404 61.5453 89.404C61.7413 89.404 61.9326 89.3713 62.1193 89.306C62.306 89.2407 62.4553 89.1847 62.5673 89.138L62.9453 90.622ZM70.7016 91.14C70.1043 91.14 69.5676 91.042 69.0916 90.846C68.6156 90.6407 68.2096 90.3607 67.8736 90.006C67.5376 89.642 67.2763 89.2313 67.0896 88.774C66.9123 88.3167 66.8236 87.836 66.8236 87.332C66.8236 86.6413 66.9776 86.0113 67.2856 85.442C67.603 84.8633 68.051 84.4013 68.6296 84.056C69.2083 83.7107 69.8943 83.538 70.6876 83.538C71.481 83.538 72.1623 83.7107 72.7316 84.056C73.301 84.4013 73.7256 84.854 74.0056 85.414L72.1716 85.974C72.013 85.7033 71.803 85.498 71.5416 85.358C71.2803 85.2087 70.991 85.134 70.6736 85.134C70.319 85.134 69.9923 85.2273 69.6936 85.414C69.4043 85.5913 69.1756 85.848 69.0076 86.184C68.8396 86.5107 68.7556 86.8933 68.7556 87.332C68.7556 87.7613 68.8396 88.144 69.0076 88.48C69.185 88.8067 69.4183 89.068 69.7076 89.264C69.997 89.4507 70.319 89.544 70.6736 89.544C70.8976 89.544 71.1076 89.5067 71.3036 89.432C71.509 89.3573 71.691 89.2547 71.8496 89.124C72.0083 88.9933 72.125 88.844 72.1996 88.676L74.0336 89.236C73.8656 89.6 73.6183 89.9267 73.2916 90.216C72.9743 90.5053 72.5963 90.734 72.1576 90.902C71.7283 91.0607 71.243 91.14 70.7016 91.14ZM75.188 91V83.664H77.064V91H75.188ZM75.188 82.642V80.78H77.064V82.642H75.188ZM83.1243 85.288C82.555 85.288 82.0463 85.4 81.5983 85.624C81.1503 85.8387 80.8283 86.1513 80.6323 86.562V91H78.7563V83.664H80.4783V85.232C80.7397 84.728 81.071 84.3313 81.4723 84.042C81.8737 83.7527 82.2983 83.594 82.7463 83.566C82.849 83.566 82.9283 83.566 82.9843 83.566C83.0403 83.566 83.087 83.5707 83.1243 83.58V85.288ZM87.4907 91.14C86.8934 91.14 86.3567 91.042 85.8807 90.846C85.4047 90.6407 84.9987 90.3607 84.6627 90.006C84.3267 89.642 84.0654 89.2313 83.8787 88.774C83.7014 88.3167 83.6127 87.836 83.6127 87.332C83.6127 86.6413 83.7667 86.0113 84.0747 85.442C84.392 84.8633 84.84 84.4013 85.4187 84.056C85.9974 83.7107 86.6834 83.538 87.4767 83.538C88.27 83.538 88.9514 83.7107 89.5207 84.056C90.09 84.4013 90.5147 84.854 90.7947 85.414L88.9607 85.974C88.802 85.7033 88.592 85.498 88.3307 85.358C88.0694 85.2087 87.78 85.134 87.4627 85.134C87.108 85.134 86.7814 85.2273 86.4827 85.414C86.1934 85.5913 85.9647 85.848 85.7967 86.184C85.6287 86.5107 85.5447 86.8933 85.5447 87.332C85.5447 87.7613 85.6287 88.144 85.7967 88.48C85.974 88.8067 86.2074 89.068 86.4967 89.264C86.786 89.4507 87.108 89.544 87.4627 89.544C87.6867 89.544 87.8967 89.5067 88.0927 89.432C88.298 89.3573 88.48 89.2547 88.6387 89.124C88.7974 88.9933 88.914 88.844 88.9887 88.676L90.8227 89.236C90.6547 89.6 90.4074 89.9267 90.0807 90.216C89.7634 90.5053 89.3854 90.734 88.9467 90.902C88.5174 91.0607 88.032 91.14 87.4907 91.14ZM91.963 80.78H93.839V88.648C93.839 88.984 93.895 89.2127 94.007 89.334C94.119 89.446 94.273 89.502 94.469 89.502C94.6184 89.502 94.7724 89.4833 94.931 89.446C95.0897 89.4087 95.2297 89.362 95.351 89.306L95.603 90.734C95.351 90.8553 95.057 90.9487 94.721 91.014C94.385 91.0793 94.0817 91.112 93.811 91.112C93.223 91.112 92.7657 90.958 92.439 90.65C92.1217 90.3327 91.963 89.8847 91.963 89.306V80.78ZM99.8224 91.14C99.2344 91.14 98.7024 91.042 98.2264 90.846C97.7504 90.6407 97.3444 90.3653 97.0084 90.02C96.6724 89.6653 96.4111 89.264 96.2244 88.816C96.0471 88.3587 95.9584 87.878 95.9584 87.374C95.9584 86.674 96.1124 86.0347 96.4204 85.456C96.7377 84.8773 97.1857 84.4153 97.7644 84.07C98.3524 83.7153 99.0431 83.538 99.8364 83.538C100.639 83.538 101.325 83.7153 101.894 84.07C102.464 84.4153 102.898 84.8773 103.196 85.456C103.504 86.0253 103.658 86.6413 103.658 87.304C103.658 87.416 103.654 87.5327 103.644 87.654C103.635 87.766 103.626 87.8593 103.616 87.934H97.9464C97.9837 88.3073 98.0911 88.634 98.2684 88.914C98.4551 89.194 98.6884 89.4087 98.9684 89.558C99.2577 89.698 99.5657 89.768 99.8924 89.768C100.266 89.768 100.616 89.6793 100.942 89.502C101.278 89.3153 101.507 89.0727 101.628 88.774L103.238 89.222C103.061 89.5953 102.804 89.9267 102.468 90.216C102.142 90.5053 101.754 90.734 101.306 90.902C100.858 91.0607 100.364 91.14 99.8224 91.14ZM97.9044 86.744H101.74C101.703 86.3707 101.596 86.0487 101.418 85.778C101.25 85.498 101.026 85.2833 100.746 85.134C100.466 84.9753 100.154 84.896 99.8084 84.896C99.4724 84.896 99.1644 84.9753 98.8844 85.134C98.6137 85.2833 98.3897 85.498 98.2124 85.778C98.0444 86.0487 97.9417 86.3707 97.9044 86.744Z" fill="#0369D8"/>
<rect x="20" y="68" width="100" height="36" rx="18" stroke="#0369D8" stroke-width="2"/>
</g>
<g filter="url(#filter1_b_668_20861)">
<rect x="20" y="116" width="100" height="36" rx="18" fill="#0369D8" fill-opacity="0.75"/>
<path d="M37.0887 139V129.06H39.0207V137.306H44.0887V139H37.0887ZM48.4298 139.14C47.8418 139.14 47.3098 139.042 46.8338 138.846C46.3578 138.641 45.9518 138.365 45.6158 138.02C45.2798 137.665 45.0185 137.264 44.8318 136.816C44.6545 136.359 44.5658 135.878 44.5658 135.374C44.5658 134.674 44.7198 134.035 45.0278 133.456C45.3452 132.877 45.7932 132.415 46.3718 132.07C46.9598 131.715 47.6505 131.538 48.4438 131.538C49.2465 131.538 49.9325 131.715 50.5018 132.07C51.0712 132.415 51.5052 132.877 51.8038 133.456C52.1118 134.025 52.2658 134.641 52.2658 135.304C52.2658 135.416 52.2612 135.533 52.2518 135.654C52.2425 135.766 52.2332 135.859 52.2238 135.934H46.5538C46.5912 136.307 46.6985 136.634 46.8758 136.914C47.0625 137.194 47.2958 137.409 47.5758 137.558C47.8652 137.698 48.1732 137.768 48.4998 137.768C48.8732 137.768 49.2232 137.679 49.5498 137.502C49.8858 137.315 50.1145 137.073 50.2358 136.774L51.8458 137.222C51.6685 137.595 51.4118 137.927 51.0758 138.216C50.7492 138.505 50.3618 138.734 49.9138 138.902C49.4658 139.061 48.9712 139.14 48.4298 139.14ZM46.5118 134.744H50.3478C50.3105 134.371 50.2032 134.049 50.0258 133.778C49.8578 133.498 49.6338 133.283 49.3538 133.134C49.0738 132.975 48.7612 132.896 48.4158 132.896C48.0798 132.896 47.7718 132.975 47.4918 133.134C47.2212 133.283 46.9972 133.498 46.8198 133.778C46.6518 134.049 46.5492 134.371 46.5118 134.744ZM53.8157 139V133.484H52.8497V132.056H53.8157V131.608C53.8157 131.001 53.9137 130.479 54.1097 130.04C54.315 129.592 54.5997 129.247 54.9637 129.004C55.337 128.761 55.771 128.64 56.2657 128.64C56.5643 128.64 56.863 128.677 57.1617 128.752C57.4697 128.827 57.773 128.934 58.0717 129.074L57.6937 130.488C57.5537 130.413 57.3903 130.353 57.2037 130.306C57.017 130.25 56.8397 130.222 56.6717 130.222C56.3543 130.222 56.1117 130.334 55.9437 130.558C55.7757 130.782 55.6917 131.109 55.6917 131.538V132.056H57.4837V133.484H55.6917V139H53.8157ZM62.9453 138.622C62.7866 138.687 62.5953 138.762 62.3713 138.846C62.1473 138.93 61.9046 138.995 61.6433 139.042C61.3913 139.098 61.1346 139.126 60.8733 139.126C60.528 139.126 60.2106 139.065 59.9213 138.944C59.632 138.823 59.3986 138.631 59.2213 138.37C59.0533 138.099 58.9693 137.749 58.9693 137.32V133.106H58.0033V131.664H58.9693V129.284H60.8453V131.664H62.3853V133.106H60.8453V136.69C60.8546 136.942 60.9246 137.124 61.0553 137.236C61.186 137.348 61.3493 137.404 61.5453 137.404C61.7413 137.404 61.9326 137.371 62.1193 137.306C62.306 137.241 62.4553 137.185 62.5673 137.138L62.9453 138.622ZM70.7016 139.14C70.1043 139.14 69.5676 139.042 69.0916 138.846C68.6156 138.641 68.2096 138.361 67.8736 138.006C67.5376 137.642 67.2763 137.231 67.0896 136.774C66.9123 136.317 66.8236 135.836 66.8236 135.332C66.8236 134.641 66.9776 134.011 67.2856 133.442C67.603 132.863 68.051 132.401 68.6296 132.056C69.2083 131.711 69.8943 131.538 70.6876 131.538C71.481 131.538 72.1623 131.711 72.7316 132.056C73.301 132.401 73.7256 132.854 74.0056 133.414L72.1716 133.974C72.013 133.703 71.803 133.498 71.5416 133.358C71.2803 133.209 70.991 133.134 70.6736 133.134C70.319 133.134 69.9923 133.227 69.6936 133.414C69.4043 133.591 69.1756 133.848 69.0076 134.184C68.8396 134.511 68.7556 134.893 68.7556 135.332C68.7556 135.761 68.8396 136.144 69.0076 136.48C69.185 136.807 69.4183 137.068 69.7076 137.264C69.997 137.451 70.319 137.544 70.6736 137.544C70.8976 137.544 71.1076 137.507 71.3036 137.432C71.509 137.357 71.691 137.255 71.8496 137.124C72.0083 136.993 72.125 136.844 72.1996 136.676L74.0336 137.236C73.8656 137.6 73.6183 137.927 73.2916 138.216C72.9743 138.505 72.5963 138.734 72.1576 138.902C71.7283 139.061 71.243 139.14 70.7016 139.14ZM75.188 139V131.664H77.064V139H75.188ZM75.188 130.642V128.78H77.064V130.642H75.188ZM83.1243 133.288C82.555 133.288 82.0463 133.4 81.5983 133.624C81.1503 133.839 80.8283 134.151 80.6323 134.562V139H78.7563V131.664H80.4783V133.232C80.7397 132.728 81.071 132.331 81.4723 132.042C81.8737 131.753 82.2983 131.594 82.7463 131.566C82.849 131.566 82.9283 131.566 82.9843 131.566C83.0403 131.566 83.087 131.571 83.1243 131.58V133.288ZM87.4907 139.14C86.8934 139.14 86.3567 139.042 85.8807 138.846C85.4047 138.641 84.9987 138.361 84.6627 138.006C84.3267 137.642 84.0654 137.231 83.8787 136.774C83.7014 136.317 83.6127 135.836 83.6127 135.332C83.6127 134.641 83.7667 134.011 84.0747 133.442C84.392 132.863 84.84 132.401 85.4187 132.056C85.9974 131.711 86.6834 131.538 87.4767 131.538C88.27 131.538 88.9514 131.711 89.5207 132.056C90.09 132.401 90.5147 132.854 90.7947 133.414L88.9607 133.974C88.802 133.703 88.592 133.498 88.3307 133.358C88.0694 133.209 87.78 133.134 87.4627 133.134C87.108 133.134 86.7814 133.227 86.4827 133.414C86.1934 133.591 85.9647 133.848 85.7967 134.184C85.6287 134.511 85.5447 134.893 85.5447 135.332C85.5447 135.761 85.6287 136.144 85.7967 136.48C85.974 136.807 86.2074 137.068 86.4967 137.264C86.786 137.451 87.108 137.544 87.4627 137.544C87.6867 137.544 87.8967 137.507 88.0927 137.432C88.298 137.357 88.48 137.255 88.6387 137.124C88.7974 136.993 88.914 136.844 88.9887 136.676L90.8227 137.236C90.6547 137.6 90.4074 137.927 90.0807 138.216C89.7634 138.505 89.3854 138.734 88.9467 138.902C88.5174 139.061 88.032 139.14 87.4907 139.14ZM91.963 128.78H93.839V136.648C93.839 136.984 93.895 137.213 94.007 137.334C94.119 137.446 94.273 137.502 94.469 137.502C94.6184 137.502 94.7724 137.483 94.931 137.446C95.0897 137.409 95.2297 137.362 95.351 137.306L95.603 138.734C95.351 138.855 95.057 138.949 94.721 139.014C94.385 139.079 94.0817 139.112 93.811 139.112C93.223 139.112 92.7657 138.958 92.439 138.65C92.1217 138.333 91.963 137.885 91.963 137.306V128.78ZM99.8224 139.14C99.2344 139.14 98.7024 139.042 98.2264 138.846C97.7504 138.641 97.3444 138.365 97.0084 138.02C96.6724 137.665 96.4111 137.264 96.2244 136.816C96.0471 136.359 95.9584 135.878 95.9584 135.374C95.9584 134.674 96.1124 134.035 96.4204 133.456C96.7377 132.877 97.1857 132.415 97.7644 132.07C98.3524 131.715 99.0431 131.538 99.8364 131.538C100.639 131.538 101.325 131.715 101.894 132.07C102.464 132.415 102.898 132.877 103.196 133.456C103.504 134.025 103.658 134.641 103.658 135.304C103.658 135.416 103.654 135.533 103.644 135.654C103.635 135.766 103.626 135.859 103.616 135.934H97.9464C97.9837 136.307 98.0911 136.634 98.2684 136.914C98.4551 137.194 98.6884 137.409 98.9684 137.558C99.2577 137.698 99.5657 137.768 99.8924 137.768C100.266 137.768 100.616 137.679 100.942 137.502C101.278 137.315 101.507 137.073 101.628 136.774L103.238 137.222C103.061 137.595 102.804 137.927 102.468 138.216C102.142 138.505 101.754 138.734 101.306 138.902C100.858 139.061 100.364 139.14 99.8224 139.14ZM97.9044 134.744H101.74C101.703 134.371 101.596 134.049 101.418 133.778C101.25 133.498 101.026 133.283 100.746 133.134C100.466 132.975 100.154 132.896 99.8084 132.896C99.4724 132.896 99.1644 132.975 98.8844 133.134C98.6137 133.283 98.3897 133.498 98.2124 133.778C98.0444 134.049 97.9417 134.371 97.9044 134.744Z" fill="white"/>
<rect x="21" y="117" width="98" height="34" rx="17" stroke="#0369D8" stroke-width="2"/>
</g>
<g filter="url(#filter2_b_668_20861)">
<rect x="20" y="20" width="100" height="36" rx="18" fill="white" fill-opacity="0.75"/>
<path d="M37.0887 43V33.06H39.0207V41.306H44.0887V43H37.0887ZM48.4298 43.14C47.8418 43.14 47.3098 43.042 46.8338 42.846C46.3578 42.6407 45.9518 42.3653 45.6158 42.02C45.2798 41.6653 45.0185 41.264 44.8318 40.816C44.6545 40.3587 44.5658 39.878 44.5658 39.374C44.5658 38.674 44.7198 38.0347 45.0278 37.456C45.3452 36.8773 45.7932 36.4153 46.3718 36.07C46.9598 35.7153 47.6505 35.538 48.4438 35.538C49.2465 35.538 49.9325 35.7153 50.5018 36.07C51.0712 36.4153 51.5052 36.8773 51.8038 37.456C52.1118 38.0253 52.2658 38.6413 52.2658 39.304C52.2658 39.416 52.2612 39.5327 52.2518 39.654C52.2425 39.766 52.2332 39.8593 52.2238 39.934H46.5538C46.5912 40.3073 46.6985 40.634 46.8758 40.914C47.0625 41.194 47.2958 41.4087 47.5758 41.558C47.8652 41.698 48.1732 41.768 48.4998 41.768C48.8732 41.768 49.2232 41.6793 49.5498 41.502C49.8858 41.3153 50.1145 41.0727 50.2358 40.774L51.8458 41.222C51.6685 41.5953 51.4118 41.9267 51.0758 42.216C50.7492 42.5053 50.3618 42.734 49.9138 42.902C49.4658 43.0607 48.9712 43.14 48.4298 43.14ZM46.5118 38.744H50.3478C50.3105 38.3707 50.2032 38.0487 50.0258 37.778C49.8578 37.498 49.6338 37.2833 49.3538 37.134C49.0738 36.9753 48.7612 36.896 48.4158 36.896C48.0798 36.896 47.7718 36.9753 47.4918 37.134C47.2212 37.2833 46.9972 37.498 46.8198 37.778C46.6518 38.0487 46.5492 38.3707 46.5118 38.744ZM53.8157 43V37.484H52.8497V36.056H53.8157V35.608C53.8157 35.0013 53.9137 34.4787 54.1097 34.04C54.315 33.592 54.5997 33.2467 54.9637 33.004C55.337 32.7613 55.771 32.64 56.2657 32.64C56.5643 32.64 56.863 32.6773 57.1617 32.752C57.4697 32.8267 57.773 32.934 58.0717 33.074L57.6937 34.488C57.5537 34.4133 57.3903 34.3527 57.2037 34.306C57.017 34.25 56.8397 34.222 56.6717 34.222C56.3543 34.222 56.1117 34.334 55.9437 34.558C55.7757 34.782 55.6917 35.1087 55.6917 35.538V36.056H57.4837V37.484H55.6917V43H53.8157ZM62.9453 42.622C62.7866 42.6873 62.5953 42.762 62.3713 42.846C62.1473 42.93 61.9046 42.9953 61.6433 43.042C61.3913 43.098 61.1346 43.126 60.8733 43.126C60.528 43.126 60.2106 43.0653 59.9213 42.944C59.632 42.8227 59.3986 42.6313 59.2213 42.37C59.0533 42.0993 58.9693 41.7493 58.9693 41.32V37.106H58.0033V35.664H58.9693V33.284H60.8453V35.664H62.3853V37.106H60.8453V40.69C60.8546 40.942 60.9246 41.124 61.0553 41.236C61.186 41.348 61.3493 41.404 61.5453 41.404C61.7413 41.404 61.9326 41.3713 62.1193 41.306C62.306 41.2407 62.4553 41.1847 62.5673 41.138L62.9453 42.622ZM70.7016 43.14C70.1043 43.14 69.5676 43.042 69.0916 42.846C68.6156 42.6407 68.2096 42.3607 67.8736 42.006C67.5376 41.642 67.2763 41.2313 67.0896 40.774C66.9123 40.3167 66.8236 39.836 66.8236 39.332C66.8236 38.6413 66.9776 38.0113 67.2856 37.442C67.603 36.8633 68.051 36.4013 68.6296 36.056C69.2083 35.7107 69.8943 35.538 70.6876 35.538C71.481 35.538 72.1623 35.7107 72.7316 36.056C73.301 36.4013 73.7256 36.854 74.0056 37.414L72.1716 37.974C72.013 37.7033 71.803 37.498 71.5416 37.358C71.2803 37.2087 70.991 37.134 70.6736 37.134C70.319 37.134 69.9923 37.2273 69.6936 37.414C69.4043 37.5913 69.1756 37.848 69.0076 38.184C68.8396 38.5107 68.7556 38.8933 68.7556 39.332C68.7556 39.7613 68.8396 40.144 69.0076 40.48C69.185 40.8067 69.4183 41.068 69.7076 41.264C69.997 41.4507 70.319 41.544 70.6736 41.544C70.8976 41.544 71.1076 41.5067 71.3036 41.432C71.509 41.3573 71.691 41.2547 71.8496 41.124C72.0083 40.9933 72.125 40.844 72.1996 40.676L74.0336 41.236C73.8656 41.6 73.6183 41.9267 73.2916 42.216C72.9743 42.5053 72.5963 42.734 72.1576 42.902C71.7283 43.0607 71.243 43.14 70.7016 43.14ZM75.188 43V35.664H77.064V43H75.188ZM75.188 34.642V32.78H77.064V34.642H75.188ZM83.1243 37.288C82.555 37.288 82.0463 37.4 81.5983 37.624C81.1503 37.8387 80.8283 38.1513 80.6323 38.562V43H78.7563V35.664H80.4783V37.232C80.7397 36.728 81.071 36.3313 81.4723 36.042C81.8737 35.7527 82.2983 35.594 82.7463 35.566C82.849 35.566 82.9283 35.566 82.9843 35.566C83.0403 35.566 83.087 35.5707 83.1243 35.58V37.288ZM87.4907 43.14C86.8934 43.14 86.3567 43.042 85.8807 42.846C85.4047 42.6407 84.9987 42.3607 84.6627 42.006C84.3267 41.642 84.0654 41.2313 83.8787 40.774C83.7014 40.3167 83.6127 39.836 83.6127 39.332C83.6127 38.6413 83.7667 38.0113 84.0747 37.442C84.392 36.8633 84.84 36.4013 85.4187 36.056C85.9974 35.7107 86.6834 35.538 87.4767 35.538C88.27 35.538 88.9514 35.7107 89.5207 36.056C90.09 36.4013 90.5147 36.854 90.7947 37.414L88.9607 37.974C88.802 37.7033 88.592 37.498 88.3307 37.358C88.0694 37.2087 87.78 37.134 87.4627 37.134C87.108 37.134 86.7814 37.2273 86.4827 37.414C86.1934 37.5913 85.9647 37.848 85.7967 38.184C85.6287 38.5107 85.5447 38.8933 85.5447 39.332C85.5447 39.7613 85.6287 40.144 85.7967 40.48C85.974 40.8067 86.2074 41.068 86.4967 41.264C86.786 41.4507 87.108 41.544 87.4627 41.544C87.6867 41.544 87.8967 41.5067 88.0927 41.432C88.298 41.3573 88.48 41.2547 88.6387 41.124C88.7974 40.9933 88.914 40.844 88.9887 40.676L90.8227 41.236C90.6547 41.6 90.4074 41.9267 90.0807 42.216C89.7634 42.5053 89.3854 42.734 88.9467 42.902C88.5174 43.0607 88.032 43.14 87.4907 43.14ZM91.963 32.78H93.839V40.648C93.839 40.984 93.895 41.2127 94.007 41.334C94.119 41.446 94.273 41.502 94.469 41.502C94.6184 41.502 94.7724 41.4833 94.931 41.446C95.0897 41.4087 95.2297 41.362 95.351 41.306L95.603 42.734C95.351 42.8553 95.057 42.9487 94.721 43.014C94.385 43.0793 94.0817 43.112 93.811 43.112C93.223 43.112 92.7657 42.958 92.439 42.65C92.1217 42.3327 91.963 41.8847 91.963 41.306V32.78ZM99.8224 43.14C99.2344 43.14 98.7024 43.042 98.2264 42.846C97.7504 42.6407 97.3444 42.3653 97.0084 42.02C96.6724 41.6653 96.4111 41.264 96.2244 40.816C96.0471 40.3587 95.9584 39.878 95.9584 39.374C95.9584 38.674 96.1124 38.0347 96.4204 37.456C96.7377 36.8773 97.1857 36.4153 97.7644 36.07C98.3524 35.7153 99.0431 35.538 99.8364 35.538C100.639 35.538 101.325 35.7153 101.894 36.07C102.464 36.4153 102.898 36.8773 103.196 37.456C103.504 38.0253 103.658 38.6413 103.658 39.304C103.658 39.416 103.654 39.5327 103.644 39.654C103.635 39.766 103.626 39.8593 103.616 39.934H97.9464C97.9837 40.3073 98.0911 40.634 98.2684 40.914C98.4551 41.194 98.6884 41.4087 98.9684 41.558C99.2577 41.698 99.5657 41.768 99.8924 41.768C100.266 41.768 100.616 41.6793 100.942 41.502C101.278 41.3153 101.507 41.0727 101.628 40.774L103.238 41.222C103.061 41.5953 102.804 41.9267 102.468 42.216C102.142 42.5053 101.754 42.734 101.306 42.902C100.858 43.0607 100.364 43.14 99.8224 43.14ZM97.9044 38.744H101.74C101.703 38.3707 101.596 38.0487 101.418 37.778C101.25 37.498 101.026 37.2833 100.746 37.134C100.466 36.9753 100.154 36.896 99.8084 36.896C99.4724 36.896 99.1644 36.9753 98.8844 37.134C98.6137 37.2833 98.3897 37.498 98.2124 37.778C98.0444 38.0487 97.9417 38.3707 97.9044 38.744Z" fill="#1B4965"/>
</g>
<rect x="0.5" y="0.5" width="139" height="171" rx="4.5" stroke="#9747FF" stroke-dasharray="10 5"/>
<defs>
<filter id="filter0_b_668_20861" x="4" y="52" width="132" height="68" filterUnits="userSpaceOnUse" color-interpolation-filters="sRGB">
<feFlood flood-opacity="0" result="BackgroundImageFix"/>
<feGaussianBlur in="BackgroundImageFix" stdDeviation="7.5"/>
<feComposite in2="SourceAlpha" operator="in" result="effect1_backgroundBlur_668_20861"/>
<feBlend mode="normal" in="SourceGraphic" in2="effect1_backgroundBlur_668_20861" result="shape"/>
</filter>
<filter id="filter1_b_668_20861" x="5" y="101" width="130" height="66" filterUnits="userSpaceOnUse" color-interpolation-filters="sRGB">
<feFlood flood-opacity="0" result="BackgroundImageFix"/>
<feGaussianBlur in="BackgroundImageFix" stdDeviation="7.5"/>
<feComposite in2="SourceAlpha" operator="in" result="effect1_backgroundBlur_668_20861"/>
<feBlend mode="normal" in="SourceGraphic" in2="effect1_backgroundBlur_668_20861" result="shape"/>
</filter>
<filter id="filter2_b_668_20861" x="5" y="5" width="130" height="66" filterUnits="userSpaceOnUse" color-interpolation-filters="sRGB">
<feFlood flood-opacity="0" result="BackgroundImageFix"/>
<feGaussianBlur in="BackgroundImageFix" stdDeviation="7.5"/>
<feComposite in2="SourceAlpha" operator="in" result="effect1_backgroundBlur_668_20861"/>
<feBlend mode="normal" in="SourceGraphic" in2="effect1_backgroundBlur_668_20861" result="shape"/>
</filter>
</defs>
</svg>
