<svg width="13" height="12" viewBox="0 0 13 12" fill="none" xmlns="http://www.w3.org/2000/svg">
<g id="icon/action/info_outline_24px">
<path id="icon/action/info_outline_24px_2" fill-rule="evenodd" clip-rule="evenodd" d="M6.5 1C3.74 1 1.5 3.24 1.5 6C1.5 8.76 3.74 11 6.5 11C9.26 11 11.5 8.76 11.5 6C11.5 3.24 9.26 1 6.5 1ZM6 3.5V4.5H7V3.5H6ZM7 8C7 8.275 6.775 8.5 6.5 8.5C6.225 8.5 6 8.275 6 8V6C6 5.725 6.225 5.5 6.5 5.5C6.775 5.5 7 5.725 7 6V8ZM2.5 6C2.5 8.205 4.295 10 6.5 10C8.705 10 10.5 8.205 10.5 6C10.5 3.795 8.705 2 6.5 2C4.295 2 2.5 3.795 2.5 6Z" fill="#181818" fill-opacity="0.85"/>
</g>
</svg>
