<svg width="32" height="32" viewBox="0 0 32 32" fill="none" xmlns="http://www.w3.org/2000/svg">
<g id="fluent:chat-28-filled">
<path id="Vector" d="M4.00001 15.9997C4.00001 9.37287 9.37288 4 15.9997 4C22.6266 4 27.9994 9.37287 27.9994 15.9997C27.9994 22.6266 22.6266 27.9994 15.9997 27.9994C14.0339 28.0022 12.0977 27.52 10.3629 26.5955L5.59297 27.9524C5.37885 28.0133 5.15238 28.0158 4.93694 27.9598C4.72151 27.9038 4.52494 27.7913 4.36755 27.6339C4.21015 27.4765 4.09764 27.2799 4.04164 27.0645C3.98564 26.8491 3.98819 26.6226 4.04901 26.4085L5.40498 21.6386C4.47979 19.9032 3.9972 17.9663 4.00001 15.9997ZM11.4998 13.7498C11.4998 14.1638 11.8358 14.4997 12.2498 14.4997H19.7496C19.9485 14.4997 20.1393 14.4207 20.28 14.2801C20.4206 14.1394 20.4996 13.9487 20.4996 13.7498C20.4996 13.5509 20.4206 13.3601 20.28 13.2194C20.1393 13.0788 19.9485 12.9998 19.7496 12.9998H12.2498C12.0509 12.9998 11.8601 13.0788 11.7195 13.2194C11.5788 13.3601 11.4998 13.5509 11.4998 13.7498ZM12.2498 17.4997C12.0509 17.4997 11.8601 17.5787 11.7195 17.7193C11.5788 17.86 11.4998 18.0508 11.4998 18.2497C11.4998 18.4486 11.5788 18.6393 11.7195 18.78C11.8601 18.9206 12.0509 18.9996 12.2498 18.9996H16.7497C16.9486 18.9996 17.1394 18.9206 17.28 18.78C17.4207 18.6393 17.4997 18.4486 17.4997 18.2497C17.4997 18.0508 17.4207 17.86 17.28 17.7193C17.1394 17.5787 16.9486 17.4997 16.7497 17.4997H12.2498Z" fill="white"/>
<circle id="Ellipse 189" cx="25" cy="8" r="6" fill="#FE5761"/>
</g>
</svg>
