<svg width="24" height="24" viewBox="0 0 24 24" fill="none" xmlns="http://www.w3.org/2000/svg">
<path d="M1.22405e-05 11.9997C1.22405e-05 5.37287 5.37288 0 11.9997 0C18.6266 0 23.9994 5.37287 23.9994 11.9997C23.9994 18.6266 18.6266 23.9994 11.9997 23.9994C10.0339 24.0022 8.09773 23.52 6.36286 22.5955L1.59297 23.9524C1.37885 24.0133 1.15238 24.0158 0.936944 23.9598C0.721512 23.9038 0.524941 23.7913 0.367545 23.6339C0.210149 23.4765 0.0976387 23.2799 0.0416398 23.0645C-0.014359 22.8491 -0.0118142 22.6226 0.0490111 22.4085L1.40498 17.6386C0.47979 15.9032 -0.00280227 13.9663 1.22405e-05 11.9997ZM7.49983 9.74977C7.49983 10.1638 7.83582 10.4997 8.24981 10.4997H15.7496C15.9485 10.4997 16.1393 10.4207 16.28 10.2801C16.4206 10.1394 16.4996 9.94867 16.4996 9.74977C16.4996 9.55086 16.4206 9.3601 16.28 9.21945C16.1393 9.0788 15.9485 8.99978 15.7496 8.99978H8.24981C8.05091 8.99978 7.86015 9.0788 7.7195 9.21945C7.57885 9.3601 7.49983 9.55086 7.49983 9.74977ZM8.24981 13.4997C8.05091 13.4997 7.86015 13.5787 7.7195 13.7193C7.57885 13.86 7.49983 14.0508 7.49983 14.2497C7.49983 14.4486 7.57885 14.6393 7.7195 14.78C7.86015 14.9206 8.05091 14.9996 8.24981 14.9996H12.7497C12.9486 14.9996 13.1394 14.9206 13.28 14.78C13.4207 14.6393 13.4997 14.4486 13.4997 14.2497C13.4997 14.0508 13.4207 13.86 13.28 13.7193C13.1394 13.5787 12.9486 13.4997 12.7497 13.4997H8.24981Z" fill="#1B4965"/>
</svg>
