<svg width="100" height="64" viewBox="0 0 100 64" fill="none" xmlns="http://www.w3.org/2000/svg">
<rect x="20" y="20" width="24" height="24" rx="4" fill="#1B4965"/>
<path d="M29.9998 33.5998L35.8998 27.6998C36.0831 27.5165 36.3165 27.4248 36.5998 27.4248C36.8831 27.4248 37.1165 27.5165 37.2998 27.6998C37.4831 27.8831 37.5748 28.1165 37.5748 28.3998C37.5748 28.6831 37.4831 28.9165 37.2998 29.0998L30.6998 35.6998C30.4998 35.8998 30.2665 35.9998 29.9998 35.9998C29.7331 35.9998 29.4998 35.8998 29.2998 35.6998L26.6998 33.0998C26.5165 32.9165 26.4248 32.6831 26.4248 32.3998C26.4248 32.1165 26.5165 31.8831 26.6998 31.6998C26.8831 31.5165 27.1165 31.4248 27.3998 31.4248C27.6831 31.4248 27.9165 31.5165 28.0998 31.6998L29.9998 33.5998Z" fill="white"/>
<rect x="57" y="21" width="22" height="22" rx="3" fill="white"/>
<path d="M65.9998 33.5998L71.8998 27.6998C72.0831 27.5165 72.3165 27.4248 72.5998 27.4248C72.8831 27.4248 73.1165 27.5165 73.2998 27.6998C73.4831 27.8831 73.5748 28.1165 73.5748 28.3998C73.5748 28.6831 73.4831 28.9165 73.2998 29.0998L66.6998 35.6998C66.4998 35.8998 66.2665 35.9998 65.9998 35.9998C65.7331 35.9998 65.4998 35.8998 65.2998 35.6998L62.6998 33.0998C62.5165 32.9165 62.4248 32.6831 62.4248 32.3998C62.4248 32.1165 62.5165 31.8831 62.6998 31.6998C62.8831 31.5165 63.1165 31.4248 63.3998 31.4248C63.6831 31.4248 63.9165 31.5165 64.0998 31.6998L65.9998 33.5998Z" fill="white"/>
<rect x="57" y="21" width="22" height="22" rx="3" stroke="#E8E8E8" stroke-width="2"/>
<rect x="0.5" y="0.5" width="99" height="63" rx="4.5" stroke="#9747FF" stroke-dasharray="10 5"/>
</svg>
