<svg width="72" height="199" viewBox="0 0 72 199" fill="none" xmlns="http://www.w3.org/2000/svg">
<rect x="20" y="20" width="32" height="32" rx="8" fill="#F1F1F1"/>
<path d="M42.6004 36H29.4004" stroke="#0369D8" stroke-width="2.5" stroke-linecap="round" stroke-linejoin="round"/>
<path d="M34.8004 30.6001L29.4004 36.0001L34.8004 41.4001" stroke="#0369D8" stroke-width="2.5" stroke-linecap="round" stroke-linejoin="round"/>
<rect x="20" y="59" width="32" height="32" rx="8" fill="#F1F1F1"/>
<path d="M41 70L31 80" stroke="#0369D8" stroke-width="2.5" stroke-linecap="round" stroke-linejoin="round"/>
<path d="M31 70L41 80" stroke="#0369D8" stroke-width="2.5" stroke-linecap="round" stroke-linejoin="round"/>
<rect x="20" y="98" width="32" height="32" rx="8" fill="#F1F1F1"/>
<path d="M36.0004 116.917C35.2268 116.917 34.4849 116.609 33.938 116.062C33.391 115.515 33.0837 114.773 33.0837 114C33.0837 113.226 33.391 112.484 33.938 111.937C34.4849 111.39 35.2268 111.083 36.0004 111.083C36.7739 111.083 37.5158 111.39 38.0627 111.937C38.6097 112.484 38.917 113.226 38.917 114C38.917 114.773 38.6097 115.515 38.0627 116.062C37.5158 116.609 36.7739 116.917 36.0004 116.917ZM42.192 114.808C42.2254 114.542 42.2504 114.275 42.2504 114C42.2504 113.725 42.2254 113.45 42.192 113.167L43.9504 111.808C44.1087 111.683 44.1504 111.458 44.0504 111.275L42.3837 108.392C42.2837 108.208 42.0587 108.133 41.8754 108.208L39.8004 109.042C39.367 108.717 38.917 108.433 38.392 108.225L38.0837 106.017C38.0668 105.918 38.0156 105.829 37.9394 105.765C37.8631 105.701 37.7666 105.666 37.667 105.667H34.3337C34.1254 105.667 33.9504 105.817 33.917 106.017L33.6087 108.225C33.0837 108.433 32.6337 108.717 32.2004 109.042L30.1254 108.208C29.942 108.133 29.717 108.208 29.617 108.392L27.9504 111.275C27.842 111.458 27.892 111.683 28.0504 111.808L29.8087 113.167C29.7754 113.45 29.7504 113.725 29.7504 114C29.7504 114.275 29.7754 114.542 29.8087 114.808L28.0504 116.192C27.892 116.317 27.842 116.542 27.9504 116.725L29.617 119.608C29.717 119.792 29.942 119.858 30.1254 119.792L32.2004 118.95C32.6337 119.283 33.0837 119.567 33.6087 119.775L33.917 121.983C33.9504 122.183 34.1254 122.333 34.3337 122.333H37.667C37.8754 122.333 38.0504 122.183 38.0837 121.983L38.392 119.775C38.917 119.558 39.367 119.283 39.8004 118.95L41.8754 119.792C42.0587 119.858 42.2837 119.792 42.3837 119.608L44.0504 116.725C44.1504 116.542 44.1087 116.317 43.9504 116.192L42.192 114.808Z" fill="#0369D8"/>
<rect x="20" y="137" width="32" height="32" rx="8" fill="#F1F1F1"/>
<g clip-path="url(#clip0_668_18046)">
<path d="M39.8765 146.123L42.8779 149.125L43.3785 148.624C44.2072 147.795 44.2072 146.452 43.3785 145.623C42.5495 144.794 41.2054 144.794 40.3764 145.623L39.8765 146.123Z" fill="#0369D8"/>
<path d="M41.4998 150.5L38.4984 147.498L29.0138 156.983C28.9879 157.009 28.9697 157.041 28.961 157.077L28.2943 159.798C28.1603 160.345 28.6544 160.839 29.2013 160.705L31.9214 160.038C31.9569 160.029 31.9894 160.011 32.0152 159.985L41.4998 150.5Z" fill="#0369D8"/>
</g>
<rect x="0.5" y="0.5" width="71" height="198" rx="4.5" stroke="#9747FF" stroke-dasharray="10 5"/>
<defs>
<clipPath id="clip0_668_18046">
<rect width="16" height="16" fill="white" transform="translate(28 145)"/>
</clipPath>
</defs>
</svg>
