<svg width="12" height="12" viewBox="0 0 12 12" fill="none" xmlns="http://www.w3.org/2000/svg">
<g id="tabler:arrow-big-up-filled" clip-path="url(#clip0_1503_24029)">
<g id="Group">
<path id="Vector" d="M5.29315 1.50006L2.00015 4.79306C1.86021 4.93291 1.76491 5.11111 1.72628 5.30514C1.68765 5.49917 1.70744 5.70029 1.78315 5.88306L1.81715 5.95556C1.901 6.11945 2.02847 6.25701 2.18551 6.35308C2.34254 6.44916 2.52305 6.50002 2.70715 6.50006H4.00015V10.0001C4.00015 10.2653 4.1055 10.5196 4.29304 10.7072C4.48058 10.8947 4.73493 11.0001 5.00015 11.0001H7.00015L7.07515 10.9976C7.32672 10.9786 7.56185 10.8653 7.7334 10.6803C7.90494 10.4953 8.00023 10.2523 8.00015 10.0001L7.99965 6.50006H9.29315C9.4909 6.50002 9.6842 6.44135 9.84861 6.33146C10.013 6.22158 10.1412 6.06542 10.2168 5.88272C10.2925 5.70002 10.3123 5.49898 10.2737 5.30503C10.2352 5.11108 10.14 4.93291 10.0001 4.79306L6.70715 1.50006C6.51962 1.31259 6.26531 1.20728 6.00015 1.20728C5.73498 1.20728 5.48067 1.31259 5.29315 1.50006Z" fill="#181818"/>
</g>
</g>
<defs>
<clipPath id="clip0_1503_24029">
<rect width="12" height="12" fill="white"/>
</clipPath>
</defs>
</svg>
