<svg width="14" height="14" viewBox="0 0 14 14" fill="none" xmlns="http://www.w3.org/2000/svg">
<g id="icon/action/info_outline_24px">
<path id="icon/action/info_outline_24px_2" fill-rule="evenodd" clip-rule="evenodd" d="M7.00008 1.16663C3.78008 1.16663 1.16675 3.77996 1.16675 6.99996C1.16675 10.22 3.78008 12.8333 7.00008 12.8333C10.2201 12.8333 12.8334 10.22 12.8334 6.99996C12.8334 3.77996 10.2201 1.16663 7.00008 1.16663ZM6.41675 4.08329V5.24996H7.58342V4.08329H6.41675ZM7.58342 9.33329C7.58342 9.65413 7.32091 9.91663 7.00008 9.91663C6.67925 9.91663 6.41675 9.65413 6.41675 9.33329V6.99996C6.41675 6.67913 6.67925 6.41663 7.00008 6.41663C7.32091 6.41663 7.58342 6.67913 7.58342 6.99996V9.33329ZM2.33341 6.99996C2.33341 9.57246 4.42758 11.6666 7.00008 11.6666C9.57258 11.6666 11.6667 9.57246 11.6667 6.99996C11.6667 4.42746 9.57258 2.33329 7.00008 2.33329C4.42758 2.33329 2.33341 4.42746 2.33341 6.99996Z" fill="#181818" fill-opacity="0.85"/>
</g>
</svg>
