<svg width="26" height="26" viewBox="0 0 26 26" fill="none" xmlns="http://www.w3.org/2000/svg">
<g id="icon/action/drag_indicator_24px">
<path id="icon/action/drag_indicator_24px_2" fill-rule="evenodd" clip-rule="evenodd" d="M9.75065 4.33301C8.55898 4.33301 7.58398 5.30801 7.58398 6.49967C7.58398 7.69134 8.55898 8.66634 9.75065 8.66634C10.9423 8.66634 11.9173 7.69134 11.9173 6.49967C11.9173 5.30801 10.9423 4.33301 9.75065 4.33301ZM7.58398 12.9997C7.58398 11.808 8.55898 10.833 9.75065 10.833C10.9423 10.833 11.9173 11.808 11.9173 12.9997C11.9173 14.1913 10.9423 15.1663 9.75065 15.1663C8.55898 15.1663 7.58398 14.1913 7.58398 12.9997ZM9.75065 21.6663C10.9423 21.6663 11.9173 20.6913 11.9173 19.4997C11.9173 18.308 10.9423 17.333 9.75065 17.333C8.55898 17.333 7.58398 18.308 7.58398 19.4997C7.58398 20.6913 8.55898 21.6663 9.75065 21.6663ZM18.4173 6.49967C18.4173 7.69134 17.4423 8.66634 16.2507 8.66634C15.059 8.66634 14.084 7.69134 14.084 6.49967C14.084 5.30801 15.059 4.33301 16.2507 4.33301C17.4423 4.33301 18.4173 5.30801 18.4173 6.49967ZM16.2507 10.833C15.059 10.833 14.084 11.808 14.084 12.9997C14.084 14.1913 15.059 15.1663 16.2507 15.1663C17.4423 15.1663 18.4173 14.1913 18.4173 12.9997C18.4173 11.808 17.4423 10.833 16.2507 10.833ZM14.084 19.4997C14.084 18.308 15.059 17.333 16.2507 17.333C17.4423 17.333 18.4173 18.308 18.4173 19.4997C18.4173 20.6913 17.4423 21.6663 16.2507 21.6663C15.059 21.6663 14.084 20.6913 14.084 19.4997Z" fill="#262626"/>
</g>
</svg>
