<svg width="24" height="25" viewBox="0 0 24 25" fill="none" xmlns="http://www.w3.org/2000/svg">
<g id="mobile-vertical-dots_major">
<path id="Primary fill" d="M11.9996 7.6999C10.676 7.6999 9.59961 6.6235 9.59961 5.2999C9.59961 3.9763 10.676 2.8999 11.9996 2.8999C13.3232 2.8999 14.3996 3.9763 14.3996 5.2999C14.3996 6.6235 13.3232 7.6999 11.9996 7.6999ZM11.9996 10.0999C13.3232 10.0999 14.3996 11.1763 14.3996 12.4999C14.3996 13.8235 13.3232 14.8999 11.9996 14.8999C10.676 14.8999 9.59961 13.8235 9.59961 12.4999C9.59961 11.1763 10.676 10.0999 11.9996 10.0999ZM11.9996 17.2999C13.3232 17.2999 14.3996 18.3763 14.3996 19.6999C14.3996 21.0235 13.3232 22.0999 11.9996 22.0999C10.676 22.0999 9.59961 21.0235 9.59961 19.6999C9.59961 18.3763 10.676 17.2999 11.9996 17.2999Z" fill="#111111"/>
</g>
</svg>
