<svg width="20" height="20" viewBox="0 0 20 20" fill="none" xmlns="http://www.w3.org/2000/svg">
<g id="fi:clipboard">
<path id="Vector" d="M13.334 3.33325H15.0007C15.4427 3.33325 15.8666 3.50885 16.1792 3.82141C16.4917 4.13397 16.6673 4.55789 16.6673 4.99992V16.6666C16.6673 17.1086 16.4917 17.5325 16.1792 17.8451C15.8666 18.1577 15.4427 18.3333 15.0007 18.3333H5.00065C4.55862 18.3333 4.1347 18.1577 3.82214 17.8451C3.50958 17.5325 3.33398 17.1086 3.33398 16.6666V4.99992C3.33398 4.55789 3.50958 4.13397 3.82214 3.82141C4.1347 3.50885 4.55862 3.33325 5.00065 3.33325H6.66732" stroke="#888888" stroke-width="2" stroke-linecap="round" stroke-linejoin="round"/>
<path id="Vector_2" d="M12.4993 1.66675H7.49935C7.03911 1.66675 6.66602 2.03984 6.66602 2.50008V4.16675C6.66602 4.62699 7.03911 5.00008 7.49935 5.00008H12.4993C12.9596 5.00008 13.3327 4.62699 13.3327 4.16675V2.50008C13.3327 2.03984 12.9596 1.66675 12.4993 1.66675Z" stroke="#888888" stroke-width="2" stroke-linecap="round" stroke-linejoin="round"/>
</g>
</svg>
