<svg width="16" height="14" viewBox="0 0 16 14" fill="none" xmlns="http://www.w3.org/2000/svg">
<g id="fi:users">
<path id="Vector" d="M14.416 12.2503V11.0837C14.4156 10.5667 14.2436 10.0645 13.9268 9.65586C13.6101 9.24726 13.1666 8.95542 12.666 8.82617" stroke="#181818" stroke-width="1.5" stroke-linecap="round" stroke-linejoin="round"/>
<path id="Vector_2" d="M10.9173 12.25V11.0833C10.9173 10.4645 10.6715 9.871 10.2339 9.43342C9.79632 8.99583 9.20282 8.75 8.58398 8.75H3.91732C3.29848 8.75 2.70499 8.99583 2.2674 9.43342C1.82982 9.871 1.58398 10.4645 1.58398 11.0833V12.25" stroke="#181818" stroke-width="1.5" stroke-linecap="round" stroke-linejoin="round"/>
<path id="Vector_3" d="M10.334 1.82617C10.8359 1.95468 11.2808 2.24658 11.5984 2.65585C11.9161 3.06513 12.0886 3.56849 12.0886 4.08659C12.0886 4.60469 11.9161 5.10805 11.5984 5.51732C11.2808 5.9266 10.8359 6.2185 10.334 6.34701" stroke="#181818" stroke-width="1.5" stroke-linecap="round" stroke-linejoin="round"/>
<path id="Vector_4" d="M6.24935 6.41667C7.53801 6.41667 8.58268 5.372 8.58268 4.08333C8.58268 2.79467 7.53801 1.75 6.24935 1.75C4.96068 1.75 3.91602 2.79467 3.91602 4.08333C3.91602 5.372 4.96068 6.41667 6.24935 6.41667Z" stroke="#181818" stroke-width="1.5" stroke-linecap="round" stroke-linejoin="round"/>
</g>
</svg>
