<svg width="32" height="32" viewBox="0 0 32 32" fill="none" xmlns="http://www.w3.org/2000/svg">
<g clip-path="url(#clip0_857_17483)">
<path d="M17.294 4C17.6468 4 17.9624 4.2196 18.0812 4.5484L18.9284 6.8968C19.232 6.9724 19.4924 7.048 19.7132 7.1272C19.9544 7.2136 20.2652 7.3444 20.6492 7.5232L22.622 6.4792C22.7831 6.39389 22.9674 6.3631 23.1474 6.39144C23.3274 6.41978 23.4934 6.50574 23.6204 6.6364L25.3556 8.4304C25.586 8.6692 25.6508 9.0184 25.5212 9.3232L24.596 11.4916C24.7496 11.7736 24.872 12.0148 24.9656 12.2164C25.0664 12.436 25.1912 12.7384 25.34 13.1284L27.4964 14.0524C27.8204 14.1904 28.0208 14.5144 27.9992 14.8612L27.8408 17.3512C27.83 17.513 27.7719 17.668 27.6738 17.7971C27.5757 17.9261 27.4418 18.0235 27.2888 18.0772L25.2464 18.8032C25.1876 19.0852 25.1264 19.3264 25.0616 19.5304C24.9571 19.8455 24.8378 20.1554 24.704 20.4592L25.73 22.7272C25.8025 22.8866 25.8219 23.0649 25.7857 23.2361C25.7494 23.4074 25.6593 23.5625 25.5284 23.6788L23.5772 25.4212C23.4487 25.5355 23.2884 25.6077 23.1177 25.6283C22.947 25.6489 22.774 25.6168 22.622 25.5364L20.6108 24.4708C20.2962 24.6374 19.9716 24.7845 19.6388 24.9112L18.7604 25.24L17.9804 27.4C17.9226 27.5582 17.8184 27.6952 17.6813 27.7931C17.5443 27.8909 17.3808 27.9451 17.2124 27.9484L14.9324 28C14.7596 28.0045 14.5896 27.9554 14.4458 27.8593C14.3021 27.7633 14.1916 27.625 14.1296 27.4636L13.2104 25.0312C12.8968 24.924 12.5863 24.808 12.2792 24.6832C12.0281 24.5745 11.7808 24.4572 11.5376 24.3316L9.25764 25.306C9.10741 25.3701 8.94179 25.3891 8.78093 25.3608C8.62008 25.3325 8.47093 25.258 8.35164 25.1464L6.66444 23.5636C6.53883 23.4463 6.45328 23.2924 6.4199 23.1238C6.38652 22.9552 6.407 22.7803 6.47844 22.624L7.45884 20.488C7.32845 20.235 7.20757 19.9772 7.09644 19.7152C6.96672 19.3945 6.84667 19.0699 6.73644 18.742L4.58844 18.088C4.41384 18.0352 4.26155 17.9263 4.15523 17.7781C4.0489 17.6299 3.99449 17.4507 4.00044 17.2684L4.08444 14.9632C4.09042 14.8128 4.1374 14.6669 4.22031 14.5413C4.30322 14.4156 4.4189 14.315 4.55484 14.2504L6.80844 13.168C6.91284 12.7852 7.00404 12.4876 7.08444 12.2704C7.19765 11.9803 7.32337 11.6952 7.46124 11.416L6.48444 9.352C6.41031 9.19526 6.3878 9.01905 6.42014 8.84871C6.45249 8.67836 6.53802 8.52266 6.66444 8.404L8.34924 6.8128C8.46735 6.70141 8.61512 6.62652 8.77479 6.59714C8.93446 6.56776 9.09922 6.58514 9.24924 6.6472L11.5268 7.588C11.7788 7.42 12.0068 7.2844 12.2132 7.1752C12.4592 7.0444 12.788 6.9076 13.202 6.76L13.994 4.5508C14.0526 4.38912 14.1596 4.24946 14.3005 4.15088C14.4414 4.0523 14.6093 3.99961 14.7812 4H17.294ZM16.0292 12.4228C14.0288 12.4228 12.4076 14.0248 12.4076 16.0024C12.4076 17.98 14.0288 19.5832 16.0292 19.5832C18.0284 19.5832 19.6496 17.98 19.6496 16.0024C19.6496 14.0248 18.0296 12.4228 16.0292 12.4228Z" fill="#A5B8C3" fill-opacity="0.8"/>
</g>
<defs>
<clipPath id="clip0_857_17483">
<rect width="24" height="24" fill="white" transform="translate(4 4)"/>
</clipPath>
</defs>
</svg>
