<svg width="348" height="223" viewBox="0 0 348 223" fill="none" xmlns="http://www.w3.org/2000/svg">
<g opacity="0.5">
<path d="M23.9974 92.752L8.00402 92.8133L7.63469 88.38C7.51554 87.3691 7.78627 86.3508 8.39172 85.5326C8.99717 84.7143 9.8918 84.1577 10.8934 83.976L11.9454 83.7853C14.6283 83.2981 17.3771 83.2981 20.06 83.7853L21.108 83.976C22.1091 84.1579 23.0032 84.7145 23.6083 85.5325C24.2135 86.3504 24.4842 87.3682 24.3654 88.3787L23.9974 92.752Z" fill="#839489"/>
<path opacity="0.25" d="M8.01196 92.812C8.07305 94.8953 8.94559 96.8724 10.4435 98.3216C11.9415 99.7708 13.9463 100.577 16.0305 100.57C18.1148 100.562 20.1135 99.7401 21.6005 98.2797C23.0875 96.8193 23.9452 94.8357 23.9906 92.752L8.01196 92.812Z" fill="#839489"/>
<path d="M22.9306 99.8467L16.944 105.833C16.8201 105.957 16.6731 106.056 16.5112 106.123C16.3493 106.19 16.1758 106.224 16.0006 106.224C15.8254 106.224 15.6519 106.19 15.49 106.123C15.3282 106.056 15.1811 105.957 15.0573 105.833L9.06929 99.8467C7.32473 100.903 5.84739 102.348 4.75217 104.068C3.65695 105.789 2.97338 107.739 2.75463 109.767C2.7344 109.953 2.75361 110.141 2.81099 110.319C2.86838 110.498 2.96265 110.662 3.08768 110.801C3.2127 110.94 3.36568 111.052 3.53664 111.128C3.70761 111.205 3.89273 111.244 4.07996 111.244H27.92C28.1072 111.244 28.2923 111.205 28.4633 111.128C28.6342 111.052 28.7872 110.94 28.9122 110.801C29.0373 110.662 29.1315 110.498 29.1889 110.319C29.2463 110.141 29.2655 109.953 29.2453 109.767C29.0265 107.739 28.343 105.789 27.2477 104.068C26.1525 102.348 24.6752 100.903 22.9306 99.8467Z" fill="#839489"/>
<path opacity="0.5" d="M20.92 98.8719C19.513 99.966 17.7816 100.56 15.9993 100.56C14.2171 100.56 12.4856 99.966 11.0787 98.8719C10.3829 99.1397 9.71074 99.4653 9.06934 99.8453L15.0573 105.835C15.3074 106.085 15.6465 106.225 16 106.225C16.3536 106.225 16.6926 106.085 16.9427 105.835L22.9307 99.8466C22.2893 99.4661 21.6172 99.1401 20.9213 98.8719H20.92Z" fill="#839489"/>
<path d="M15.2027 85.6158C15.1199 85.6158 15.0404 85.6488 14.9818 85.7074C14.9232 85.766 14.8902 85.8455 14.8902 85.9283V87.0047H13.8138C13.731 87.0047 13.6515 87.0377 13.5929 87.0963C13.5343 87.1549 13.5013 87.2344 13.5013 87.3172V88.9145C13.5013 88.9973 13.5343 89.0768 13.5929 89.1354C13.6515 89.194 13.731 89.227 13.8138 89.227H14.8902V90.3033C14.8902 90.3862 14.9232 90.4657 14.9818 90.5243C15.0404 90.5829 15.1199 90.6158 15.2027 90.6158H16.8C16.8828 90.6158 16.9623 90.5829 17.0209 90.5243C17.0795 90.4657 17.1125 90.3862 17.1125 90.3033V89.227H18.1888C18.2717 89.227 18.3512 89.194 18.4098 89.1354C18.4684 89.0768 18.5013 88.9973 18.5013 88.9145V87.3172C18.5013 87.2344 18.4684 87.1549 18.4098 87.0963C18.3512 87.0377 18.2717 87.0047 18.1888 87.0047H17.1125V85.9283C17.1125 85.8455 17.0795 85.766 17.0209 85.7074C16.9623 85.6488 16.8828 85.6158 16.8 85.6158H15.2027Z" fill="white"/>
</g>
<g opacity="0.5">
<path d="M96.9959 90.128L73.0059 90.22L72.4519 83.57C72.2732 82.0537 72.6793 80.5262 73.5875 79.2988C74.4956 78.0715 75.8376 77.2365 77.3399 76.964L78.9179 76.678C82.9423 75.9472 87.0655 75.9472 91.0899 76.678L92.6619 76.964C94.1635 77.2369 95.5046 78.0718 96.4124 79.2987C97.3201 80.5256 97.7261 82.0523 97.5479 83.568L96.9959 90.128Z" fill="#419A60"/>
<path opacity="0.25" d="M73.0181 90.2181C73.1097 93.3431 74.4185 96.3087 76.6654 98.4825C78.9124 100.656 81.9196 101.866 85.0459 101.855C88.1723 101.843 91.1703 100.61 93.4009 98.4196C95.6314 96.229 96.9179 93.2537 96.9861 90.1281L73.0181 90.2181Z" fill="#419A60"/>
<path d="M95.3961 100.77L86.4161 109.75C86.2303 109.936 86.0097 110.083 85.7669 110.184C85.5241 110.285 85.2639 110.337 85.0011 110.337C84.7382 110.337 84.478 110.285 84.2352 110.184C83.9924 110.083 83.7718 109.936 83.5861 109.75L74.6041 100.77C71.9872 102.355 69.7712 104.522 68.1284 107.103C66.4856 109.683 65.4602 112.608 65.1321 115.65C65.1017 115.929 65.1305 116.212 65.2166 116.479C65.3027 116.746 65.4441 116.993 65.6316 117.202C65.8192 117.411 66.0486 117.578 66.3051 117.692C66.5615 117.807 66.8392 117.866 67.1201 117.866H102.88C103.161 117.866 103.439 117.807 103.695 117.692C103.951 117.578 104.181 117.411 104.368 117.202C104.556 116.993 104.697 116.746 104.784 116.479C104.87 116.212 104.898 115.929 104.868 115.65C104.54 112.608 103.515 109.683 101.872 107.103C100.229 104.522 98.0129 102.355 95.3961 100.77Z" fill="#419A60"/>
<path opacity="0.5" d="M92.38 99.308C90.2696 100.949 87.6724 101.84 84.999 101.84C82.3256 101.84 79.7284 100.949 77.618 99.308C76.5743 99.7096 75.5661 100.198 74.604 100.768L83.586 109.752C83.9611 110.127 84.4697 110.338 85 110.338C85.5303 110.338 86.0389 110.127 86.414 109.752L95.396 100.77C94.434 100.199 93.4258 99.7102 92.382 99.308H92.38Z" fill="#419A60"/>
<path d="M83.804 79.4238C83.6797 79.4238 83.5605 79.4732 83.4726 79.5611C83.3847 79.649 83.3353 79.7683 83.3353 79.8926V81.5072H81.7207C81.5964 81.5072 81.4772 81.5565 81.3892 81.6445C81.3013 81.7324 81.252 81.8516 81.252 81.9759V84.3717C81.252 84.4961 81.3013 84.6153 81.3892 84.7032C81.4772 84.7911 81.5964 84.8405 81.7207 84.8405H83.3353V86.4551C83.3353 86.5794 83.3847 86.6986 83.4726 86.7865C83.5605 86.8744 83.6797 86.9238 83.804 86.9238H86.1999C86.3242 86.9238 86.4434 86.8744 86.5313 86.7865C86.6192 86.6986 86.6686 86.5794 86.6686 86.4551V84.8405H88.2832C88.4075 84.8405 88.5268 84.7911 88.6147 84.7032C88.7026 84.6153 88.752 84.4961 88.752 84.3717V81.9759C88.752 81.8516 88.7026 81.7324 88.6147 81.6445C88.5268 81.5565 88.4075 81.5072 88.2832 81.5072H86.6686V79.8926C86.6686 79.7683 86.6192 79.649 86.5313 79.5611C86.4434 79.4732 86.3242 79.4238 86.1999 79.4238H83.804Z" fill="white"/>
</g>
<path d="M191.994 86.192L156.009 86.33L155.178 76.355C154.91 74.0805 155.519 71.7893 156.881 69.9482C158.244 68.1072 160.257 66.8547 162.51 66.446L164.877 66.017C170.914 64.9208 177.098 64.9208 183.135 66.017L185.493 66.446C187.745 66.8554 189.757 68.1077 191.119 69.948C192.48 71.7884 193.089 74.0784 192.822 76.352L191.994 86.192Z" fill="#419A60"/>
<path opacity="0.25" d="M156.027 86.327C156.165 91.0145 158.128 95.4629 161.498 98.7237C164.869 101.984 169.379 103.799 174.069 103.782C178.758 103.764 183.256 101.915 186.601 98.6294C189.947 95.3434 191.877 90.8804 191.979 86.192L156.027 86.327Z" fill="#419A60"/>
<path d="M189.594 102.155L176.124 115.625C175.845 115.904 175.514 116.125 175.15 116.276C174.786 116.427 174.396 116.505 174.001 116.505C173.607 116.505 173.217 116.427 172.853 116.276C172.488 116.125 172.158 115.904 171.879 115.625L158.406 102.155C154.481 104.532 151.157 107.783 148.692 111.654C146.228 115.525 144.69 119.913 144.198 124.475C144.152 124.894 144.196 125.318 144.325 125.718C144.454 126.119 144.666 126.489 144.947 126.802C145.229 127.116 145.573 127.367 145.958 127.538C146.342 127.71 146.759 127.799 147.18 127.799H200.82C201.241 127.799 201.658 127.71 202.042 127.538C202.427 127.367 202.771 127.116 203.053 126.802C203.334 126.489 203.546 126.119 203.675 125.718C203.804 125.318 203.847 124.894 203.802 124.475C203.31 119.913 201.772 115.525 199.307 111.654C196.843 107.783 193.519 104.532 189.594 102.155Z" fill="#419A60"/>
<path opacity="0.5" d="M185.07 99.962C181.904 102.424 178.009 103.76 173.999 103.76C169.988 103.76 166.093 102.424 162.927 99.962C161.361 100.564 159.849 101.297 158.406 102.152L171.879 115.628C172.442 116.19 173.205 116.506 174 116.506C174.795 116.506 175.558 116.19 176.121 115.628L189.594 102.155C188.151 101.299 186.639 100.565 185.073 99.962H185.07Z" fill="#419A60"/>
<path d="M172.206 70.1357C172.02 70.1357 171.841 70.2098 171.709 70.3417C171.577 70.4735 171.503 70.6524 171.503 70.8389V73.2607H169.081C168.895 73.2607 168.716 73.3348 168.584 73.4667C168.452 73.5985 168.378 73.7774 168.378 73.9639V77.5576C168.378 77.7441 168.452 77.9229 168.584 78.0548C168.716 78.1867 168.895 78.2607 169.081 78.2607H171.503V80.6826C171.503 80.8691 171.577 81.0479 171.709 81.1798C171.841 81.3117 172.02 81.3857 172.206 81.3857H175.8C175.986 81.3857 176.165 81.3117 176.297 81.1798C176.429 81.0479 176.503 80.8691 176.503 80.6826V78.2607H178.925C179.111 78.2607 179.29 78.1867 179.422 78.0548C179.554 77.9229 179.628 77.7441 179.628 77.5576V73.9639C179.628 73.7774 179.554 73.5985 179.422 73.4667C179.29 73.3348 179.111 73.2607 178.925 73.2607H176.503V70.8389C176.503 70.6524 176.429 70.4735 176.297 70.3417C176.165 70.2098 175.986 70.1357 175.8 70.1357H172.206Z" fill="white"/>
<g opacity="0.5">
<path d="M274.996 90.128L251.006 90.22L250.452 83.57C250.273 82.0537 250.679 80.5262 251.587 79.2988C252.496 78.0715 253.838 77.2365 255.34 76.964L256.918 76.678C260.942 75.9472 265.065 75.9472 269.09 76.678L270.662 76.964C272.163 77.2369 273.505 78.0718 274.412 79.2987C275.32 80.5256 275.726 82.0523 275.548 83.568L274.996 90.128Z" fill="#419A60"/>
<path opacity="0.25" d="M251.018 90.2181C251.11 93.3431 252.419 96.3087 254.665 98.4825C256.912 100.656 259.92 101.866 263.046 101.855C266.172 101.843 269.17 100.61 271.401 98.4196C273.631 96.229 274.918 93.2537 274.986 90.1281L251.018 90.2181Z" fill="#419A60"/>
<path d="M273.396 100.77L264.416 109.75C264.23 109.936 264.01 110.083 263.767 110.184C263.524 110.285 263.264 110.337 263.001 110.337C262.738 110.337 262.478 110.285 262.235 110.184C261.992 110.083 261.772 109.936 261.586 109.75L252.604 100.77C249.987 102.355 247.771 104.522 246.128 107.103C244.486 109.683 243.46 112.608 243.132 115.65C243.102 115.929 243.131 116.212 243.217 116.479C243.303 116.746 243.444 116.993 243.632 117.202C243.819 117.411 244.049 117.578 244.305 117.692C244.562 117.807 244.839 117.866 245.12 117.866H280.88C281.161 117.866 281.439 117.807 281.695 117.692C281.951 117.578 282.181 117.411 282.368 117.202C282.556 116.993 282.697 116.746 282.784 116.479C282.87 116.212 282.898 115.929 282.868 115.65C282.54 112.608 281.515 109.683 279.872 107.103C278.229 104.522 276.013 102.355 273.396 100.77Z" fill="#419A60"/>
<path opacity="0.5" d="M270.38 99.308C268.27 100.949 265.672 101.84 262.999 101.84C260.326 101.84 257.728 100.949 255.618 99.308C254.574 99.7096 253.566 100.198 252.604 100.768L261.586 109.752C261.961 110.127 262.47 110.338 263 110.338C263.53 110.338 264.039 110.127 264.414 109.752L273.396 100.77C272.434 100.199 271.426 99.7102 270.382 99.308H270.38Z" fill="#419A60"/>
<path d="M261.804 79.4238C261.68 79.4238 261.56 79.4732 261.473 79.5611C261.385 79.649 261.335 79.7683 261.335 79.8926V81.5072H259.721C259.596 81.5072 259.477 81.5565 259.389 81.6445C259.301 81.7324 259.252 81.8516 259.252 81.9759V84.3717C259.252 84.4961 259.301 84.6153 259.389 84.7032C259.477 84.7911 259.596 84.8405 259.721 84.8405H261.335V86.4551C261.335 86.5794 261.385 86.6986 261.473 86.7865C261.56 86.8744 261.68 86.9238 261.804 86.9238H264.2C264.324 86.9238 264.443 86.8744 264.531 86.7865C264.619 86.6986 264.669 86.5794 264.669 86.4551V84.8405H266.283C266.408 84.8405 266.527 84.7911 266.615 84.7032C266.703 84.6153 266.752 84.4961 266.752 84.3717V81.9759C266.752 81.8516 266.703 81.7324 266.615 81.6445C266.527 81.5565 266.408 81.5072 266.283 81.5072H264.669V79.8926C264.669 79.7683 264.619 79.649 264.531 79.5611C264.443 79.4732 264.324 79.4238 264.2 79.4238H261.804Z" fill="white"/>
</g>
<g opacity="0.5">
<path d="M339.997 92.752L324.004 92.8133L323.635 88.38C323.516 87.3691 323.786 86.3508 324.392 85.5326C324.997 84.7143 325.892 84.1577 326.893 83.976L327.945 83.7853C330.628 83.2981 333.377 83.2981 336.06 83.7853L337.108 83.976C338.109 84.1579 339.003 84.7145 339.608 85.5325C340.213 86.3504 340.484 87.3682 340.365 88.3787L339.997 92.752Z" fill="#839489"/>
<path opacity="0.25" d="M324.012 92.812C324.073 94.8953 324.946 96.8724 326.444 98.3216C327.941 99.7708 329.946 100.577 332.031 100.57C334.115 100.562 336.113 99.7401 337.6 98.2797C339.088 96.8193 339.945 94.8357 339.991 92.752L324.012 92.812Z" fill="#839489"/>
<path d="M338.931 99.8467L332.944 105.833C332.82 105.957 332.673 106.056 332.511 106.123C332.349 106.19 332.176 106.224 332.001 106.224C331.825 106.224 331.652 106.19 331.49 106.123C331.328 106.056 331.181 105.957 331.057 105.833L325.069 99.8467C323.325 100.903 321.847 102.348 320.752 104.068C319.657 105.789 318.973 107.739 318.755 109.767C318.734 109.953 318.754 110.141 318.811 110.319C318.868 110.498 318.963 110.662 319.088 110.801C319.213 110.94 319.366 111.052 319.537 111.128C319.708 111.205 319.893 111.244 320.08 111.244H343.92C344.107 111.244 344.292 111.205 344.463 111.128C344.634 111.052 344.787 110.94 344.912 110.801C345.037 110.662 345.132 110.498 345.189 110.319C345.246 110.141 345.266 109.953 345.245 109.767C345.027 107.739 344.343 105.789 343.248 104.068C342.153 102.348 340.675 100.903 338.931 99.8467Z" fill="#839489"/>
<path opacity="0.5" d="M336.92 98.8719C335.513 99.966 333.782 100.56 331.999 100.56C330.217 100.56 328.486 99.966 327.079 98.8719C326.383 99.1397 325.711 99.4653 325.069 99.8453L331.057 105.835C331.307 106.085 331.646 106.225 332 106.225C332.354 106.225 332.693 106.085 332.943 105.835L338.931 99.8466C338.289 99.4661 337.617 99.1401 336.921 98.8719H336.92Z" fill="#839489"/>
<path d="M331.203 85.6158C331.12 85.6158 331.04 85.6488 330.982 85.7074C330.923 85.766 330.89 85.8455 330.89 85.9283V87.0047H329.814C329.731 87.0047 329.651 87.0377 329.593 87.0963C329.534 87.1549 329.501 87.2344 329.501 87.3172V88.9145C329.501 88.9973 329.534 89.0768 329.593 89.1354C329.651 89.194 329.731 89.227 329.814 89.227H330.89V90.3033C330.89 90.3862 330.923 90.4657 330.982 90.5243C331.04 90.5829 331.12 90.6158 331.203 90.6158H332.8C332.883 90.6158 332.962 90.5829 333.021 90.5243C333.079 90.4657 333.112 90.3862 333.112 90.3033V89.227H334.189C334.272 89.227 334.351 89.194 334.41 89.1354C334.468 89.0768 334.501 88.9973 334.501 88.9145V87.3172C334.501 87.2344 334.468 87.1549 334.41 87.0963C334.351 87.0377 334.272 87.0047 334.189 87.0047H333.112V85.9283C333.112 85.8455 333.079 85.766 333.021 85.7074C332.962 85.6488 332.883 85.6158 332.8 85.6158H331.203Z" fill="white"/>
</g>
<path opacity="0.21" d="M210.159 134.159C230.07 114.247 230.07 81.9645 210.159 62.0531C190.247 42.1417 157.964 42.1417 138.053 62.0531C118.141 81.9646 118.141 114.247 138.053 134.159C157.964 154.07 190.247 154.07 210.159 134.159Z" fill="#91BFE0"/>
<path opacity="0.76" d="M134.153 101.768C132.374 101.768 130.931 100.325 130.931 98.5456C130.931 72.8242 151.857 51.8992 177.578 51.8992C179.357 51.8992 180.8 53.342 180.8 55.1215C180.8 56.901 179.357 58.3438 177.578 58.3438C155.41 58.3438 137.376 76.3784 137.376 98.5456C137.376 100.325 135.933 101.768 134.153 101.768Z" fill="#C7DFF5"/>
<path opacity="0.58" d="M174.108 150.703C145.106 150.703 121.51 127.108 121.51 98.1052C121.51 69.1026 145.106 45.5071 174.108 45.5071C203.111 45.5071 226.706 69.1026 226.706 98.1052C226.706 127.108 203.111 150.703 174.108 150.703ZM174.108 48.7294C146.882 48.7294 124.733 70.8797 124.733 98.1052C124.733 125.331 146.882 147.481 174.108 147.481C201.335 147.481 223.484 125.331 223.484 98.1052C223.484 70.8797 201.335 48.7294 174.108 48.7294Z" fill="#3E479B"/>
<path d="M220.972 134.635C221.047 134.561 221.132 134.5 221.214 134.438C228.979 124.387 233.607 111.788 233.607 98.1039C233.607 65.2434 206.968 38.6052 174.108 38.6052C141.248 38.6052 114.609 65.2434 114.609 98.1039C114.609 130.964 141.248 157.603 174.108 157.603C187.735 157.603 200.279 153.004 210.31 145.297L217.193 138.414L220.972 134.635ZM174.108 149.091C145.949 149.091 123.121 126.263 123.121 98.1039C123.121 69.9448 145.949 47.117 174.108 47.117C202.267 47.117 225.095 69.9448 225.095 98.1039C225.095 126.263 202.267 149.091 174.108 149.091Z" fill="#3E479B"/>
<path d="M174.108 158.408C140.856 158.408 113.804 131.356 113.804 98.104C113.804 64.8519 140.856 37.7997 174.108 37.7997C207.36 37.7997 234.412 64.8527 234.412 98.104C234.412 111.559 230.069 124.293 221.851 134.93L221.699 135.08C221.62 135.14 221.579 135.167 221.543 135.203L210.801 145.935C200.181 154.096 187.493 158.408 174.108 158.408ZM174.108 39.41C141.745 39.41 115.415 65.7397 115.415 98.1031C115.415 130.467 141.745 156.796 174.108 156.796C187.117 156.796 199.451 152.61 209.778 144.69L220.402 134.065C220.478 133.989 220.559 133.923 220.642 133.86C228.597 123.524 232.801 111.162 232.801 98.1031C232.801 65.7397 206.471 39.41 174.108 39.41ZM174.108 149.896C145.549 149.896 122.315 126.663 122.315 98.104C122.315 69.5453 145.549 46.3115 174.108 46.3115C202.667 46.3115 225.9 69.5453 225.9 98.104C225.9 126.663 202.667 149.896 174.108 149.896ZM174.108 47.9226C146.438 47.9226 123.927 70.4338 123.927 98.104C123.927 125.774 146.438 148.285 174.108 148.285C201.778 148.285 224.289 125.774 224.289 98.104C224.289 70.433 201.777 47.9226 174.108 47.9226Z" fill="#3E479B"/>
<path d="M219.502 143.939L217.194 141.631C216.305 140.742 216.305 139.303 217.194 138.414L210.311 145.297L210.199 145.409C209.31 146.298 209.31 147.737 210.199 148.626L213 151.427C213.923 149.879 216.625 146.848 219.502 143.939Z" fill="#4C65BA"/>
<path d="M217.193 138.415C216.304 139.303 216.304 140.744 217.193 141.631L219.501 143.939C222.285 141.124 225.222 138.435 226.87 137.318L224.189 134.637C223.376 133.824 222.105 133.764 221.214 134.439C221.132 134.501 221.047 134.562 220.972 134.637L217.193 138.415Z" fill="#4C65BA"/>
<path opacity="0.43" d="M217.193 138.415C216.304 139.303 216.304 140.744 217.193 141.631L219.501 143.939C222.285 141.124 225.222 138.435 226.87 137.318L224.189 134.637C223.376 133.824 222.105 133.764 221.214 134.439C221.132 134.501 221.047 134.562 220.972 134.637L217.193 138.415Z" fill="#3E479B"/>
<path d="M270.039 179.176L228.14 136.82C227.989 136.668 227.53 136.87 226.871 137.317C225.223 138.435 222.286 141.124 219.502 143.938C216.625 146.847 213.924 149.879 212.999 151.427C212.698 151.931 212.582 152.28 212.714 152.414L254.613 194.77C258.873 199.076 265.779 199.076 270.038 194.77C274.299 190.463 274.299 183.482 270.039 179.176Z" fill="#599AF2"/>
<path opacity="0.14" d="M270.039 179.175L228.14 136.819C227.576 136.249 222.801 140.527 218.702 144.753C215.213 148.35 265.78 199.075 270.039 194.769C274.299 190.462 274.299 183.481 270.039 179.175Z" fill="#3E479B"/>
</svg>
