<svg width="343" height="156" viewBox="0 0 343 156" fill="none" xmlns="http://www.w3.org/2000/svg">
<g opacity="0.5">
<path d="M76.9959 70.128L53.0059 70.22L52.4519 63.57C52.2732 62.0537 52.6793 60.5262 53.5875 59.2988C54.4956 58.0715 55.8376 57.2365 57.3399 56.964L58.9179 56.678C62.9423 55.9472 67.0655 55.9472 71.0899 56.678L72.6619 56.964C74.1635 57.2369 75.5046 58.0718 76.4124 59.2987C77.3201 60.5256 77.7261 62.0523 77.5479 63.568L76.9959 70.128Z" fill="#839489"/>
<path opacity="0.25" d="M53.0181 70.2181C53.1097 73.3431 54.4185 76.3087 56.6654 78.4825C58.9124 80.6563 61.9196 81.8663 65.0459 81.8546C68.1723 81.8429 71.1703 80.6103 73.4009 78.4196C75.6314 76.229 76.9179 73.2537 76.9861 70.1281L53.0181 70.2181Z" fill="#839489"/>
<path d="M75.3958 80.77L66.4158 89.75C66.2301 89.936 66.0095 90.0835 65.7667 90.1841C65.5239 90.2848 65.2636 90.3366 65.0008 90.3366C64.738 90.3366 64.4777 90.2848 64.2349 90.1841C63.9921 90.0835 63.7716 89.936 63.5858 89.75L54.6038 80.77C51.987 82.3548 49.771 84.5218 48.1281 87.1026C46.4853 89.6834 45.46 92.6084 45.1318 95.65C45.1015 95.9292 45.1303 96.2117 45.2164 96.479C45.3024 96.7463 45.4439 96.9925 45.6314 97.2016C45.8189 97.4106 46.0484 97.5778 46.3048 97.6923C46.5613 97.8068 46.839 97.866 47.1198 97.866H82.8798C83.1607 97.866 83.4383 97.8068 83.6948 97.6923C83.9512 97.5778 84.1807 97.4106 84.3682 97.2016C84.5558 96.9925 84.6972 96.7463 84.7833 96.479C84.8693 96.2117 84.8981 95.9292 84.8678 95.65C84.5397 92.6084 83.5143 89.6834 81.8715 87.1026C80.2287 84.5218 78.0127 82.3548 75.3958 80.77Z" fill="#839489"/>
<path opacity="0.5" d="M72.38 79.308C70.2696 80.9491 67.6724 81.84 64.999 81.84C62.3256 81.84 59.7284 80.9491 57.618 79.308C56.5743 79.7096 55.5661 80.1979 54.604 80.768L63.586 89.752C63.9611 90.1269 64.4697 90.3376 65 90.3376C65.5303 90.3376 66.0389 90.1269 66.414 89.752L75.396 80.77C74.434 80.1993 73.4258 79.7102 72.382 79.308H72.38Z" fill="#839489"/>
<path d="M63.804 59.4238C63.6797 59.4238 63.5605 59.4732 63.4726 59.5611C63.3847 59.649 63.3353 59.7683 63.3353 59.8926V61.5072H61.7207C61.5964 61.5072 61.4772 61.5565 61.3892 61.6445C61.3013 61.7324 61.252 61.8516 61.252 61.9759V64.3717C61.252 64.4961 61.3013 64.6153 61.3892 64.7032C61.4772 64.7911 61.5964 64.8405 61.7207 64.8405H63.3353V66.4551C63.3353 66.5794 63.3847 66.6986 63.4726 66.7865C63.5605 66.8744 63.6797 66.9238 63.804 66.9238H66.1999C66.3242 66.9238 66.4434 66.8744 66.5313 66.7865C66.6192 66.6986 66.6686 66.5794 66.6686 66.4551V64.8405H68.2832C68.4075 64.8405 68.5268 64.7911 68.6147 64.7032C68.7026 64.6153 68.752 64.4961 68.752 64.3717V61.9759C68.752 61.8516 68.7026 61.7324 68.6147 61.6445C68.5268 61.5565 68.4075 61.5072 68.2832 61.5072H66.6686V59.8926C66.6686 59.7683 66.6192 59.649 66.5313 59.5611C66.4434 59.4732 66.3242 59.4238 66.1999 59.4238H63.804Z" fill="white"/>
</g>
<path d="M282.994 66.192L247.009 66.33L246.178 56.355C245.91 54.0805 246.519 51.7893 247.881 49.9482C249.244 48.1072 251.257 46.8547 253.51 46.446L255.877 46.017C261.914 44.9208 268.098 44.9208 274.135 46.017L276.493 46.446C278.745 46.8554 280.757 48.1077 282.119 49.948C283.48 51.7884 284.089 54.0784 283.822 56.352L282.994 66.192Z" fill="#419A60"/>
<path opacity="0.25" d="M247.027 66.327C247.164 71.0145 249.128 75.4629 252.498 78.7237C255.868 81.9844 260.379 83.7994 265.069 83.7818C269.758 83.7642 274.255 81.9153 277.601 78.6294C280.947 75.3434 282.877 70.8804 282.979 66.192L247.027 66.327Z" fill="#419A60"/>
<path d="M280.594 82.155L267.124 95.625C266.846 95.904 266.515 96.1252 266.151 96.2762C265.786 96.4272 265.396 96.5049 265.002 96.5049C264.607 96.5049 264.217 96.4272 263.853 96.2762C263.489 96.1252 263.158 95.904 262.879 95.625L249.406 82.155C245.481 84.5322 242.157 87.7827 239.693 91.6539C237.228 95.5251 235.69 99.9125 235.198 104.475C235.153 104.894 235.196 105.318 235.325 105.718C235.454 106.119 235.666 106.489 235.948 106.802C236.229 107.116 236.573 107.367 236.958 107.538C237.342 107.71 237.759 107.799 238.18 107.799H291.82C292.241 107.799 292.658 107.71 293.043 107.538C293.427 107.367 293.772 107.116 294.053 106.802C294.334 106.489 294.546 106.119 294.675 105.718C294.804 105.318 294.848 104.894 294.802 104.475C294.31 99.9125 292.772 95.5251 290.308 91.6539C287.844 87.7827 284.519 84.5322 280.594 82.155Z" fill="#419A60"/>
<path opacity="0.5" d="M276.07 79.962C272.904 82.4237 269.008 83.7601 264.998 83.7601C260.988 83.7601 257.092 82.4237 253.927 79.962C252.361 80.5644 250.849 81.297 249.406 82.152L262.879 95.628C263.441 96.1904 264.204 96.5064 265 96.5064C265.795 96.5064 266.558 96.1904 267.121 95.628L280.594 82.155C279.151 81.299 277.638 80.5654 276.073 79.962H276.07Z" fill="#419A60"/>
<path d="M263.206 50.1357C263.02 50.1357 262.841 50.2098 262.709 50.3417C262.577 50.4735 262.503 50.6524 262.503 50.8389V53.2607H260.081C259.895 53.2607 259.716 53.3348 259.584 53.4667C259.452 53.5985 259.378 53.7774 259.378 53.9639V57.5576C259.378 57.7441 259.452 57.9229 259.584 58.0548C259.716 58.1867 259.895 58.2607 260.081 58.2607H262.503V60.6826C262.503 60.8691 262.577 61.0479 262.709 61.1798C262.841 61.3117 263.02 61.3857 263.206 61.3857H266.8C266.986 61.3857 267.165 61.3117 267.297 61.1798C267.429 61.0479 267.503 60.8691 267.503 60.6826V58.2607H269.925C270.111 58.2607 270.29 58.1867 270.422 58.0548C270.554 57.9229 270.628 57.7441 270.628 57.5576V53.9639C270.628 53.7774 270.554 53.5985 270.422 53.4667C270.29 53.3348 270.111 53.2607 269.925 53.2607H267.503V50.8389C267.503 50.6524 267.429 50.4735 267.297 50.3417C267.165 50.2098 266.986 50.1357 266.8 50.1357H263.206Z" fill="white"/>
<path fill-rule="evenodd" clip-rule="evenodd" d="M189.182 29.818C187.425 28.0607 184.575 28.0607 182.818 29.818C181.061 31.5754 181.061 34.4246 182.818 36.182L193.136 46.5H177.45C170.371 46.5 162.993 49.738 158.868 56.1327L131.496 94.7234C128.737 98.5041 124.692 100.5 120.3 100.5H114C111.515 100.5 109.5 102.515 109.5 105C109.5 107.485 111.515 109.5 114 109.5H120.3C127.6 109.5 134.349 106.103 138.79 99.997L166.27 61.2534C166.314 61.192 166.356 61.1295 166.396 61.0659C168.584 57.6278 172.867 55.5 177.45 55.5H193.136L182.818 65.818C181.061 67.5754 181.061 70.4246 182.818 72.182C184.575 73.9393 187.425 73.9393 189.182 72.182L207.182 54.182C207.617 53.7471 207.944 53.2454 208.164 52.7099C208.36 52.231 208.471 51.7251 208.495 51.2159C208.498 51.144 208.5 51.072 208.5 51C208.5 50.9766 208.5 50.9533 208.499 50.9299C208.491 50.3501 208.372 49.7969 208.164 49.2901C207.944 48.7546 207.617 48.2529 207.182 47.818L189.182 29.818Z" fill="url(#paint0_linear_668_23248)"/>
<path fill-rule="evenodd" clip-rule="evenodd" d="M114 46.5C111.515 46.5 109.5 48.5147 109.5 51C109.5 53.4853 111.515 55.5 114 55.5H122.55C127.53 55.5 132.367 58.5377 134.788 63.0334C135.966 65.2217 138.695 66.0404 140.883 64.8621C143.072 63.6838 143.89 60.9548 142.712 58.7666C138.833 51.5623 131.07 46.5 122.55 46.5H114ZM164.166 90.915C162.849 88.8075 160.073 88.1668 157.965 89.484C155.857 90.8012 155.217 93.5775 156.534 95.685L158.784 99.2851L158.804 99.3159C162.795 105.588 170.09 109.5 177.45 109.5H193.136L182.818 119.818C181.061 121.575 181.061 124.425 182.818 126.182C184.575 127.939 187.425 127.939 189.182 126.182L207.177 108.187C207.193 108.171 207.21 108.154 207.226 108.137C207.634 107.718 207.945 107.238 208.157 106.727C208.378 106.195 208.5 105.612 208.5 105C208.5 104.39 208.379 103.808 208.159 103.277C207.939 102.747 207.613 102.249 207.182 101.818L189.182 83.818C187.425 82.0607 184.575 82.0607 182.818 83.818C181.061 85.5754 181.061 88.4246 182.818 90.182L193.136 100.5H177.45C173.115 100.5 168.717 98.1181 166.406 94.4983L164.166 90.915Z" fill="url(#paint1_linear_668_23248)"/>
<circle cx="295" cy="46" r="18.5" fill="#0369D8" stroke="#FAFAFA" stroke-width="3"/>
<path d="M292.334 48.1334L300.2 40.2667C300.445 40.0222 300.756 39.9 301.134 39.9C301.511 39.9 301.822 40.0222 302.067 40.2667C302.311 40.5111 302.434 40.8222 302.434 41.2C302.434 41.5778 302.311 41.8889 302.067 42.1334L293.267 50.9334C293 51.2 292.689 51.3334 292.334 51.3334C291.978 51.3334 291.667 51.2 291.4 50.9334L287.934 47.4667C287.689 47.2222 287.567 46.9111 287.567 46.5334C287.567 46.1556 287.689 45.8445 287.934 45.6C288.178 45.3556 288.489 45.2334 288.867 45.2334C289.245 45.2334 289.556 45.3556 289.8 45.6L292.334 48.1334Z" fill="white"/>
<defs>
<linearGradient id="paint0_linear_668_23248" x1="186" y1="48" x2="117" y2="103.5" gradientUnits="userSpaceOnUse">
<stop stop-color="#3E479B"/>
<stop offset="1" stop-color="#558EE6"/>
</linearGradient>
<linearGradient id="paint1_linear_668_23248" x1="159" y1="46.5" x2="159" y2="127.5" gradientUnits="userSpaceOnUse">
<stop stop-color="#558EE6"/>
<stop offset="1" stop-color="#3E479B"/>
</linearGradient>
</defs>
</svg>
