<svg width="343" height="223" viewBox="0 0 343 223" fill="none" xmlns="http://www.w3.org/2000/svg">
<path d="M83.8229 0.760385C118.313 3.7539 147.716 40.4858 203.512 34.0816C259.308 27.6774 258.452 7.16454 306.567 21.6904C354.682 36.2163 359.648 152.423 291.914 191.315C224.181 230.206 110.657 232.733 68.0699 201.988C49.7484 190.014 -4.75117 135.346 0.36122 78.5181C5.47361 21.6904 49.3326 -2.23313 83.8229 0.760385Z" fill="#D4ECF9"/>
<path d="M68.0695 201.964C51.6805 191.266 6.25601 146.29 0.605469 96.2342C31.0108 79.2055 68.6566 63.3791 92.8242 71.8689C139.007 88.0879 113.788 134.389 113.788 134.389C113.788 134.389 171.785 64.606 227.997 78.6902C284.209 92.7745 256.568 130.856 256.568 130.856C256.568 130.856 300.573 95.1055 342.598 86.812C344.383 125.188 329.12 169.919 291.914 191.29C224.205 230.182 110.656 232.733 68.0695 201.964Z" fill="#FFCA6E"/>
<path d="M20.2969 149.16L22.7675 149.185C22.4005 148.792 21.9847 148.351 21.7156 147.909C21.7156 147.909 22.6696 145.136 25.0179 143.002C25.0179 143.002 23.061 147.124 23.6725 149.111C23.6725 149.111 25.6294 143.787 31.7692 139.468C31.7692 139.468 28.1245 145.725 28.9806 149.357C29.0785 149.357 29.2252 149.357 29.3475 149.357C30.4972 146.756 32.2095 142.854 32.7966 141.529C33.3592 140.229 32.2829 147.271 31.28 149.406C31.6469 149.43 32.0627 149.43 32.4541 149.455C33.457 146.927 34.5088 144.4 35.5607 141.848C35.1204 144.425 34.6801 146.977 34.2398 149.528C34.6556 149.528 35.047 149.553 35.4628 149.577C36.3434 147.492 37.5665 144.351 37.9579 143.321C38.3493 142.29 37.0039 148.4 37.3463 149.308C37.6888 150.215 37.4931 149.577 37.6154 149.7C38.6672 149.774 39.7191 149.823 40.7954 149.896C41.5781 147.786 42.2386 143.959 40.3795 139.174C40.3795 139.174 42.9724 144.94 43.1192 150.044C43.1192 150.044 43.1192 150.044 43.1437 150.044C43.6573 149.97 43.9509 149.921 43.9509 149.921C43.9509 149.921 44.4646 144.744 42.899 141.186C42.899 141.186 46.1768 145.578 46.5193 149.013C47.5222 145.897 48.1582 141.946 48.0359 143.149C47.9136 144.351 47.5956 147.958 47.4244 150.338C47.4488 150.338 47.4977 150.338 47.4977 150.338C48.1337 147.516 49.9928 142.216 55.9613 138.732C55.9613 138.732 49.9194 144.277 49.8216 150.534C50.1885 150.559 50.6043 150.584 50.9468 150.633C52.2921 148.375 54.1757 143.86 51.0202 139.665C51.0202 139.665 54.934 145.357 53.8087 150.853C56.5484 151.123 59.2636 151.393 62.0522 151.688C62.4925 148.67 64.7184 141.529 75.1145 138.904C75.1145 138.904 64.6451 142.486 64.8652 152.007C65.5746 152.08 66.3084 152.178 67.0667 152.252C67.5315 150.412 68.8279 146.559 70.9805 144.646C70.9805 144.646 68.3387 149.332 68.9992 152.497C71.0539 152.743 73.1086 153.013 75.2123 153.258C75.7505 151.197 76.7534 146.535 75.9461 143.271C75.9461 143.271 78.3433 147.786 77.1203 153.479C78.4412 153.651 79.7132 153.822 81.0096 153.97C80.9852 153.184 80.765 151.565 79.9333 148.228C79.9333 148.228 82.1593 151.418 82.3061 154.141C82.5996 154.19 82.9421 154.24 83.2601 154.289C84.5076 152.252 86.5623 150.608 86.5623 150.608C85.5105 152.326 84.8745 153.552 84.4342 154.436C85.6083 154.583 86.758 154.73 87.9321 154.902C88.8372 149.995 91.8215 146.903 91.8215 146.903C90.4761 149.234 89.938 152.767 89.7178 155.147C91.9438 155.417 94.1698 155.712 96.3957 156.006C97.1051 153.16 96.2 149.504 96.2 149.504C97.1785 151.025 97.6188 153.16 97.79 155C98.1325 154.068 98.9152 152.694 100.163 151.54C98.6461 146.24 93.6805 142.977 93.6805 142.977C98.9397 145.848 101.337 149.406 102.315 152.473C103.392 151.197 104.835 149.823 106.743 148.621C106.743 148.621 104.174 153.381 104.492 156.963C104.786 157.012 105.128 157.037 105.446 157.061C106.254 154.951 107.477 151.761 107.917 150.706C108.357 149.651 107.819 154.804 107.354 157.282C108.7 157.429 110.094 157.601 111.537 157.748C112.051 156.104 112.907 153.675 113.201 152.841C113.494 152.031 112.418 155.957 112.785 157.871C115.035 158.116 117.335 158.337 119.609 158.533C119.536 156.914 119.267 153.552 117.946 150.976C117.946 150.976 121.591 155.417 122.129 158.754C125.871 159.073 129.663 159.343 133.43 159.589C134.213 157.159 134.947 154.706 135.803 152.252C135.558 154.73 135.436 157.208 135.265 159.687C137.417 159.785 139.619 159.883 141.845 159.981C142.358 157.945 142.676 154.24 140.401 149.627C140.401 149.627 143.532 155.147 144.168 160.079C145.171 160.104 146.125 160.128 147.128 160.153C148.107 156.644 148.449 152.031 148.449 153.209C148.449 154.362 148.449 157.871 148.523 160.177C148.547 160.177 148.596 160.177 148.62 160.177C148.963 157.429 150.308 152.203 156.032 148.326C156.032 148.326 150.357 154.215 150.969 160.227C151.311 160.227 151.678 160.251 152.094 160.251C153.244 157.969 154.687 153.479 151.115 149.651C151.115 149.651 155.592 154.828 155.005 160.251C159.163 160.227 163.273 160.177 167.431 160.006C168.14 156.497 170.611 150.804 179.368 147.05C179.368 147.05 170.293 151.81 170.024 159.908C170.929 159.883 171.834 159.834 172.715 159.809C173.179 157.797 174.036 155.221 175.552 153.503C175.552 153.503 174.06 156.889 174.06 159.76C175.136 159.687 176.213 159.638 177.265 159.564C177.974 156.865 178.708 154.166 179.466 151.418C179.368 154.092 179.295 156.767 179.221 159.441C179.784 159.417 180.371 159.368 180.983 159.343C181.227 156.939 181.325 153.528 180.518 151.197C180.518 151.197 182.768 154.387 182.891 159.245C183.845 159.196 184.823 159.122 185.826 159.049C185.899 158.73 185.997 158.362 186.022 157.969C185.826 157.233 185.41 156.35 185.043 155.319C185.043 155.319 185.557 155.834 186.193 156.644C186.291 154.46 185.924 151.516 184.089 148.228C184.089 148.228 187.587 153.749 188.345 158.852C189.324 158.779 190.278 158.681 191.256 158.607C191.281 158.484 190.889 160.128 191.33 158.214C191.77 156.301 192.284 149.7 192.333 150.952C192.406 152.203 192.602 155.982 192.773 158.484C192.773 158.484 192.773 158.484 192.797 158.484C192.895 155.761 193.947 149.921 199.916 145.136C199.916 145.136 194.143 152.031 195.268 158.288C195.537 158.264 195.831 158.239 196.149 158.214C197.225 155.933 198.888 150.78 194.999 147.001C194.999 147.001 199.647 151.859 199.28 157.503C199.818 157.601 200.356 157.675 200.894 157.748C203.487 157.478 206.129 157.208 208.746 156.939C208.991 155.957 209.651 153.994 211.045 152.252C211.045 152.252 210.361 154.73 210.483 156.742C210.752 156.718 211.045 156.693 211.363 156.644C212.171 154.583 213.859 151.099 217.43 147.786C217.43 147.786 215.546 152.546 215.84 156.129C216.28 156.08 216.72 156.031 217.161 155.957C217.674 153.871 218.482 150.706 218.775 149.651C219.069 148.596 219.044 153.135 218.946 155.761C219.387 155.712 219.852 155.663 220.365 155.589C220.561 154.706 221.099 152.571 222.665 150.682C222.665 150.682 221.931 153.332 222.102 155.393C222.371 155.344 222.64 155.319 222.934 155.27C223.105 154.706 223.398 153.97 223.839 153.16C224.01 152.301 224.255 151.001 224.352 150.559C224.45 150.117 224.255 151.32 224.206 152.35C225.208 150.485 226.676 148.277 228.951 146.167C228.951 146.167 227.019 151.148 227.508 154.73C227.924 154.681 228.291 154.632 228.731 154.583C229.147 152.841 229.538 151.099 230.003 149.332C229.734 148.694 229.391 148.081 229.024 147.541C229.024 147.541 229.489 147.958 230.15 148.67C230.174 148.473 230.296 148.154 230.345 148.032C230.394 147.933 230.345 148.351 230.37 148.89C231.495 150.117 233.134 152.056 233.868 153.921C234.21 153.871 234.577 153.822 234.944 153.798C235.287 152.178 235.727 149.749 235.898 148.94C236.045 148.13 235.605 151.737 235.971 153.675C238.295 153.381 240.692 153.086 243.065 152.767C242.772 150.976 242.013 148.007 240.57 145.872C240.57 145.872 244.337 149.258 245.56 152.448C250.624 151.81 255.712 151.148 260.8 150.51C261.876 147.026 265.594 142.683 265.594 142.683C264.151 145.185 263.539 148.326 263.295 150.191C265.667 149.896 267.991 149.602 270.339 149.308C270.682 147.296 270.046 143.811 270.242 144.572C270.437 145.357 270.975 147.615 271.391 149.16C271.734 149.111 272.125 149.062 272.468 149.013C273.152 146.952 274.669 144.67 275.819 143.149C275.819 142.609 275.843 142.192 275.843 142.29C275.868 142.388 275.917 142.683 275.99 142.879C276.626 141.996 277.14 141.456 277.14 141.456C276.724 142.094 276.43 142.805 276.161 143.492C276.626 145.136 277.115 146.78 277.653 148.4C278.069 148.351 278.436 148.302 278.828 148.252C279.17 144.572 277.213 140.057 277.213 140.057C279.439 141.627 280.956 143.468 282.007 145.087C281.934 144.081 281.714 142.928 281.812 143.345C281.91 143.762 282.228 144.989 282.448 145.799C282.864 146.51 283.157 147.173 283.402 147.713C283.695 147.688 284.013 147.664 284.282 147.615C284.307 145.504 283.549 143.051 283.549 143.051C285.09 144.572 285.75 146.584 286.019 147.418C286.459 147.369 286.973 147.32 287.438 147.271C287.193 144.695 287.144 140.155 287.413 141.137C287.682 142.118 288.563 145.087 289.199 147.075C289.615 147.026 290.006 146.977 290.52 146.927C290.691 143.296 288.734 138.928 288.734 138.928C292.281 141.456 294.14 144.547 294.972 146.437C295.241 146.412 295.535 146.388 295.877 146.339C295.853 144.302 295.07 141.996 295.07 141.996C296.562 143.443 297.222 145.259 297.491 146.191C300.574 145.897 303.656 145.602 306.738 145.308C306.175 139.714 310.823 133.972 310.823 133.972C307.105 138.192 308.499 142.781 309.6 145.063C310.016 145.038 310.382 144.989 310.774 144.965C311.385 138.659 305.979 132.941 305.979 132.941C311.557 136.548 312.804 141.922 313.122 144.768C313.147 144.768 313.195 144.768 313.22 144.768C313.22 142.339 313.367 138.708 313.416 137.481C313.489 136.254 313.611 141.063 314.565 144.67C315.544 144.596 316.547 144.523 317.574 144.449C318.283 139.296 321.635 133.506 321.635 133.506C319.14 138.34 319.433 142.192 320.02 144.327C322.173 144.228 324.399 144.106 326.6 143.983C326.429 141.407 326.258 138.83 326.184 136.229C326.869 138.806 327.628 141.358 328.41 143.909C329.829 143.885 331.272 143.86 332.691 143.836C325.597 160.521 314.663 175.611 299.448 186.481C285.775 194.21 260.873 205.129 233.77 213.84C171.443 229.323 99.9915 224.931 68.1675 201.939C57.8693 195.29 36.3924 175.341 20.2969 149.16ZM99.1598 156.35C99.3555 156.374 99.5757 156.399 99.7225 156.423C99.8937 156.006 100.138 155.515 100.456 154.927C100.554 153.773 100.383 152.669 100.114 151.639C99.8937 152.301 99.0375 154.583 99.1598 156.35ZM230.37 150.608C230.443 151.81 230.517 153.16 230.443 154.362C230.737 154.313 231.006 154.289 231.324 154.24C231.153 153.258 230.835 151.933 230.37 150.608ZM274.84 148.743C275.134 148.719 275.452 148.67 275.721 148.645C275.623 147.467 275.623 146.069 275.623 144.891C275.183 146.314 274.987 147.713 274.84 148.743Z" fill="#FFBB45"/>
<path d="M136.145 222.084C137.589 214.478 138.273 202.454 129.81 197.94C117.041 191.094 94.5857 189.376 92.7511 169.109C90.941 148.841 98.7197 116.992 68.9015 104.601C40.6243 92.8478 11.9802 86.4682 3.63893 59.9683C2.07341 65.7099 0.923737 71.8932 0.336667 78.5182C-4.77573 135.346 49.7483 190.014 68.0453 201.988C83.3825 213.03 107.893 219.778 136.145 222.084Z" fill="#FFD996"/>
<path d="M188.468 221.52C189.128 213.913 191.672 205.129 199.231 200.492C214.299 191.266 222.347 185.132 223.619 163.195C224.891 141.235 233.697 122.292 252.63 121.728C271.563 121.164 268.236 83.8674 283.549 65.4892C296.244 50.2763 320.925 57.3184 332.398 45.418C353.141 85.266 344.139 161.306 291.89 191.29C262.805 208 225.233 218.011 188.468 221.52Z" fill="#FFD996"/>
<path d="M245.634 184.714V186.947C245.634 186.947 250.966 189.573 251.651 190.481C252.336 191.388 249.474 197.277 244.508 197.989C244.508 197.989 240.35 192.198 240.179 190.112C239.983 188.027 240.179 186.677 240.179 186.677C240.179 186.677 244.19 185.524 245.634 184.714Z" fill="#2C2245"/>
<path d="M175.16 82.1498C180.028 80.7511 185.116 78.5183 187.293 79.0581C188.32 79.3035 189.299 80.015 190.106 80.8002C186.779 85.6095 182.817 91.621 182.621 93.1669C182.303 95.8414 189.641 127.887 189.641 127.887L188.467 128.402L188.443 129.629L191.158 137.088L184.871 138.83L178.194 103.62L174.671 88.5539C174.671 88.5294 174.353 85.5113 175.16 82.1498Z" fill="#BA3F3D"/>
<path d="M245.634 184.714V186.947C245.634 186.947 250.967 189.573 251.652 190.481C251.652 190.505 251.676 190.505 251.676 190.53C251.676 190.554 251.701 190.554 251.701 190.579C251.701 190.603 251.725 190.603 251.725 190.628C251.725 190.652 251.725 190.677 251.749 190.701C251.749 190.726 251.749 190.75 251.749 190.775C251.749 190.8 251.749 190.824 251.749 190.849C251.749 190.873 251.749 190.898 251.749 190.922C251.749 190.947 251.749 190.971 251.749 190.996V191.02C251.749 191.045 251.749 191.069 251.749 191.094V191.119C251.749 191.143 251.749 191.168 251.725 191.192V191.217C251.725 191.241 251.725 191.266 251.701 191.315V191.339C251.701 191.364 251.701 191.388 251.676 191.413V191.437C251.676 191.462 251.652 191.487 251.652 191.511V191.536C251.652 191.56 251.627 191.585 251.627 191.609V191.658C251.627 191.683 251.603 191.707 251.603 191.756V191.781C251.603 191.806 251.578 191.855 251.578 191.879L251.554 191.928L251.529 192.002L251.505 192.051L251.48 192.125L251.456 192.174L251.431 192.247L251.407 192.321L251.383 192.394L251.358 192.468L251.309 192.542L251.285 192.591L251.236 192.664L251.187 192.738L251.138 192.812L251.113 192.885L251.065 192.983L251.016 193.057L250.967 193.131C248.912 190.358 244.436 186.825 244.436 186.825L244.533 185.181C244.949 185.058 245.341 184.886 245.634 184.714Z" fill="#100C29"/>
<path d="M188.419 122.391C186.462 123.2 184.359 123.912 182.157 124.501L184.016 134.291C185.777 133.53 187.514 132.745 189.275 131.886L188.444 129.58L188.468 128.353L189.642 127.838C189.642 127.862 189.153 125.679 188.419 122.391Z" fill="#B02C2A"/>
<path d="M175.16 82.1498C180.028 80.7511 185.116 78.5183 187.293 79.0581C188.32 79.3035 189.299 80.015 190.106 80.8002C186.779 85.6095 182.817 91.621 182.621 93.1669C182.45 94.5164 184.26 103.423 186.095 111.864C184.211 112.281 182.132 112.649 179.979 112.968L178.194 103.62L174.671 88.5539C174.671 88.5294 174.353 85.5113 175.16 82.1498Z" fill="#B02C2A"/>
<path d="M175.16 82.1498C180.028 80.7511 185.116 78.5183 187.293 79.0581C188.32 79.3035 189.299 80.015 190.106 80.8002C186.779 85.6095 182.817 91.621 182.621 93.1669C182.474 94.3446 183.844 101.264 185.385 108.601C183.697 109.435 181.643 110.097 179.514 110.564L178.194 103.62L174.671 88.5539C174.671 88.5294 174.353 85.5113 175.16 82.1498Z" fill="#171330"/>
<path d="M139.423 67.2804L139.398 67.2559L139.35 67.2068L139.325 67.1823L139.276 67.1578L139.252 67.1332L139.227 67.1087L139.178 67.0841L139.154 67.0596L139.105 67.0351L139.08 67.0105L139.032 66.986L139.007 66.9615V66.9369L138.958 66.9124L138.934 66.8878L138.909 66.8633H138.885L138.787 66.7652L138.738 66.7406L138.714 66.7161H138.689L138.665 66.6915L138.616 66.667L138.591 66.6179L138.542 66.5934L138.493 66.5689V66.5443L138.371 66.4707L138.347 66.4462L138.273 66.3971L138.249 66.3726L138.175 66.299L138.126 66.2744L138.078 66.2499L138.053 66.2253L138.029 66.2008L138.004 66.1763L137.906 66.1027L137.857 66.0781L139.423 67.2804Z" stroke="black" stroke-width="0.5" stroke-linecap="round" stroke-linejoin="round"/>
<path d="M139.325 67.2069L139.276 67.1578L139.228 67.1333L139.325 67.2069Z" stroke="black" stroke-width="0.5" stroke-linecap="round" stroke-linejoin="round"/>
<path d="M139.276 67.1576L139.251 67.1331H139.227L139.202 67.1085L139.154 67.0594L139.105 67.0349L139.056 66.9858L139.276 67.1576Z" stroke="black" stroke-width="0.5" stroke-linecap="round" stroke-linejoin="round"/>
<path d="M139.154 67.0594L139.056 66.9858L138.909 66.8877L139.154 67.0594Z" stroke="black" stroke-width="0.5" stroke-linecap="round" stroke-linejoin="round"/>
<path d="M280.687 61.8821H281.91C280.907 61.146 280.222 59.9682 280.222 58.6187C280.222 56.4103 282.008 54.6191 284.209 54.6191C286.411 54.6191 288.196 56.4103 288.196 58.6187C288.196 59.9682 287.536 61.146 286.509 61.8821H287.732C287.976 61.8821 288.196 62.0784 288.196 62.3483V104.454V112.723V121.262V134.045V193.449C285.603 194.873 282.913 196.222 280.198 197.523V169.305C279.977 169.354 279.757 169.379 279.513 169.379H254.244H241.353H231.544H218.824H210.997H206.105H136.708C135.461 168.692 133.577 167.759 132.476 167.759C131.473 167.759 131.009 168.642 130.691 169.379H126.997C125.554 168.814 124.086 168.127 123.646 167.759C123.303 167.44 122.398 165.502 121.42 163.195H206.129H209.969H218.678H228.535H239.861H254.269H279.537C279.782 163.195 280.002 163.22 280.222 163.269V134.021V127.788V112.33V104.429V62.3483C280.222 62.0784 280.418 61.8821 280.687 61.8821ZM60.0955 195.977C57.6249 193.891 54.9342 191.462 52.0967 188.714V166.287V62.3483C52.0967 62.1029 52.2924 61.8821 52.5614 61.8821H53.7845C52.7816 61.146 52.0967 59.9682 52.0967 58.6187C52.0967 56.4103 53.8823 54.6191 56.0839 54.6191C58.2854 54.6191 60.071 56.4103 60.071 58.6187C60.071 59.9682 59.4106 61.146 58.3832 61.8821H59.6063C59.8509 61.8821 60.071 62.0784 60.071 62.3483V163.22H96.4938C96.5672 165.207 96.4938 166.459 96.7384 166.827C97.2276 167.563 99.4047 166.778 99.4047 166.778C99.3558 167.317 99.6004 168.348 100.041 169.403H60.0955V195.977ZM105.031 163.195H111.66C112.76 165.232 113.959 167.538 115.109 169.379H108.773C109.703 168.323 110.363 167.391 110.363 167.023C110.363 166.066 104.615 163.711 104.615 163.711C104.786 163.539 104.933 163.392 105.031 163.195Z" fill="#D9CAC7"/>
<path d="M219.142 169.379H218.849H211.021H206.129H136.708C135.46 168.692 133.577 167.759 132.476 167.759C131.473 167.759 131.008 168.643 130.69 169.379H126.997C125.554 168.815 124.086 168.127 123.646 167.759C123.303 167.44 122.398 165.502 121.42 163.196H206.129H209.969H218.677H219.142V169.379ZM110.901 169.379V163.196H111.66C112.76 165.232 113.959 167.539 115.109 169.379H110.901Z" fill="#C9AEA9"/>
<path d="M60.0955 149.037V163.22V169.403V195.977C57.6249 193.891 54.9342 191.462 52.0967 188.714V169.305V166.287V163.269V149.013H60.0955V149.037Z" fill="#C9AEA9"/>
<path d="M288.221 149.037V193.425C285.628 194.848 282.937 196.198 280.222 197.498V169.305V163.269V149.013L288.221 149.037Z" fill="#FFA600"/>
<path d="M284.502 195.388C281.298 185.058 276.308 175.709 267.232 169.109C274.766 175.807 279.781 186.26 282.839 196.222C283.401 195.952 283.964 195.658 284.502 195.388Z" fill="#FFA600"/>
<path d="M294.311 189.941C288.294 175.169 279.096 161.993 265.545 153.307C277.335 162.14 287.12 177.132 292.746 190.898C293.26 190.579 293.798 190.26 294.311 189.941Z" fill="#FFA600"/>
<path d="M280.637 197.302C280.466 182.972 274.351 170.237 263.539 160.104C273.054 170.434 278.778 184.15 278.778 198.185C279.414 197.915 280.026 197.596 280.637 197.302Z" fill="#FFA600"/>
<path d="M55.5215 191.928C58.7259 181.721 63.6915 172.519 72.6933 165.968C65.1103 172.716 60.0713 183.242 57.0136 193.278C56.5244 192.836 56.0107 192.394 55.5215 191.928Z" fill="#FFA600"/>
<path d="M46.9844 183.586C53.0018 170.139 61.8079 158.239 74.3809 150.191C63.3734 158.435 54.127 172.053 48.3542 185.009C47.9139 184.542 47.4491 184.052 46.9844 183.586Z" fill="#FFA600"/>
<path d="M59.2879 195.265C59.1656 180.494 65.3054 167.366 76.3863 156.987C66.4551 167.759 60.6822 182.187 61.1714 196.835C60.5355 196.345 59.9239 195.829 59.2879 195.265Z" fill="#FFA600"/>
<path d="M66.0149 200.639C65.012 185.941 67.7516 171.219 76.4598 158.901C68.9502 171.243 66.7487 187.291 67.9718 201.964C67.3602 201.571 66.6998 201.13 66.0149 200.639Z" fill="#FFA600"/>
<path d="M85.1922 65.2436C85.1922 65.2436 88.7635 57.6371 89.106 57.2936C98.9149 47.4297 102.927 54.8644 106.84 53.9811L105.348 55.4288C105.348 55.4288 114.986 55.9686 116.943 54.619L115.157 57.0973C115.157 57.0973 121.493 56.6065 124.893 57.0482C124.893 57.0482 122.936 58.8639 122.887 59.87C122.985 60.238 122.52 60.9005 122.642 61.2195C123.376 63.2806 125.235 63.575 128.195 63.1579C132.06 64.851 141.355 69.9792 141.355 69.9792L139.594 72.482H147.642C145.562 79.3032 144.364 78.0519 137.686 81.1926C137.686 81.1926 140.817 83.0574 142.383 83.4991C143.924 83.9162 149.085 84.3088 149.085 84.3088C149.085 84.3088 150.21 81.7569 154.735 82.2722C159.261 82.812 166.452 83.9898 172.078 82.9102C177.729 81.8305 184.652 78.4199 187.293 79.0579C189.96 79.6958 192.308 83.5481 192.308 83.5481C192.308 83.5481 215.84 81.5116 218.702 81.8306C221.588 82.1495 230.418 88.1366 230.418 88.1366C246.881 73.8315 247.199 86.6643 257.619 84.7259C257.619 84.7259 253.901 87.1305 249.792 87.4986C262.169 90.7865 264.42 101.46 270.828 103.3C273.813 104.159 277.433 104.478 277.433 104.478C272.834 106.956 272.1 107.619 267.061 107.521C267.061 107.521 276.014 112.232 283.132 112.747C290.275 113.287 292.281 111.471 292.917 111.471C293.553 111.471 288.612 126.537 277.384 128.672C266.156 130.806 260.824 124.402 260.824 124.402L261.778 128.524C261.778 128.524 250.599 122.709 247.297 114.048C243.994 105.386 242.502 95.7921 234.724 95.2523C234.724 95.2523 239.616 104.429 236.754 117.262C233.867 130.07 233.99 143.639 240.912 149.626C240.912 149.626 241.597 150.264 241.132 151.491C240.643 152.718 238.833 157.478 238.833 158.067C238.833 158.656 242.502 176.715 245.266 179.684C248.031 182.678 247.077 183.953 247.077 183.953L245.633 184.763V186.996C245.633 186.996 250.966 189.621 251.651 190.529C252.336 191.437 249.474 197.326 244.508 198.038C244.508 198.038 240.35 192.247 240.178 190.161C239.983 188.076 240.178 186.726 240.178 186.726C240.178 186.726 237.953 187.241 237.732 187.07C237.512 186.898 237.145 181.917 237.047 181.058C236.95 180.199 224.01 153.773 223.202 152.767C222.395 151.761 221.392 151.687 220.316 144.547L209.553 126.93C209.553 126.93 203.487 147.958 216.891 148.939C216.891 148.939 218.604 149.577 218.481 152.35C218.384 155.123 219.117 180.126 219.117 180.126L217.992 181.254C217.992 181.254 222.884 185.205 223.007 186.334C223.105 187.462 218.066 191.732 214.274 191.364C214.274 191.364 211.657 185.965 211.73 183.021L213.589 182.064C213.589 182.064 210.654 181.647 210.507 181.107C210.336 180.567 211.583 177.966 211.241 172.127C210.923 166.311 208.844 158.509 208.844 158.509C208.844 158.509 201.872 158.558 193.042 148.424C193.042 148.424 182.083 141.897 179.197 136.254C179.197 136.254 163.859 142.977 142.138 140.425C142.138 140.425 127.877 147.05 119.365 151.098C119.365 151.098 117.921 152.865 118.288 154.779C118.655 156.693 122.765 167.121 123.621 167.857C124.477 168.593 129.54 170.532 130.054 170.532C130.568 170.532 130.69 167.857 132.451 167.857C134.212 167.857 137.931 170.213 137.931 170.213C137.931 170.213 137.123 176.887 134.359 177.476C131.595 178.065 126.532 178.334 125.994 177.966C125.455 177.598 120.465 173.967 117.946 172.887C115.451 171.808 111.243 161.895 109.115 159.048C106.987 156.227 107.721 154.411 108.479 152.693C109.213 150.976 110.558 148.056 110.558 148.056L117.212 141.873C117.212 141.873 109.238 146.044 104.443 146.461C104.443 146.461 103.367 147.32 103.049 148.596C102.731 149.872 103.098 158.95 104.81 161.257C104.81 161.257 105.813 162.753 104.541 163.809C104.541 163.809 110.289 166.164 110.289 167.121C110.289 168.078 105.862 172.985 103.587 173.157C101.312 173.329 99.2329 168.299 99.3797 166.851C99.3797 166.851 97.2027 167.661 96.7134 166.9C96.2242 166.164 97.0314 162.042 95.3191 155.368C93.6069 148.694 92.6529 145.602 92.9219 144.056C93.191 142.51 95.2213 138.511 96.2731 137.971C97.3494 137.431 102.34 134.978 107.452 129.751C112.564 124.525 112.564 124.525 112.564 124.525C109.189 113.042 113.812 103.742 104.688 92.7495C104.688 92.7495 97.3494 100.65 94.0472 102.687C90.7449 104.724 90.6471 116.796 89.4729 117.483C88.2988 118.17 85.3634 117.532 85.3634 117.532L86.3663 112.305C86.3663 112.305 83.7001 117.704 83.113 117.802C82.5259 117.9 78.4898 116.575 77.1934 113.802C75.9214 111.03 73.671 112.845 73.4753 109.582C73.2551 106.318 77.9517 90.4676 77.8294 87.4741C77.7315 84.4805 77.5114 79.8921 78.1474 77.3157C78.7834 74.7639 79.0035 74.4204 79.0035 74.4204C79.0035 74.4204 76.9732 68.6542 77.8294 65.9797C78.6855 63.3051 79.9575 59.4528 79.9575 59.4528L82.8439 67.8935L85.1922 65.2436Z" fill="#C75856"/>
<path d="M130.078 170.434C130.616 170.434 130.714 167.759 132.475 167.759C134.237 167.759 137.955 170.115 137.955 170.115C137.955 170.115 137.147 176.789 134.383 177.378C134.065 174.605 130.078 170.434 130.078 170.434Z" fill="#2C2245"/>
<path d="M118.778 173.157C118.509 173.01 118.239 172.887 117.995 172.789C115.5 171.709 111.293 161.796 109.164 158.95C107.036 156.128 107.77 154.313 108.528 152.595C109.262 150.878 110.608 147.958 110.608 147.958L117.261 141.774C117.261 141.774 115.157 142.878 112.467 143.983L126.263 127.862L129.271 127.273L133.283 123.372C133.283 123.372 135.093 126.684 132.794 129.138C130.495 131.591 120.759 144.154 112.662 149.062C112.662 149.062 109.409 154.509 109.996 156.325C110.583 158.018 116.674 170.237 118.778 173.157Z" fill="#CC6664"/>
<path d="M227.997 86.542C229.416 87.4499 230.419 88.1124 230.419 88.1124C231.079 87.548 231.715 87.0082 232.302 86.542C233.721 87.8915 235.262 89.2656 236.877 90.6151C243.53 96.185 243.334 99.1049 242.185 100.577C240.497 97.5591 238.271 95.4489 234.748 95.2035C234.748 95.2035 239.641 104.38 236.779 117.213C233.892 130.022 234.015 143.59 240.937 149.577C240.937 149.577 241.622 150.215 241.157 151.442C240.668 152.669 238.858 157.429 238.858 158.018C238.858 158.607 242.527 176.666 245.291 179.635C248.055 182.629 247.101 183.905 247.101 183.905L245.658 184.714V186.947C245.658 186.947 250.991 189.573 251.676 190.481C251.945 190.824 251.676 191.928 250.966 193.204C248.911 190.432 244.435 186.898 244.435 186.898L244.655 183.095C244.655 183.095 237.684 161.257 236.828 159.343C235.971 157.429 238.956 153.037 238.956 153.037C230.639 147.271 228.951 128.255 232.987 113.091C235.14 104.969 231.691 94.5165 227.997 86.542Z" fill="#BA3F3D"/>
<path d="M166.183 139.713C160.068 140.768 152.094 141.406 142.97 140.425L144.291 139.689C153.17 141.063 162.441 139.713 164.496 139.443C167.015 135.149 168.263 129.408 168.874 124.206C169.486 118.832 169.412 114.023 169.339 111.913L170.953 111.864C171.027 114.023 171.1 118.93 170.489 124.402C169.877 129.555 168.654 135.248 166.183 139.713Z" fill="#BA3F3D"/>
<path d="M122.74 133.923C122.715 133.898 117.676 125.531 117.285 116.624H115.744L111.83 113.778L111.757 112.036L116.233 115.005H119.829C127.485 107.816 139.716 83.205 139.74 83.1313L141.184 83.8429C141.159 83.9165 128.537 109.288 120.685 116.403L120.465 116.6H118.9C119.242 123.495 122.667 131.15 124.012 133.898L123.596 134.389L122.74 133.923Z" fill="#BA3F3D"/>
<path d="M108.43 98.6387C108.21 98.1479 107.99 97.6572 107.745 97.191C107.867 97.1419 107.99 97.0929 108.088 97.0438C109.824 96.2341 112.809 92.8234 115.94 88.6521C120.489 82.5915 125.284 75.0096 127.241 71.3536L128.66 72.1142C126.678 75.7948 121.81 83.4748 117.212 89.6091C113.958 93.9767 110.778 97.5591 108.748 98.4915C108.65 98.5405 108.552 98.5896 108.43 98.6387ZM99.0125 98.4424C98.5478 98.8841 98.0585 99.3503 97.5938 99.7674C97.3491 96.9456 95.6858 94.5165 94.585 93.1915C94.0469 95.2035 93.5577 96.7248 93.2397 97.4609C91.8454 100.773 87.7114 112.6 87.687 112.625L86.0236 117.483L85.4121 117.36L86.415 112.134C86.415 112.134 86.0481 112.895 85.5344 113.852L86.1459 112.06C86.1459 112.036 87.4179 108.453 88.7633 104.675L86.8553 100.503C85.6567 99.9637 80.9357 97.829 80.0795 97.6817C79.15 97.5345 76.3125 97.7554 76.3125 97.7799L76.7039 96.185C76.7039 96.185 79.1255 95.9151 80.3486 96.1114C81.3515 96.2831 86.0725 98.3933 87.4424 99.0067L91.8454 96.553C92.7504 94.1975 94.7807 86.6892 95.7836 78.5429C96.4196 73.3411 96.5175 67.4767 95.7103 63.0601L97.3002 62.7656C98.1564 67.3786 98.0341 73.4147 97.3736 78.7392C96.811 83.3767 95.9059 87.8424 95.0498 91.3021C95.9304 92.2591 98.2787 95.0072 99.0125 98.4424ZM89.5705 102.589C90.0597 101.289 90.5245 100.013 90.9158 98.9577L88.5186 100.283L89.5705 102.589Z" fill="#BA3F3D"/>
<path d="M79.0029 72.4575C79.0029 72.4575 80.8131 78.6408 82.085 79.7205C83.357 80.8001 89.2277 84.1617 89.2277 84.1617C89.2277 84.1617 86.7327 78.8126 86.7327 77.4385C86.7327 76.0399 86.7816 73.3163 86.7816 73.3163C86.7816 73.3163 90.622 79.4996 91.3069 79.8922C91.9918 80.2603 96.7862 80.9719 97.6913 80.751C98.5964 80.5302 105.47 74.0279 105.568 73.12C105.666 72.2122 105.788 71.0344 105.788 71.0344C105.788 71.0344 101.996 73.1691 100.406 73.8561C98.8165 74.5432 95.0739 73.9543 95.0739 73.9543C95.0739 73.9543 95.392 66.9122 95.343 65.8816C95.2941 64.8756 94.389 62.9372 94.389 62.9372L91.258 58.0298L88.5917 61.0233L84.8492 70.0038L79.0029 72.4575Z" fill="#BA3F3D"/>
<path d="M207.498 121.875C206.887 116.919 209.602 106.957 195.439 118.391C185.483 126.415 164.153 127.911 152.362 128.083C151.629 125.212 150.577 122.047 149.28 120.673C149.305 129.997 150.724 134.929 142.162 140.327C168.703 143.443 185.556 134.855 207.498 121.875Z" fill="#BA3F3D"/>
<path d="M170.146 126.856C169.584 126.93 169.045 127.003 168.483 127.052C167.773 131.42 166.575 135.886 164.496 139.394C162.441 139.689 153.195 141.014 144.291 139.64L142.97 140.376C151.531 141.308 159.065 141.014 166.135 139.762C168.238 136.033 169.461 131.346 170.146 126.856Z" fill="#B02C2A"/>
<path d="M146.052 84.0144C147.642 84.1862 149.06 84.2843 149.06 84.2843C149.06 84.2843 150.186 81.7325 154.711 82.2478C159.236 82.7876 166.428 83.9654 172.054 82.8857C177.705 81.8061 184.627 78.3955 187.269 79.0334C189.935 79.6714 192.283 83.5237 192.283 83.5237C192.283 83.5237 193.629 83.401 195.708 83.2293C196.271 89.7561 197.2 104.331 194.974 108.11C192.088 113.017 160.264 115.471 156.105 113.974C152.583 112.723 147.446 90.2959 146.052 84.0144Z" fill="#BA3F3D"/>
<path d="M149.061 84.2844C149.061 84.2844 150.186 81.7325 154.711 82.2478C159.236 82.7876 166.428 83.9654 172.054 82.8857C177.705 81.8061 184.627 78.3955 187.269 79.0334C189.935 79.6714 192.284 83.5237 192.284 83.5237C192.284 83.5237 192.014 97.019 189.568 104.478C187.122 111.962 166.257 112.158 164.765 111.52C163.273 110.882 161.78 105.435 158.796 97.6325C155.836 89.8542 149.061 84.2844 149.061 84.2844Z" fill="#2C2245"/>
<path d="M149.061 84.2841C149.061 84.2841 150.112 81.8795 154.295 82.223C158.796 85.1184 165.401 92.6022 164.765 111.569C163.273 110.931 161.78 105.484 158.796 97.6813C155.836 89.854 149.061 84.2841 149.061 84.2841Z" fill="#171330"/>
<path d="M73.7687 110.588C73.6708 110.293 73.5974 109.925 73.5485 109.459C73.3284 106.196 78.0249 90.3448 77.9026 87.3513C77.8048 84.3578 77.5846 79.7694 78.2206 77.193C78.8566 74.6411 79.0768 74.2976 79.0768 74.2976C79.0768 74.2976 80.3977 77.2421 81.2049 78.199C81.7186 78.8124 84.5316 80.7754 86.4885 82.1249C85.9259 83.867 85.0208 85.1675 84.7762 85.3883C79.9818 89.4124 77.976 102.123 75.3587 110.146C75.3587 110.146 74.796 110.563 73.7687 110.588ZM88.2008 76.5305C87.8828 77.7328 87.467 79.2786 87.1 80.5545C86.513 79.2295 85.9504 77.8309 85.8525 77.1439C85.6324 75.6962 85.7547 74.0522 85.7547 74.0522C85.7547 74.0522 87.0022 75.3282 88.2008 76.5305Z" fill="white"/>
<path d="M75.7256 98.1234L75.8968 97.3873C76.4105 97.3383 77.8537 97.1665 77.9516 97.1665H78.9789C78.93 97.3383 78.8811 97.4855 78.8322 97.6572H78.7343L75.7256 98.1234Z" fill="#EEEEEF"/>
<path d="M81.8896 78.837C82.9659 79.7203 84.9962 81.1189 86.5128 82.1494C86.4638 82.2721 86.4394 82.3703 86.3905 82.493C84.7515 81.5115 82.868 80.3583 82.1342 79.7694C82.5011 80.849 83.186 82.1249 84.4825 82.9592C84.4825 82.9592 80.4708 80.8981 80.8867 77.8064C81.3025 74.7147 81.6939 77.6346 81.6939 77.6346C81.6939 77.6346 81.7428 78.1254 81.8896 78.837ZM87.3444 79.6958C86.9775 78.7388 86.7329 77.8555 86.7329 77.4138C86.7329 76.7759 86.7329 75.868 86.7574 75.0583C86.1703 74.4694 85.7545 74.0522 85.7545 74.0522C85.7545 74.0522 85.6566 75.6962 85.8523 77.1439C85.9502 77.8064 86.5128 79.2295 87.0998 80.5545C87.1732 80.2846 87.2466 79.9902 87.3444 79.6958Z" fill="#EEEEEF"/>
<path d="M85.1925 65.2436C85.1925 65.2436 88.7639 57.6371 89.1063 57.2936C98.9153 47.4297 102.927 54.8644 106.841 53.9811L105.349 55.4288C105.349 55.4288 114.986 55.9686 116.943 54.619L115.158 57.0973C115.158 57.0973 121.493 56.6065 124.893 57.0482C123.572 58.4959 123.132 59.0848 123.132 60.9741C123.939 61.6857 132.134 63.207 135.436 65.5625C138.542 67.7463 141.331 69.9792 141.331 69.9792L139.57 72.482H145.93H147.593C147.593 72.482 147.471 74.5185 146.248 76.8986C144.902 79.475 142.823 81.3889 140.181 82.5667L139.912 82.444C138.714 81.8305 137.637 81.1926 137.637 81.1926C137.637 81.1926 133.626 76.9477 128.709 72.5801C123.817 68.2125 110.388 63.5996 104.762 62.7653C100.725 62.1519 95.7109 63.2315 93.1669 63.894C92.3352 62.1028 91.2589 59.9436 91.0632 59.6246C90.7697 59.1338 90.3539 59.5264 90.3539 59.5264C90.3539 61.4403 88.8617 67.2065 88.8617 67.2065C89.9625 70.6662 95.0993 74.1014 98.5728 73.7579C99.6491 73.6597 104.957 70.9852 104.957 70.9852C104.957 70.9852 104.957 71.4023 104.786 72.482C104.615 73.5616 97.7656 79.794 96.9095 80.162C96.0533 80.5301 90.9409 79.3032 90.2071 78.6162C89.4733 77.9292 85.6818 74.0769 85.6818 74.0769C85.6818 74.0769 85.5839 75.7208 85.7796 77.1685C85.9998 78.6162 88.397 83.4745 88.397 83.4745C88.397 83.4745 81.9637 79.2051 81.1564 78.2481C80.3492 77.2912 79.0283 74.3468 79.0283 74.3468L82.8687 67.8199L85.1925 65.2436Z" fill="#2C2245"/>
<path d="M143.704 80.3832C142.701 81.2911 141.551 82.0517 140.255 82.6161L139.986 82.4934C138.787 81.88 137.711 81.242 137.711 81.242C137.711 81.242 133.699 76.9971 128.783 72.6295C123.89 68.262 110.461 63.649 104.835 62.8147C100.799 62.2013 95.7843 63.2809 93.2404 63.9434C93.0447 63.5509 92.849 63.1092 92.6533 62.6921C95.0261 61.3916 99.6003 59.8948 107.452 60.9745C120.294 62.7411 131.253 70.7893 134.335 74.5925C136.586 77.2916 140.548 79.6226 143.704 80.3832Z" fill="#171330"/>
<path d="M79.0772 74.3225C79.0772 74.3225 77.0469 68.5563 77.903 65.8818C78.7592 63.2073 80.0311 59.355 80.0311 59.355L82.9176 67.7957L79.0772 74.3225Z" fill="#BA3F3D"/>
<path d="M209.577 126.856C209.577 126.856 203.511 147.884 216.915 148.866C216.915 148.866 218.628 149.504 218.505 152.276C218.408 155.049 219.141 180.052 219.141 180.052L218.016 181.181C218.016 181.181 222.908 185.131 223.031 186.26C223.129 187.389 218.09 191.658 214.298 191.29C214.298 191.29 211.681 185.892 211.754 182.947L213.613 181.99C213.613 181.99 210.678 181.573 210.531 181.034C210.36 180.494 211.607 177.893 211.265 172.053C210.947 166.238 208.868 158.435 208.868 158.435C208.868 158.435 201.896 158.484 193.066 148.35C193.066 148.35 182.107 141.823 179.221 136.18C187.856 133.53 207.498 121.899 207.498 121.899C208.232 124.132 209.577 126.856 209.577 126.856Z" fill="#C94C4A"/>
<path d="M209.577 126.856C209.577 126.856 203.511 147.884 216.915 148.866C216.915 148.866 218.628 149.504 218.505 152.276C218.408 155.049 219.141 180.052 219.141 180.052L218.016 181.181C218.016 181.181 222.908 185.131 223.031 186.26C223.08 186.702 222.321 187.634 221.147 188.567C219.826 185.892 215.815 181.574 215.815 181.574C215.815 181.574 216.597 158.411 216.793 155.049C217.013 151.712 214.298 151.123 214.298 151.123C203.437 150.951 201.774 136.303 202.116 124.918C205.296 123.127 207.449 121.851 207.449 121.851C208.232 124.133 209.577 126.856 209.577 126.856Z" fill="#BA3F3D"/>
<path d="M218.041 181.181C218.041 181.181 222.933 185.131 223.055 186.26C223.153 187.389 218.114 191.658 214.323 191.29C214.323 191.29 211.705 185.892 211.779 182.948L213.638 181.991L218.041 181.181Z" fill="#2C2245"/>
<path d="M218.041 181.181C218.041 181.181 222.934 185.131 223.056 186.26C223.105 186.702 222.347 187.634 221.172 188.567C219.851 185.892 215.84 181.573 215.84 181.573L218.041 181.181Z" fill="#100C29"/>
<path d="M209.577 126.856C209.577 126.856 206.74 136.695 209.235 143.222L196.882 152.227C195.659 151.123 194.387 149.847 193.066 148.326C193.066 148.326 182.107 141.799 179.221 136.156C187.856 133.506 207.498 121.875 207.498 121.875C208.232 124.132 209.577 126.856 209.577 126.856Z" fill="#B02C2A"/>
<path d="M117.261 141.774C117.261 141.774 109.286 145.946 104.492 146.363C104.492 146.363 103.416 147.222 103.098 148.498C102.78 149.773 103.147 158.852 104.859 161.159C104.859 161.159 105.862 162.655 104.59 163.71C104.59 163.71 110.338 166.066 110.338 167.023C110.338 167.98 105.911 172.887 103.636 173.059C101.337 173.231 99.2818 168.201 99.4286 166.753C99.4286 166.753 97.2515 167.563 96.7623 166.802C96.2731 166.066 97.0803 161.944 95.368 155.27C93.6557 148.596 92.7017 145.504 92.9708 143.958C93.2399 142.412 95.2702 138.413 96.322 137.873C97.3983 137.333 102.388 134.88 107.501 129.653C112.613 124.427 112.613 124.427 112.613 124.427C116.233 129.015 124.012 133.923 124.012 133.923L117.261 141.774Z" fill="#C94C4A"/>
<path d="M117.261 141.775C117.261 141.775 109.286 145.946 104.492 146.363C104.492 146.363 103.415 147.222 103.097 148.498C102.779 149.774 103.146 158.852 104.859 161.159C104.859 161.159 105.862 162.656 104.59 163.711C104.59 163.711 110.338 166.066 110.338 167.023C110.338 167.318 109.898 168.029 109.237 168.839C106.84 166.9 103.024 165.011 103.024 165.011C103.024 165.011 100.284 152.988 100.089 149.013C99.8686 145.013 103.146 140.744 103.146 140.744C108.675 138.904 115.793 134.242 120.098 131.175C122.3 132.819 124.036 133.898 124.036 133.898L117.261 141.775Z" fill="#BA3F3D"/>
<path d="M104.59 163.711C104.59 163.711 110.338 166.066 110.338 167.023C110.338 167.98 105.911 172.888 103.636 173.059C101.336 173.231 99.2815 168.201 99.4283 166.753C99.4283 166.753 103.954 164.938 104.59 163.711Z" fill="#2C2245"/>
<path d="M104.59 163.711C104.59 163.711 110.338 166.066 110.338 167.023C110.338 167.048 110.338 167.048 110.338 167.072C110.338 167.097 110.338 167.097 110.338 167.121C110.338 167.146 110.338 167.17 110.314 167.17C110.314 167.219 110.289 167.244 110.265 167.293C110.265 167.318 110.24 167.342 110.24 167.367C110.24 167.391 110.216 167.416 110.216 167.44C110.216 167.465 110.191 167.489 110.167 167.514V167.538C110.143 167.563 110.143 167.588 110.118 167.612V167.637C110.094 167.661 110.094 167.686 110.069 167.71V167.735C110.045 167.759 110.045 167.784 110.02 167.808L109.996 167.833L109.947 167.907L109.922 167.931L109.873 168.005L109.849 168.029L109.8 168.103L109.776 168.127L109.727 168.201L109.702 168.225L109.653 168.299L109.629 168.348L109.58 168.422L109.531 168.471L109.507 168.495L109.458 168.569L109.433 168.618L109.409 168.667L109.384 168.692L109.311 168.765L109.286 168.79C106.889 166.851 103.073 164.962 103.073 164.962C103.758 164.569 104.37 164.103 104.59 163.711Z" fill="#100C29"/>
<path d="M117.261 141.774C117.261 141.774 114.668 143.124 111.561 144.375L103.587 133.236C104.859 132.23 106.18 131.052 107.525 129.653C112.638 124.427 112.638 124.427 112.638 124.427C116.258 129.015 124.037 133.923 124.037 133.923L117.261 141.774Z" fill="#B02C2A"/>
<path d="M230.418 88.1124C246.88 73.8073 247.198 86.6401 257.619 84.7017C257.619 84.7017 253.901 87.1063 249.791 87.4744C262.169 90.7623 264.419 101.436 270.828 103.276C273.812 104.135 277.432 104.454 277.432 104.454C272.834 106.932 272.1 107.595 267.061 107.497C267.061 107.497 276.014 112.208 283.132 112.723C290.275 113.263 292.28 111.447 292.916 111.447C293.552 111.447 288.611 126.513 277.384 128.647C266.156 130.782 260.823 124.378 260.823 124.378L261.777 128.5C261.777 128.5 250.598 122.685 247.296 114.023C243.994 105.362 242.502 95.7679 234.723 95.2281C233.476 92.0873 230.418 88.1124 230.418 88.1124Z" fill="#2C2245"/>
<path d="M292.868 111.471C292.893 111.471 292.892 111.471 292.917 111.471C293.406 111.471 290.569 120.501 284.038 125.556C286.117 125.04 288.098 124.304 289.517 123.347L291.669 121.507C288.441 124.967 285.334 126.611 281.445 127.224C280.197 127.887 278.852 128.377 277.384 128.647C266.156 130.782 260.824 124.378 260.824 124.378L261.215 126.022C262.927 127.273 265.007 128.132 267.526 128.893C265.08 128.5 263.123 128.009 261.509 127.2L261.802 128.475C261.802 128.475 250.623 122.66 247.321 113.999C244.019 105.337 242.527 95.7432 234.748 95.2034C234.137 93.6575 233.085 91.9154 232.155 90.5413C237.17 89.9279 244.508 90.8849 249.009 99.7182C256.347 114.146 278.925 130.169 287.658 120.648C290.593 117.458 292.134 114.269 292.868 111.471Z" fill="#100C29"/>
<path d="M230.418 88.1123C230.418 88.1123 232.399 86.5419 234.332 84.9961C235.922 88.0878 237.805 92.3081 238.661 96.5285C237.561 95.7924 236.264 95.3262 234.723 95.228C233.476 92.0873 230.418 88.1123 230.418 88.1123Z" fill="#100C29"/>
<path d="M88.9102 67.1823C88.9102 67.1823 90.4023 61.4161 90.4023 59.5022C90.4023 59.5022 90.8181 59.1342 91.1117 59.6004V59.6249V59.6494V59.674V59.6985L91.1361 59.7231V59.7476L91.1606 59.7721L91.1851 59.7967V59.8212V59.8457L91.2095 59.8948L91.234 59.9439L91.2584 59.9684V59.993L91.2829 60.042V60.0666L91.3074 60.0911L91.3318 60.1402L91.3563 60.1893L91.3807 60.2138L91.4052 60.2383L91.4297 60.2874L91.4541 60.3365L91.4786 60.3856V60.4101L91.503 60.4592V60.4837L91.5275 60.5328L91.552 60.5818L91.5764 60.6555L91.6009 60.68L91.6254 60.7291L91.6498 60.8027L91.6743 60.8763L91.6987 60.9254L91.7232 60.9499L91.7477 61.0235V61.048L91.7721 61.0971L91.7966 61.1462V61.1707L91.8455 61.2443L91.87 61.2689L91.8944 61.318L91.9189 61.3916L91.9678 61.4652L91.9923 61.5143L92.0167 61.5633L92.0657 61.6369L92.0901 61.7105L92.1146 61.7596V61.7842L92.1635 61.8578L92.188 61.8823L92.2124 61.9314L92.2369 62.005L92.2858 62.0786L92.3103 62.1277L92.3347 62.1768L92.3836 62.2504L92.4326 62.324L92.457 62.3731L92.4815 62.3976L92.5304 62.4957V62.5203L92.5549 62.5939L92.5793 62.6675V62.692L92.6283 62.7902L92.6527 62.8147L92.6772 62.8638L92.7261 62.9619L92.775 63.0601L92.7995 63.1092L92.8239 63.1337L92.8729 63.2318V63.2564L92.8973 63.33L92.9218 63.4036V63.4281L92.9707 63.5017L92.9952 63.5263L93.0196 63.5754L93.0686 63.649L93.1175 63.7226L93.142 63.7717L93.1664 63.8207C93.6556 64.8758 94.047 65.7837 94.0959 66.1027C94.2672 66.9615 93.7779 72.286 93.7779 72.286C93.7779 72.286 93.6312 72.2615 93.3866 72.1878C91.3318 70.9855 89.4972 69.0962 88.9102 67.1823Z" fill="#D96664"/>
<path d="M104.737 92.627C113.861 103.62 109.237 112.919 112.613 124.402C116.233 128.991 124.012 133.898 124.012 133.898L129.271 127.273C110.95 118.17 120.367 90.9585 103.66 74.0034C103.342 74.3469 103 74.715 102.608 75.1076C106.791 82.2969 104.737 92.627 104.737 92.627Z" fill="#BA3F3D"/>
<path d="M122.007 132.573C123.156 133.358 123.939 133.874 124.012 133.923C123.327 132.5 122.104 129.825 121.004 126.611C120.221 125.948 119.463 125.261 118.729 124.599C119.805 128.083 121.175 130.954 122.007 132.573ZM117.016 117.385C116.943 116.747 116.87 116.084 116.821 115.397L111.023 111.521L111.097 113.263L117.016 117.385Z" fill="#B02C2A"/>
<path d="M107.745 97.1911C107.819 97.3628 107.916 97.51 107.99 97.6818L108.014 97.7309C108.088 97.8781 108.137 98.0008 108.21 98.148C108.234 98.1971 108.259 98.2707 108.283 98.3198C108.332 98.4179 108.381 98.5406 108.43 98.6387C108.528 98.5897 108.65 98.5406 108.748 98.4915C109.751 98.0253 111.047 96.9211 112.466 95.3753C112.368 94.7128 112.246 94.0503 112.124 93.3633C110.509 95.2281 109.066 96.5531 108.063 97.0193C107.965 97.0684 107.867 97.142 107.745 97.1911Z" fill="#B02C2A"/>
<path d="M78.0498 111.766C78.0498 111.766 78.1232 109.778 79.3707 109.165C80.6182 108.551 81.2787 108.576 81.7434 108.993C82.2082 109.435 79.7621 112.772 78.0498 111.766Z" fill="#BA3F3D"/>
<path d="M94.5607 91.1304C95.4902 92.0873 97.9853 95.0317 98.5968 98.6878C100.162 98.6387 104.149 98.3933 107.599 96.7984C109.335 95.9887 112.32 92.578 115.451 88.4068C120 82.3461 124.844 74.6906 126.801 71.0591C127.265 71.3781 127.706 71.6725 128.097 71.9915C126.067 75.7211 121.272 83.3031 116.723 89.3882C113.445 93.7558 110.289 97.3382 108.259 98.2706C103.513 100.43 97.8874 100.307 97.8629 100.307L97.1291 100.283L97.0557 99.5711C96.8111 96.7493 95.1477 94.3202 94.047 92.9952C93.5088 95.0072 93.0196 96.5285 92.7016 97.2646C91.3073 100.577 87.1734 112.404 87.1489 112.428L85.5345 117.066L84.0179 116.526L85.6323 111.889C85.6323 111.864 86.9043 108.282 88.2497 104.503L86.3417 100.332C85.1431 99.7919 80.4221 97.6572 79.566 97.51C78.6364 97.3628 75.75 97.9271 75.75 97.9271L76.1414 96.3077C76.1414 96.3077 78.612 95.6942 79.8595 95.9151C80.8624 96.0868 85.5834 98.197 86.9532 98.8104L91.3563 96.3567C92.1879 94.1729 94.0225 87.4989 95.0744 80.0151C95.7348 80.1133 96.3219 80.1869 96.6888 80.1623C96.1017 84.26 95.319 88.0878 94.5607 91.1304ZM95.7104 73.3165C95.8816 69.8813 95.8327 66.2989 95.2945 63.379C95.5391 63.33 95.8082 63.2809 96.0773 63.2073L96.86 63.0601C97.4471 66.2253 97.5205 70.004 97.3003 73.6846C96.7867 73.66 96.224 73.4883 95.7104 73.3165ZM89.0814 102.368C89.5706 101.068 90.0354 99.7919 90.4267 98.7368L88.0295 100.062L89.0814 102.368Z" fill="#171330"/>
<path d="M122.227 132.868C122.202 132.843 117.163 124.476 116.772 115.569H115.231L111.072 112.551L110.999 110.809L115.72 113.95H119.316C126.972 106.76 139.203 82.1498 139.227 82.0762L140.67 82.7877C140.646 82.8614 128.024 108.233 120.172 115.348L119.952 115.545H118.386C118.802 124.108 124.012 133.874 124.037 133.898L122.227 132.868Z" fill="#171330"/>
<path d="M169.951 111.717C170.024 113.876 170.097 118.783 169.486 124.255C168.85 129.776 167.48 135.886 164.691 140.474L164.496 140.793L164.104 140.842C164.08 140.842 151.018 142.486 140.866 140.916L143.288 139.566C152.167 140.94 161.438 139.591 163.493 139.321C166.012 135.027 167.26 129.285 167.871 124.083C168.483 118.71 168.41 113.901 168.336 111.766L169.951 111.717Z" fill="#171330"/>
<path d="M186.291 129.948L186.315 129.997V130.021V130.046V130.07V130.095V130.119V130.144V130.169V130.193V130.218V130.242V130.267V130.291V130.316V130.34V130.365V130.389V130.414V130.438V130.463V130.488V130.512V130.537V130.561V130.586V130.61V130.635V130.659L186.34 130.733V130.757L186.388 130.929V130.954L186.413 131.003L186.437 131.052V131.076V131.101V131.125V131.15V131.175V131.199V131.224L186.462 131.273V131.297L186.486 131.346V131.371V131.395V131.42V131.444V131.469V131.494V131.518V131.543V131.567V131.592V131.616C184.383 130.169 181.888 129.432 179.442 130.119C179.295 130.169 179.172 130.193 179.075 130.242C178.267 130.537 177.656 131.003 177.216 131.616L177.387 129.948L177.313 129.825C177.534 129.653 177.778 129.531 178.023 129.383L170.88 116.182L169.828 113.95L168.752 111.668C168.752 111.668 168.776 110.932 168.801 109.68L179.172 128.942C181.863 128.377 184.211 128.844 186.291 129.948Z" fill="#1B1B5C"/>
<path d="M174.843 141.897C174.843 141.872 171.442 131.91 176.8 129.236L167.333 111.766C167.749 111.766 168.214 111.766 168.703 111.766L177.949 128.819C180.811 128.034 183.722 128.917 186.119 130.635C188.492 132.328 190.375 134.83 191.207 137.26C191.281 137.456 191.329 137.628 191.378 137.775L191.55 138.388L188.443 139.149C188.516 139.026 188.59 138.879 188.59 138.756C188.614 138.585 188.59 138.29 188.541 137.922H188.516V137.873L189.984 137.505C189.201 135.346 187.514 133.137 185.385 131.616C183.257 130.095 180.664 129.285 178.169 129.997C178.023 130.046 177.9 130.07 177.802 130.119C173.399 131.641 175.185 138.953 175.772 141.014L176.481 140.842C176.653 141.161 176.946 141.504 177.411 141.848L174.989 142.437L174.843 141.897Z" fill="#171330"/>
<path d="M83.26 72.6785C80.9606 77.1933 80.08 79.8188 84.3363 82.7878C79.4196 79.9905 78.8814 76.1137 81.352 71.2554L83.26 72.6785Z" fill="#2C2245"/>
<path d="M85.5104 67.1821C83.3822 65.1701 84.0427 61.7104 85.755 59.5757C85.1434 61.465 84.7765 64.3359 86.4399 65.9308L85.5104 67.1821Z" fill="#2C2245"/>
<path d="M93.998 55.0118C94.1448 51.2085 97.496 50.7178 100.48 50.6196C98.0341 51.0613 96.3463 51.9692 96.1996 55.1344L93.998 55.0118Z" fill="#2C2245"/>
<path d="M103.93 54.0549C106.327 54.0794 110.118 54.153 111.195 51.4785C110.412 54.6192 107.648 55.9442 105.006 55.9197L103.93 54.0549Z" fill="#2C2245"/>
<path d="M121.64 59.4038C124.795 57.4654 128.88 59.1339 128.513 63.2807C128.342 59.5265 124.795 59.5265 122.104 61.146L121.64 59.4038Z" fill="#2C2245"/>
<path d="M137.563 71.5253C139.276 71.648 142.847 71.9179 144.29 70.6665C142.798 72.5068 139.814 73.1447 137.735 72.9975L137.563 71.5253Z" fill="#2C2245"/>
<path d="M140.719 76.6046C144.144 76.8745 147.911 78.1013 149.305 74.6416C148.229 78.6411 144.29 79.2791 140.572 78.9846L140.719 76.6046Z" fill="#2C2245"/>
<path d="M245.805 86.9343C252.752 84.8486 255.687 85.2167 261.582 89.1181C256.641 87.8176 251.626 87.9158 246.71 89.388L245.805 86.9343Z" fill="#2C2245"/>
<path d="M265.569 105.509C268.774 106.613 272.541 107.398 275.843 108.061C270.535 109.508 269.825 109.729 264.615 107.938L265.569 105.509Z" fill="#2C2245"/>
<path d="M229.66 87.6213C232.253 84.5296 232.938 83.769 236.803 81.6343C234.528 83.5972 232.816 85.4866 230.981 87.6704C230.81 87.8176 230.614 87.9894 230.418 88.1366C230.418 88.112 230.125 87.9403 229.66 87.6213Z" fill="#2C2245"/>
<path d="M130.494 71.2305C133.21 73.1934 135.974 74.6166 139.3 74.9601C135.118 75.3772 133.283 74.4939 129.858 72.0157L130.494 71.2305Z" fill="#171330"/>
<path d="M77.5111 112.625C77.1931 111.913 76.6305 111.594 75.3829 111.226C74.8693 111.079 74.5513 110.785 74.38 110.515C74.2088 110.539 74.0131 110.564 73.793 110.564C74.429 112.281 76.2146 111.275 77.3154 113.655C78.5874 116.428 82.6479 117.778 83.235 117.655C83.2839 117.655 83.3573 117.606 83.4307 117.532C79.8838 117.164 77.8291 113.336 77.5111 112.625Z" fill="white"/>
<rect width="8.62849" height="8.64184" rx="2" transform="matrix(0.999307 -0.0372238 0.0398997 0.999204 210.684 163.082)" fill="white" fill-opacity="0.6"/>
<path d="M212.706 162.262L217.047 162.1C217.79 162.072 218.456 162.346 218.982 162.833C219.476 163.292 219.801 163.965 219.831 164.71L220.004 169.057C220.034 169.801 219.763 170.468 219.307 170.991C218.851 171.486 218.18 171.839 217.437 171.866L213.096 172.028C212.352 172.056 211.686 171.782 211.161 171.295C210.666 170.836 210.312 170.164 210.282 169.419L210.108 165.072C210.078 164.327 210.35 163.661 210.835 163.136C211.29 162.612 211.962 162.289 212.706 162.262ZM217.075 163.56L212.734 163.722C212.407 163.734 212.086 163.895 211.886 164.111C211.686 164.327 211.551 164.66 211.564 164.988L211.738 169.335C211.751 169.663 211.911 169.955 212.129 170.185C212.345 170.386 212.678 170.523 213.005 170.511L217.346 170.349C217.673 170.337 217.965 170.177 218.194 169.959C218.394 169.743 218.53 169.41 218.517 169.083L218.343 164.735C218.33 164.408 218.168 164.086 217.952 163.885C217.735 163.684 217.432 163.547 217.075 163.56Z" fill="url(#paint0_linear_668_19604)"/>
<g clip-path="url(#clip0_668_19604)">
<path d="M139.178 67.1085L139.154 67.084L139.129 67.0595H139.105H139.08L139.056 67.0349L139.031 67.0104L139.08 67.0349L139.105 67.0595L139.129 67.084L139.154 67.1085H139.178ZM138.273 66.4215L137.637 57.9808C138.762 58.0053 140.303 57.9808 141.82 57.8581C144.682 57.6373 144.388 58.6433 145.245 59.6002C146.101 60.5572 146.737 59.8701 146.737 59.8701L141.257 47.16C141.257 47.16 138.2 57.3919 137.613 57.8336L133.846 8.71054C133.846 8.71054 135.607 0.5888 136.39 0.441578C137.172 0.269819 149.599 -0.319068 150.186 0.441578C150.773 1.17769 154.613 5.12814 154.613 5.79064C154.613 6.45314 154.295 10.7471 154.295 10.7471L153.586 10.9189L152.877 17.1513C152.877 17.1513 166.819 17.8383 167.945 18.28C169.07 18.6971 174.231 22.1077 175.503 27.1133C176.775 32.1433 179.759 46.9146 181.839 49.3192C183.918 51.7239 184.774 53.2697 184.774 53.2697L184.823 55.8951C184.823 55.8951 190.449 62.741 188.81 70.8872C188.345 73.2919 187.171 76.1627 185.777 79.0335C184.896 81.021 182.793 84.4071 180.909 87.2779C179.026 90.1733 177.362 92.5534 177.362 92.5534L177.949 95.0071L179.906 94.59C179.906 94.59 180.077 97.2154 182.352 106.392C182.597 107.423 182.866 108.478 183.135 109.558C183.355 110.49 183.6 111.422 183.82 112.33C185.679 119.789 187.391 126.807 187.391 126.807L185.728 127.568L185.777 128.745C185.777 128.745 186.462 130.684 187.147 132.892C187.905 135.297 188.663 137.996 188.541 138.781C188.321 140.278 183.673 141.578 183.673 141.578C182.744 141.922 181.814 142.192 180.909 142.363C180.836 142.388 180.787 142.388 180.713 142.388L180.616 142.413L180.518 142.437L180.42 142.462C180.346 142.462 180.298 142.486 180.224 142.486H180.126L180.028 142.511H179.931H179.833H179.735H179.637C179.564 142.511 179.515 142.511 179.466 142.511H179.368H179.27C179.246 142.511 179.221 142.511 179.172 142.511C179.123 142.511 179.123 142.511 179.074 142.511C179.05 142.511 179.026 142.511 179.001 142.511C178.977 142.511 178.952 142.511 178.903 142.511C178.879 142.511 178.854 142.511 178.83 142.511C178.805 142.511 178.781 142.511 178.756 142.511C178.732 142.511 178.708 142.511 178.683 142.486C178.659 142.486 178.634 142.486 178.61 142.462C178.585 142.462 178.561 142.462 178.536 142.462C178.512 142.462 178.487 142.437 178.463 142.437C178.438 142.437 178.414 142.437 178.39 142.413C178.365 142.413 178.341 142.388 178.316 142.388C178.292 142.388 178.267 142.363 178.243 142.363C178.218 142.363 178.194 142.339 178.169 142.339C178.145 142.339 178.121 142.314 178.096 142.314C178.072 142.314 178.047 142.29 178.023 142.29C177.998 142.29 177.998 142.265 177.974 142.265C177.949 142.265 177.925 142.241 177.9 142.241C177.876 142.216 177.876 142.216 177.851 142.216C177.827 142.216 177.827 142.192 177.803 142.192C177.778 142.192 177.778 142.167 177.754 142.167C175.21 140.572 176.579 138.977 176.579 138.977C176.579 138.977 176.751 138.168 176.971 137.039L177.656 130.095L170.22 114.048L169.143 111.766C169.143 111.766 169.192 110.637 169.192 108.699C169.192 105.828 169.07 101.166 168.507 95.8413C167.553 86.9835 162.857 84.7261 162.857 84.7261L163.37 83.1803L167.162 74.3715L160.484 82.9103C158.331 82.6895 156.35 82.3951 154.711 82.2233C150.186 81.6835 149.061 84.2353 149.061 84.2353C149.061 84.2353 143.899 83.8673 142.358 83.4502C141.771 83.2784 140.988 82.9349 140.206 82.5423C142.75 81.4136 144.755 79.5979 146.101 77.1932L146.174 77.1687L146.272 76.8988C147.495 74.5187 147.617 72.4821 147.617 72.4821H145.954L147.299 68.7525C147.299 68.7525 142.97 69.1942 140.328 69.1942C139.447 69.1942 138.738 69.1206 138.469 68.9734L138.273 66.4215Z" fill="white"/>
<path d="M139.18 67.1096L139.154 67.084L139.18 67.1096Z" fill="white"/>
<path d="M139.105 67.0596L139.154 67.0838H139.13L139.105 67.0596Z" fill="white"/>
<path d="M139.105 67.0596L139.131 67.0852L139.105 67.0596Z" fill="white"/>
<path d="M139.081 67.0103V67.0359L139.056 67.0103H139.081Z" fill="white"/>
<path d="M139.081 67.0359L139.056 67.0103L139.081 67.0359Z" fill="white"/>
<path d="M139.031 66.9856V67.0098L139.007 66.9856V66.9614L139.031 66.9856Z" fill="white"/>
<path d="M139.006 66.9612L138.958 66.937L139.006 66.9612Z" fill="white"/>
<path d="M138.102 66.2742L138.077 66.2496L138.028 66.2251L138.102 66.2742Z" fill="white"/>
<path d="M137.613 57.8091L137.637 57.9808C137.539 57.9808 137.466 57.9808 137.393 57.9808C137.466 57.9072 137.515 57.8582 137.588 57.8336C137.588 57.8091 137.588 57.8091 137.613 57.8091Z" fill="white"/>
</g>
<path d="M184.847 55.8706C184.847 55.8706 190.474 62.741 188.835 70.8872C188.345 73.2919 187.196 76.1627 185.801 79.0335C184.04 83.0085 177.387 92.5534 177.387 92.5534L177.534 93.1913L177.974 95.0071L179.955 94.5899C179.955 94.5899 180.004 95.277 180.347 97.1663L175.821 97.1909L175.723 96.7492C173.913 98.0251 171.296 99.6446 168.874 100.184C168.825 99.62 168.776 99.0311 168.728 98.4423C171.296 97.927 173.644 96.4793 175.381 95.1052L174.647 91.4983C174.647 91.4983 184.016 76.2363 184.774 66.7159C185.141 62.1766 184.089 58.766 182.891 56.435C184.089 56.0669 184.847 55.8706 184.847 55.8706Z" fill="#EEEEEF"/>
<path d="M167.162 74.3962L160.484 82.9351C158.331 82.7142 156.35 82.4198 154.711 82.248C150.186 81.7082 149.061 84.2846 149.061 84.2846C149.061 84.2846 143.899 83.9165 142.358 83.4749C141.698 83.3031 140.744 82.8615 139.888 82.3952L139.937 82.4198L140.206 82.5425C142.848 81.3647 144.951 79.4508 146.272 76.8744C147.495 74.4943 147.617 72.4578 147.617 72.4578H145.954L147.299 68.7282C147.299 68.7282 166.012 66.3971 168.238 65.4402C168.776 65.2194 169.339 63.6735 169.877 61.3916L171.394 64.5323L167.162 74.3962Z" fill="#EEEEEF"/>
<path d="M177.974 94.9826L179.955 94.5654C179.955 94.5654 180.126 97.1909 182.401 106.368C182.67 107.398 182.915 108.453 183.184 109.533C183.404 110.465 183.649 111.398 183.869 112.306C185.728 119.765 187.44 126.782 187.44 126.782L185.801 127.519L185.85 128.696C185.85 128.696 186.535 130.635 187.22 132.843C187.978 135.248 188.736 137.947 188.614 138.732C188.394 140.229 183.746 141.529 183.746 141.529C182.817 141.873 181.863 142.143 180.982 142.314C180.909 142.339 180.836 142.339 180.787 142.339L180.689 142.363L180.591 142.388L180.493 142.413C180.42 142.413 180.371 142.437 180.297 142.437H180.2H180.102H180.004H179.906H179.808H179.71C179.661 142.437 179.588 142.437 179.539 142.437H179.441H179.343C179.319 142.437 179.294 142.437 179.246 142.437C179.221 142.437 179.197 142.437 179.172 142.437C179.148 142.437 179.123 142.437 179.099 142.437C179.074 142.437 179.05 142.437 179.025 142.437C179.001 142.437 178.976 142.437 178.952 142.437C178.928 142.437 178.903 142.437 178.879 142.437C178.854 142.437 178.83 142.437 178.805 142.437C178.781 142.437 178.756 142.437 178.732 142.437C178.707 142.437 178.683 142.437 178.658 142.413C178.634 142.413 178.61 142.413 178.585 142.388C178.561 142.388 178.536 142.388 178.512 142.363C178.487 142.363 178.463 142.363 178.438 142.339C178.414 142.339 178.389 142.314 178.365 142.314C178.34 142.314 178.316 142.29 178.292 142.29C178.267 142.29 178.243 142.265 178.218 142.265C178.194 142.265 178.169 142.241 178.145 142.241C178.12 142.241 178.096 142.216 178.071 142.216C178.047 142.216 178.022 142.192 177.998 142.192C177.974 142.192 177.949 142.167 177.949 142.167C177.925 142.167 177.9 142.143 177.9 142.143C177.876 142.143 177.851 142.118 177.851 142.118C175.307 140.523 176.677 138.904 176.677 138.904C176.677 138.904 176.848 138.094 177.068 136.965L177.753 130.021L170.219 114.048L169.143 111.766C169.143 111.741 169.363 106.908 168.898 100.184C173.13 99.2275 177.974 94.9826 177.974 94.9826Z" fill="#4D4D97"/>
<path d="M188.565 137.873C188.614 138.241 188.638 138.536 188.614 138.708C188.394 140.204 183.746 141.505 183.746 141.505C182.817 141.848 181.863 142.118 180.982 142.29C180.909 142.314 180.835 142.314 180.786 142.314L180.689 142.339L180.591 142.364L180.493 142.388C180.419 142.388 180.371 142.413 180.297 142.413H180.199H180.101H180.004H179.906H179.808H179.71C179.661 142.413 179.588 142.413 179.539 142.413H179.441H179.343C179.319 142.413 179.294 142.413 179.245 142.413C179.221 142.413 179.196 142.413 179.172 142.413C179.147 142.413 179.123 142.413 179.099 142.413C179.074 142.413 179.05 142.413 179.025 142.413C179.001 142.413 178.976 142.413 178.952 142.413C178.927 142.413 178.903 142.413 178.878 142.413C178.854 142.413 178.829 142.413 178.805 142.413C178.781 142.413 178.756 142.413 178.732 142.413C178.707 142.413 178.683 142.413 178.658 142.388C178.634 142.388 178.609 142.388 178.585 142.364C178.56 142.364 178.536 142.364 178.511 142.339C178.487 142.339 178.463 142.339 178.438 142.314C178.414 142.314 178.389 142.29 178.365 142.29C178.34 142.29 178.316 142.265 178.291 142.265C178.267 142.265 178.242 142.241 178.218 142.241C178.193 142.241 178.169 142.216 178.145 142.216C178.12 142.216 178.096 142.192 178.071 142.192C178.047 142.192 178.022 142.167 177.998 142.167C177.973 142.167 177.949 142.143 177.949 142.143C177.924 142.143 177.9 142.118 177.9 142.118C177.875 142.118 177.851 142.094 177.851 142.094C175.307 140.499 176.677 138.879 176.677 138.879C178.463 138.708 181.765 138.781 184.847 138.781C186.315 138.806 187.611 138.364 188.565 137.873Z" fill="#252559"/>
<path d="M150.186 0.416992C150.773 1.1531 154.613 5.12809 154.613 5.76605C154.613 6.40402 154.295 10.7225 154.295 10.7225L153.61 10.9188L133.846 13.4216C133.846 13.4216 130.299 13.2498 129.809 11.385C129.32 9.52021 133.846 8.68595 133.846 8.68595C133.846 8.68595 135.607 0.564214 136.39 0.416992" fill="#63639A"/>
<path d="M150.185 0.417002C150.773 1.15311 154.613 5.1281 154.613 5.76606C154.613 6.18319 154.466 8.19522 154.393 9.52022H150.87C150.968 4.88273 151.139 4.04847 148.693 0.122559" fill="#4D4D97"/>
<path d="M134.482 18.182C134.702 19.3598 135.705 23.4084 135.705 23.4084C135.705 23.4084 138.151 30.4505 138.787 30.6713C139.423 30.8922 141.502 30.9412 141.502 30.9412C141.502 30.9412 141.82 33.076 146.199 32.8061C150.553 32.5361 152.167 27.9477 152.583 23.8255C152.999 19.7033 152.901 17.1269 152.901 17.1269C153.219 17.5931 154.173 12.4894 153.586 11.1154L153.61 10.8945L133.846 13.3973C133.846 13.4218 134.262 17.0042 134.482 18.182Z" fill="#F8B1A7"/>
<path d="M134.482 18.1818C134.702 19.3596 135.705 23.4082 135.705 23.4082C135.705 23.4082 138.151 30.4503 138.787 30.6711C138.836 30.6957 138.909 30.6957 138.983 30.7202C138.983 30.7202 136.781 26.3526 135.852 22.8684C135.118 20.0957 134.433 15.2619 134.164 13.3726L133.821 13.4216C133.846 13.4216 134.262 17.004 134.482 18.1818Z" fill="white"/>
<path d="M153.732 11.8515C153.708 11.557 153.659 11.2871 153.561 11.1154L153.586 10.8945L149.696 11.3853C149.794 11.9496 149.99 12.2931 149.99 12.2931L152.803 11.9496C152.999 12.0968 153.219 12.3177 153.39 12.6121C153.586 12.9556 153.708 13.3973 153.659 13.9862C153.757 13.2255 153.781 12.4649 153.732 11.8515Z" fill="#E98786"/>
<path d="M150.088 11.3604L133.846 13.4215L134.188 13.3724C134.237 13.6668 134.286 14.0594 134.359 14.5011L147.52 12.4645L149.354 15.3844L149.77 15.4335L150.088 11.3604Z" fill="#E98786"/>
<path d="M137.759 43.406C136.928 41.8356 134.261 31.6283 132.745 25.7148C131.864 26.8435 131.13 27.2607 131.13 30.5486C131.13 33.7875 127.192 55.1101 125.896 61.9069C128.806 62.7411 133.234 63.9435 135.46 65.5138L135.484 65.5384L137.368 61.8333C137.368 61.8333 137.05 59.674 138.126 59.674C138.2 59.6004 138.273 59.5513 138.322 59.5268C138.86 59.4286 141.991 48.8532 141.991 48.8532C141.991 48.8532 138.933 45.6389 137.759 43.406Z" fill="#EEEEEF"/>
<path d="M132.843 26.132L132.745 25.7148C131.864 26.8435 131.13 27.2607 131.13 30.5486C131.13 33.7875 127.192 55.1101 125.896 61.9069C126.165 61.9805 126.483 62.0786 126.776 62.1522C127.437 58.03 128.733 50.2518 129.76 45.7125C131.204 39.3574 131.522 31.3829 131.619 29.9843C131.693 28.6347 131.546 27.9232 132.843 26.132Z" fill="white"/>
<path d="M160.606 31.53C160.19 29.3216 159.97 26.2054 161.291 23.9726C163.517 20.1203 168.629 20.1203 170.88 22.0587C173.106 23.9726 175.307 28.0457 174.549 33.3702C174.402 34.3517 174.109 35.186 173.668 35.9221L173.693 35.7749C174.329 30.6466 173.375 22.8439 167.724 22.7457C162.172 22.6476 160.851 26.8434 160.606 31.53Z" fill="#4D4D97"/>
<path d="M160.606 31.53C160.191 29.3217 159.97 26.2055 161.291 23.9726C163.517 20.1203 168.63 20.1203 170.88 22.0588C173.106 23.9726 175.308 28.0458 174.549 33.3703C174.403 34.3518 174.109 35.186 173.669 35.9222C173.204 39.7254 171.81 52.2638 170.269 59.7476C175.895 58.3489 184.848 55.8952 184.848 55.8952L184.799 53.2698C184.799 53.2698 183.942 51.724 181.863 49.3193C179.784 46.9147 176.8 32.1189 175.528 27.1134C174.256 22.0833 169.094 18.6972 167.969 18.2801C166.844 17.8629 152.901 17.1514 152.901 17.1514C152.901 17.1514 152.999 19.7523 152.583 23.85C152.167 27.9476 150.553 32.5606 146.199 32.8305C141.845 33.1004 141.502 30.9657 141.502 30.9657C141.502 30.9657 139.423 30.9166 138.787 30.6958C138.151 30.4749 135.705 23.4328 135.705 23.4328C135.705 23.4328 134.066 24.0708 132.745 25.7393C134.262 31.6527 136.928 41.8356 137.76 43.4305C138.934 45.6633 141.991 48.9022 141.991 48.9022L147.471 61.5878C147.471 61.5878 152.192 60.3364 153.684 59.1096C155.176 57.8827 156.937 57.2448 156.937 57.2448L156.668 56.3369L159.652 53.5152C159.652 53.5152 160.386 36.6337 160.606 31.8245C160.606 31.7263 160.606 31.6282 160.606 31.53Z" fill="#63639A"/>
<path d="M135.778 23.6292L135.705 23.3838C135.705 23.3838 134.066 24.0217 132.745 25.6903L132.843 26.1074C133.626 25.0523 134.898 24.169 135.778 23.6292Z" fill="white"/>
<path d="M160.606 31.53C160.337 30.0577 160.141 28.1929 160.435 26.4263L146.785 59.9683L147.47 61.5632C147.47 61.5632 152.191 60.3118 153.683 59.085C155.175 57.8581 156.937 57.2202 156.937 57.2202L156.667 56.3123L159.652 53.4906C159.652 53.4906 160.386 36.6091 160.606 31.7999C160.606 31.7263 160.606 31.6281 160.606 31.53ZM174.671 32.0452C174.646 32.4869 174.598 32.9286 174.549 33.3702C174.402 34.3517 174.108 35.186 173.668 35.9221C173.203 39.7253 171.809 52.2637 170.268 59.7475C171.589 59.4285 173.081 59.0359 174.622 58.6188L174.671 32.0452Z" fill="#4D4D97"/>
<path d="M153.684 59.1094C152.192 60.3363 147.471 61.5877 147.471 61.5877C147.471 61.5877 146.835 62.2747 145.978 61.3178C145.122 60.3608 145.416 59.3793 142.554 59.5756C140.915 59.6983 139.252 59.6983 138.126 59.6983C137.05 59.6983 137.368 61.8576 137.368 61.8576C137.368 61.8576 137.368 65.0965 137.759 67.2066C137.808 67.2312 137.857 67.2803 137.906 67.3048C138.885 68.0409 139.741 68.6789 140.352 69.1696C142.994 69.1941 147.324 68.7525 147.324 68.7525C147.324 68.7525 157.059 67.5502 163.321 66.5196C162.979 64.4094 156.937 57.2446 156.937 57.2446C156.937 57.2446 155.151 57.8826 153.684 59.1094Z" fill="#F8B1A7"/>
<path d="M159.065 67.1577C160.557 66.9369 162.001 66.716 163.321 66.4952C162.979 64.385 156.937 57.2202 156.937 57.2202C156.937 57.2202 156.374 57.4165 155.641 57.8091L159.065 67.1577Z" fill="#E98786"/>
<path d="M147.715 61.514C147.544 61.5631 147.471 61.5876 147.471 61.5876C147.471 61.5876 146.835 62.2746 145.978 61.3177C145.122 60.3608 145.416 59.3793 142.554 59.5756C140.915 59.6983 139.252 59.6983 138.126 59.6983C137.05 59.6983 137.368 61.8575 137.368 61.8575C137.368 61.8575 137.368 65.0964 137.759 67.2066C137.882 68.0899 138.151 68.7769 138.493 68.9487C138.762 69.0959 139.472 69.145 140.352 69.1695C142.994 69.1941 147.324 68.7524 147.324 68.7524C147.324 68.7524 147.862 68.6788 148.743 68.5806L147.715 61.514Z" fill="#252559"/>
<path d="M156.644 56.3368L156.913 57.2447C156.913 57.2447 162.955 64.4095 163.297 66.5197C165.719 66.1271 167.627 65.7345 168.238 65.4891C168.899 65.1947 169.584 62.9373 170.244 59.772C171.785 52.2882 173.179 39.7498 173.644 35.9466C173.644 35.8975 173.644 35.8484 173.669 35.7994C174.305 30.6711 173.351 22.8684 167.7 22.7702C162.147 22.6721 160.826 26.8679 160.582 31.579C160.582 31.6772 160.582 31.7753 160.557 31.8489C160.337 36.6582 159.603 53.5396 159.603 53.5396L156.644 56.3368Z" fill="white"/>
<path d="M126.752 71.1327C126.776 71.1082 134.115 58.9379 140.964 58.8643C141.037 58.8643 142.138 58.8643 142.603 59.5758H142.529C140.891 59.6985 139.227 59.6985 138.102 59.6985C137.27 59.6985 137.27 60.9499 137.319 61.5388C132.402 64.3851 128.171 71.8934 128.146 71.9179C127.681 71.6726 127.217 71.4027 126.752 71.1327Z" fill="#171330"/>
<path d="M161.242 62.7899C162.294 64.3112 163.175 65.7344 163.297 66.495C165.719 66.1024 167.627 65.7098 168.238 65.4645C168.899 65.17 169.583 62.9126 170.244 59.7473C171.785 52.2636 173.179 39.7252 173.644 35.9219C173.644 35.8729 173.644 35.8238 173.668 35.7747C174.207 31.5298 173.644 25.4446 170.219 23.4326C170.66 29.4196 169.192 36.7317 169.192 36.7317C173.032 41.8599 167.602 52.2145 167.602 52.2145C168.923 56.4839 164.96 60.2872 161.242 62.7899Z" fill="#EEEEEF"/>
<path d="M150.748 21.9607C150.21 23.3593 144.021 30.794 143.752 30.8431C143.483 30.8922 141.526 30.9413 141.526 30.9413C141.526 30.9413 141.844 33.076 146.223 32.8061C150.577 32.5362 152.191 27.9478 152.607 23.8255C153.023 19.7033 152.925 17.127 152.925 17.127C152.338 17.4214 151.433 17.176 151.433 17.176C151.433 17.176 151.262 20.5621 150.748 21.9607Z" fill="#F8B1A7"/>
<path d="M150.748 21.9605C150.21 23.3591 144.021 30.7938 143.752 30.8429C143.483 30.892 141.526 30.941 141.526 30.941C141.526 30.941 141.844 33.0757 146.223 32.8058C146.321 32.8058 146.394 32.7813 146.492 32.7813C148.522 29.9105 152.681 23.2119 152.191 17.2739C151.776 17.2739 151.433 17.1758 151.433 17.1758C151.433 17.1758 151.262 20.5619 150.748 21.9605Z" fill="#E98786"/>
<path d="M148.058 11.6061L149.745 15.4339H150.259L150.479 11.2871L148.058 11.6061Z" fill="#FFA600"/>
<path d="M137.123 7.23841C137.988 7.23841 138.689 6.40351 138.689 5.3736C138.689 4.34369 137.988 3.50879 137.123 3.50879C136.259 3.50879 135.558 4.34369 135.558 5.3736C135.558 6.40351 136.259 7.23841 137.123 7.23841Z" fill="#9494C0"/>
<path d="M153.684 59.1094C152.192 60.3363 147.471 61.5877 147.471 61.5877C147.471 61.5877 146.835 62.2747 145.978 61.3178C145.122 60.3608 145.416 59.3793 142.554 59.5756C140.915 59.6983 139.252 59.6983 138.126 59.6983C137.05 59.6983 137.368 61.8576 137.368 61.8576C137.368 61.8576 137.368 63.7224 137.539 65.5381C137.539 65.5136 137.393 60.4344 137.882 60.3363C138.371 60.2381 142.138 59.9682 143.581 60.1155C145.024 60.2872 145.049 61.4159 145.807 61.9557C146.59 62.4955 147.813 61.9803 147.813 61.9803C149.55 61.833 154.1 59.6983 154.956 58.9377C155.445 58.496 156.472 58.0053 157.304 57.6618C157.084 57.3919 156.962 57.2446 156.962 57.2446C156.962 57.2446 155.151 57.8826 153.684 59.1094Z" fill="white"/>
<path d="M128.929 221.397C129.565 214.993 129.614 204.884 124.282 200.933C116.185 194.946 101.753 198.136 102.633 172.814C103.514 147.492 103.245 117.458 52.0966 108.208C7.45488 100.135 31.4758 72.6294 9.1427 45.0498C4.61738 54.5702 1.48634 65.7099 0.336667 78.4937C-4.77573 135.321 49.7483 189.99 68.0453 201.964C82.0616 212.073 103.734 218.6 128.929 221.397Z" fill="#92BADF"/>
<path d="M170.66 222.599C172.079 213.643 176.139 200.909 187.783 199.068C206.031 196.198 222.714 207.607 238.026 192.223C253.339 176.838 245.829 144.719 280.467 133.874C315.104 123.028 287.854 61.0724 328.729 38.8665C328.753 38.8419 328.802 38.8419 328.826 38.8174C354.291 76.2853 347.392 159.441 292.159 191.143C258.28 210.601 212.88 220.955 170.66 222.599Z" fill="#92BADF"/>
<path d="M181.839 208.442C181.839 208.393 185.581 194.946 209.284 196.468C237.708 198.308 253.119 174.703 267.649 152.473C281.029 131.96 293.676 112.6 315.152 114.882L315.03 116.085C294.287 113.901 281.836 132.942 268.652 153.135C253.951 175.66 238.344 199.559 209.211 197.67C186.487 196.198 183.013 208.736 182.989 208.785L181.839 208.442Z" fill="white"/>
<path d="M131.792 204.835C131.107 202.97 129.884 201.105 127.804 199.265C125.701 197.4 122.717 195.584 118.534 193.891C112.663 191.536 107.355 190.014 102.609 188.665C91.0882 185.377 82.7958 183.021 77.4388 171.808C76.2402 169.305 75.2373 166.876 74.2344 164.471C68.9752 151.835 64.2787 140.597 39.7686 136.254L39.9642 135.052C65.1348 139.493 69.9537 151.05 75.3352 164.005C76.3381 166.41 77.3654 168.863 78.5151 171.268C83.652 182.015 91.7242 184.297 102.927 187.487C107.697 188.837 113.03 190.358 118.974 192.762C123.304 194.505 126.41 196.394 128.612 198.332C130.862 200.32 132.183 202.356 132.941 204.393L131.792 204.835Z" fill="white"/>
<rect width="11.7822" height="11.7838" rx="3" transform="matrix(0.721853 0.692047 -0.689813 0.723987 228.983 113.361)" fill="white" fill-opacity="0.6"/>
<path d="M231.412 114.914L235.994 119.51C236.613 120.131 236.923 120.938 236.923 121.777C236.923 122.584 236.613 123.423 235.994 124.044L231.412 128.64C230.793 129.261 229.957 129.572 229.152 129.572C228.347 129.572 227.511 129.261 226.892 128.64L222.31 124.044C221.69 123.423 221.381 122.615 221.381 121.777C221.381 120.969 221.69 120.131 222.31 119.51L226.892 114.914C227.511 114.292 228.316 113.982 229.152 113.982C229.957 113.982 230.793 114.292 231.412 114.914ZM234.91 120.597L230.328 116.001C230.019 115.69 229.585 115.504 229.152 115.504C228.718 115.504 228.285 115.659 227.975 116.001L223.393 120.597C223.084 120.907 222.898 121.342 222.898 121.777C222.898 122.212 223.053 122.647 223.393 122.957L227.975 127.553C228.285 127.864 228.718 128.05 229.152 128.05C229.585 128.05 230.019 127.895 230.328 127.553L234.91 122.957C235.22 122.647 235.406 122.212 235.406 121.777C235.375 121.342 235.22 120.907 234.91 120.597Z" fill="url(#paint1_linear_668_19604)"/>
<rect width="8.52523" height="8.5242" rx="2" transform="matrix(0.85312 -0.520233 0.51869 0.855866 211.125 88.1606)" fill="white" fill-opacity="0.6"/>
<path d="M212.661 86.7493L216.721 84.3979C217.27 84.0802 217.89 84.0144 218.475 84.1714C219.037 84.3226 219.563 84.6966 219.88 85.247L222.224 89.3196C222.541 89.8699 222.601 90.514 222.45 91.0783C222.299 91.6426 221.926 92.1704 221.378 92.4881L217.318 94.8395C216.769 95.1572 216.148 95.2231 215.564 95.0661C215.002 94.9149 214.476 94.5408 214.159 93.9905L211.815 89.9178C211.498 89.3675 211.432 88.7451 211.589 88.1591C211.74 87.5948 212.113 87.067 212.661 86.7493ZM217.276 85.3611L213.215 87.7124C212.941 87.8713 212.73 88.1402 212.649 88.444C212.568 88.7479 212.595 89.0808 212.775 89.3618L215.119 93.4344C215.277 93.7096 215.545 93.9212 215.848 94.0026C216.151 94.084 216.483 94.0569 216.763 93.8764L220.823 91.525C221.098 91.3662 221.309 91.0972 221.39 90.7934C221.471 90.4895 221.444 90.1566 221.264 89.8756L218.92 85.803C218.761 85.5278 218.493 85.3162 218.19 85.2348C217.882 85.1751 217.55 85.2022 217.276 85.3611Z" fill="url(#paint2_linear_668_19604)"/>
<rect x="138.176" y="127.102" width="7.09375" height="7.11572" rx="2" fill="white" fill-opacity="0.6"/>
<path d="M139.864 126.488H143.435C144.047 126.488 144.585 126.734 145.001 127.151C145.392 127.543 145.637 128.108 145.637 128.721V132.304C145.637 132.917 145.392 133.457 145.001 133.874C144.609 134.266 144.047 134.536 143.435 134.536H139.864C139.252 134.536 138.714 134.291 138.298 133.874C137.907 133.481 137.638 132.917 137.638 132.304V128.721C137.638 128.108 137.882 127.568 138.298 127.151C138.69 126.734 139.252 126.488 139.864 126.488ZM143.411 127.691H139.839C139.57 127.691 139.301 127.813 139.13 127.985C138.959 128.157 138.836 128.427 138.836 128.697V132.279C138.836 132.549 138.959 132.794 139.13 132.991C139.301 133.162 139.57 133.285 139.839 133.285H143.411C143.68 133.285 143.924 133.162 144.12 132.991C144.291 132.819 144.413 132.549 144.413 132.279V128.697C144.413 128.427 144.291 128.157 144.12 127.985C143.949 127.813 143.704 127.691 143.411 127.691Z" fill="url(#paint3_linear_668_19604)"/>
<rect width="8.40332" height="8.42585" rx="1" transform="matrix(0.965725 0.259567 -0.258073 0.966125 93.5068 58.7109)" fill="white" fill-opacity="0.6"/>
<path d="M95.4915 58.131L99.8849 59.3119C100.612 59.5075 101.202 59.9968 101.55 60.6018C101.898 61.2069 102.026 61.9633 101.831 62.6931L100.654 67.1002C100.459 67.83 99.9711 68.421 99.3679 68.7703C98.7647 69.1197 98.0106 69.2479 97.283 69.0524L92.8896 67.8715C92.162 67.6759 91.5729 67.1866 91.2246 66.5816C90.8764 65.9765 90.7485 65.2201 90.9435 64.4903L92.1207 60.0832C92.3156 59.3534 92.8034 58.7624 93.4066 58.4131C94.0098 58.0637 94.7639 57.9355 95.4915 58.131ZM99.51 60.7154L95.1166 59.5346C94.7528 59.4368 94.4074 59.4944 94.0881 59.6793C93.8043 59.8437 93.5464 60.1355 93.4489 60.5004L92.2717 64.9074C92.1742 65.2723 92.2316 65.6187 92.416 65.9391C92.5799 66.2238 92.8707 66.4825 93.2345 66.5802L97.6279 67.7611C97.9917 67.8589 98.337 67.8013 98.6564 67.6163C98.9402 67.4519 99.1981 67.1602 99.2956 66.7953L100.473 62.3883C100.57 62.0233 100.513 61.677 100.328 61.3566C100.144 61.0363 99.8738 60.8132 99.51 60.7154Z" fill="url(#paint4_linear_668_19604)"/>
<path d="M259.699 70.6663C265.724 70.6663 270.608 65.7667 270.608 59.7228C270.608 53.6789 265.724 48.7793 259.699 48.7793C253.674 48.7793 248.789 53.6789 248.789 59.7228C248.789 65.7667 253.674 70.6663 259.699 70.6663Z" fill="#FFCA6E"/>
<rect width="11.3378" height="10.6889" rx="1" transform="matrix(0.9703 0.241904 -0.274641 0.961547 97.5938 135.609)" fill="white" fill-opacity="0.6"/>
<path d="M99.5837 135.082L106.818 136.891C107.585 137.096 108.207 137.574 108.609 138.154C108.974 138.735 109.084 139.417 108.937 140.1L106.964 146.962C106.745 147.678 106.234 148.259 105.612 148.634C104.991 148.976 104.261 149.078 103.53 148.941L96.1857 147.098C95.4184 146.893 94.7972 146.415 94.3953 145.835C94.0299 145.221 93.8838 144.47 94.103 143.753L96.0395 136.994C96.2587 136.277 96.7703 135.697 97.3914 135.321C98.0126 135.014 98.8164 134.912 99.5837 135.082ZM106.343 138.53L99.1087 136.721C98.8164 136.652 98.4875 136.687 98.2683 136.823C98.0125 136.96 97.8299 137.165 97.7568 137.472L95.8203 144.231C95.7472 144.504 95.7837 144.811 95.9299 145.016C96.076 145.255 96.2953 145.425 96.6241 145.494L103.859 147.303C104.151 147.371 104.48 147.337 104.699 147.201C104.955 147.064 105.137 146.859 105.21 146.552C105.832 144.299 106.489 142.046 107.147 139.793C107.22 139.52 107.184 139.213 107.037 139.008C106.891 138.803 106.672 138.598 106.343 138.53Z" fill="url(#paint5_linear_668_19604)"/>
<defs>
<linearGradient id="paint0_linear_668_19604" x1="214.861" y1="162.181" x2="215.225" y2="171.949" gradientUnits="userSpaceOnUse">
<stop stop-color="#1B4965"/>
<stop offset="1" stop-color="#0369D8"/>
</linearGradient>
<linearGradient id="paint1_linear_668_19604" x1="229.152" y1="113.982" x2="229.152" y2="129.572" gradientUnits="userSpaceOnUse">
<stop stop-color="#1B4965"/>
<stop offset="1" stop-color="#0369D8"/>
</linearGradient>
<linearGradient id="paint2_linear_668_19604" x1="211.589" y1="88.1591" x2="222.454" y2="91.0615" gradientUnits="userSpaceOnUse">
<stop stop-color="#1B4965"/>
<stop offset="1" stop-color="#0369D8"/>
</linearGradient>
<linearGradient id="paint3_linear_668_19604" x1="141.637" y1="126.488" x2="141.637" y2="134.536" gradientUnits="userSpaceOnUse">
<stop stop-color="#1B4965"/>
<stop offset="1" stop-color="#0369D8"/>
</linearGradient>
<linearGradient id="paint4_linear_668_19604" x1="97.6882" y1="58.7215" x2="95.0712" y2="68.4579" gradientUnits="userSpaceOnUse">
<stop stop-color="#1B4965"/>
<stop offset="1" stop-color="#0369D8"/>
</linearGradient>
<linearGradient id="paint5_linear_668_19604" x1="101.5" y1="135" x2="101.5" y2="149" gradientUnits="userSpaceOnUse">
<stop stop-color="#1B4965"/>
<stop offset="1" stop-color="#0369D8"/>
</linearGradient>
<clipPath id="clip0_668_19604">
<rect width="55.4047" height="142.56" fill="white" transform="translate(133.772)"/>
</clipPath>
</defs>
</svg>
