<svg width="148" height="148" viewBox="0 0 148 148" fill="none" xmlns="http://www.w3.org/2000/svg">
<path d="M105.948 96.6923C102.037 96.6923 98.8664 93.5216 98.8664 89.6103V48.3712C98.8664 34.4722 87.5585 23.1641 73.6593 23.1641C59.7603 23.1641 48.4521 34.4719 48.4521 48.3712V72.3567C48.4521 76.268 45.2814 79.4388 41.3701 79.4388C37.4588 79.4388 34.2881 76.268 34.2881 72.3567V48.3712C34.2881 26.6617 51.9498 9 73.6593 9C95.3687 9 113.03 26.6617 113.03 48.3712V89.6103C113.03 93.5216 109.86 96.6923 105.948 96.6923Z" fill="#DCE2E2"/>
<path d="M116.749 139.578H30.5687C22.5227 139.578 16 133.055 16 125.009V75.184C16 67.1379 22.5227 60.6152 30.5687 60.6152H116.749C124.795 60.6152 131.318 67.1379 131.318 75.184V125.009C131.318 133.055 124.795 139.578 116.749 139.578Z" fill="#1B4965"/>
<path d="M28.6424 127.837H27.9125C25.6136 127.837 23.75 125.973 23.75 123.674V76.5189C23.75 74.22 25.6136 72.3564 27.9125 72.3564H28.6424C30.9413 72.3564 32.8049 74.22 32.8049 76.5189V123.674C32.8049 125.973 30.9413 127.837 28.6424 127.837Z" fill="#748E9D"/>
</svg>
