<svg width="153" height="38" viewBox="0 0 153 38" fill="none" xmlns="http://www.w3.org/2000/svg">
<g filter="url(#filter0_b_668_23341)">
<rect width="153" height="38" rx="8" fill="white" fill-opacity="0.7"/>
</g>
<g filter="url(#filter1_b_668_23341)">
<path d="M39.716 24.096C39.468 24.096 39.272 24.028 39.128 23.892C38.992 23.748 38.924 23.544 38.924 23.28V16.356C38.924 16.092 38.992 15.892 39.128 15.756C39.272 15.612 39.476 15.54 39.74 15.54H43.928C44.136 15.54 44.292 15.592 44.396 15.696C44.5 15.8 44.552 15.948 44.552 16.14C44.552 16.34 44.5 16.496 44.396 16.608C44.292 16.712 44.136 16.764 43.928 16.764H40.46V19.152H43.676C43.876 19.152 44.028 19.204 44.132 19.308C44.244 19.412 44.3 19.56 44.3 19.752C44.3 19.952 44.244 20.108 44.132 20.22C44.028 20.324 43.876 20.376 43.676 20.376H40.46V23.28C40.46 23.824 40.212 24.096 39.716 24.096ZM47.4899 24.12C47.0019 24.12 46.5979 24.032 46.2779 23.856C45.9579 23.672 45.7179 23.4 45.5579 23.04C45.4059 22.68 45.3299 22.232 45.3299 21.696V18.792C45.3299 18.536 45.3939 18.348 45.5219 18.228C45.6499 18.1 45.8339 18.036 46.0739 18.036C46.3139 18.036 46.4979 18.1 46.6259 18.228C46.7619 18.348 46.8299 18.536 46.8299 18.792V21.72C46.8299 22.136 46.9139 22.444 47.0819 22.644C47.2499 22.844 47.5179 22.944 47.8859 22.944C48.2859 22.944 48.6139 22.808 48.8699 22.536C49.1259 22.256 49.2539 21.888 49.2539 21.432V18.792C49.2539 18.536 49.3179 18.348 49.4459 18.228C49.5739 18.1 49.7579 18.036 49.9979 18.036C50.2379 18.036 50.4219 18.1 50.5499 18.228C50.6859 18.348 50.7539 18.536 50.7539 18.792V23.328C50.7539 23.84 50.5099 24.096 50.0219 24.096C49.7899 24.096 49.6099 24.032 49.4819 23.904C49.3539 23.768 49.2899 23.576 49.2899 23.328V22.416L49.4579 22.776C49.2899 23.208 49.0339 23.54 48.6899 23.772C48.3539 24.004 47.9539 24.12 47.4899 24.12ZM54.3192 24.12C53.6552 24.12 53.1552 23.932 52.8192 23.556C52.4832 23.172 52.3152 22.612 52.3152 21.876V16.2C52.3152 15.952 52.3792 15.764 52.5072 15.636C52.6352 15.508 52.8192 15.444 53.0592 15.444C53.2992 15.444 53.4832 15.508 53.6112 15.636C53.7472 15.764 53.8152 15.952 53.8152 16.2V21.804C53.8152 22.172 53.8912 22.444 54.0432 22.62C54.2032 22.796 54.4272 22.884 54.7152 22.884C54.7792 22.884 54.8392 22.884 54.8952 22.884C54.9512 22.876 55.0072 22.868 55.0632 22.86C55.1752 22.844 55.2512 22.876 55.2912 22.956C55.3312 23.028 55.3512 23.18 55.3512 23.412C55.3512 23.612 55.3112 23.768 55.2312 23.88C55.1512 23.992 55.0192 24.06 54.8352 24.084C54.7552 24.092 54.6712 24.1 54.5832 24.108C54.4952 24.116 54.4072 24.12 54.3192 24.12ZM58.1512 24.12C57.4872 24.12 56.9872 23.932 56.6512 23.556C56.3152 23.172 56.1472 22.612 56.1472 21.876V16.2C56.1472 15.952 56.2112 15.764 56.3392 15.636C56.4672 15.508 56.6512 15.444 56.8912 15.444C57.1312 15.444 57.3152 15.508 57.4432 15.636C57.5792 15.764 57.6472 15.952 57.6472 16.2V21.804C57.6472 22.172 57.7232 22.444 57.8752 22.62C58.0352 22.796 58.2592 22.884 58.5472 22.884C58.6112 22.884 58.6712 22.884 58.7272 22.884C58.7832 22.876 58.8392 22.868 58.8952 22.86C59.0072 22.844 59.0832 22.876 59.1232 22.956C59.1632 23.028 59.1832 23.18 59.1832 23.412C59.1832 23.612 59.1432 23.768 59.0632 23.88C58.9832 23.992 58.8512 24.06 58.6672 24.084C58.5872 24.092 58.5032 24.1 58.4152 24.108C58.3272 24.116 58.2392 24.12 58.1512 24.12ZM65.613 24.096C65.413 24.096 65.237 24.044 65.085 23.94C64.941 23.836 64.821 23.676 64.725 23.46L62.817 19.032C62.745 18.856 62.717 18.692 62.733 18.54C62.757 18.388 62.829 18.268 62.949 18.18C63.077 18.084 63.249 18.036 63.465 18.036C63.649 18.036 63.797 18.08 63.909 18.168C64.021 18.248 64.121 18.404 64.209 18.636L65.829 22.68H65.469L67.137 18.624C67.225 18.4 67.325 18.248 67.437 18.168C67.557 18.08 67.717 18.036 67.917 18.036C68.093 18.036 68.233 18.084 68.337 18.18C68.441 18.268 68.505 18.388 68.529 18.54C68.553 18.684 68.525 18.844 68.445 19.02L66.501 23.46C66.413 23.676 66.293 23.836 66.141 23.94C65.997 24.044 65.821 24.096 65.613 24.096ZM70.3092 24.084C70.0692 24.084 69.8852 24.012 69.7572 23.868C69.6292 23.724 69.5652 23.524 69.5652 23.268V18.864C69.5652 18.6 69.6292 18.4 69.7572 18.264C69.8852 18.12 70.0692 18.048 70.3092 18.048C70.5492 18.048 70.7332 18.12 70.8612 18.264C70.9972 18.4 71.0652 18.6 71.0652 18.864V23.268C71.0652 23.524 71.0012 23.724 70.8732 23.868C70.7452 24.012 70.5572 24.084 70.3092 24.084ZM70.3092 16.932C70.0292 16.932 69.8092 16.864 69.6492 16.728C69.4972 16.584 69.4212 16.388 69.4212 16.14C69.4212 15.884 69.4972 15.688 69.6492 15.552C69.8092 15.416 70.0292 15.348 70.3092 15.348C70.5972 15.348 70.8172 15.416 70.9692 15.552C71.1212 15.688 71.1972 15.884 71.1972 16.14C71.1972 16.388 71.1212 16.584 70.9692 16.728C70.8172 16.864 70.5972 16.932 70.3092 16.932ZM74.8798 24.12C74.3678 24.12 73.9158 23.996 73.5238 23.748C73.1398 23.5 72.8398 23.148 72.6238 22.692C72.4078 22.228 72.2998 21.684 72.2998 21.06C72.2998 20.428 72.4078 19.888 72.6238 19.44C72.8398 18.984 73.1398 18.632 73.5238 18.384C73.9158 18.136 74.3678 18.012 74.8798 18.012C75.3678 18.012 75.7918 18.132 76.1518 18.372C76.5198 18.612 76.7678 18.928 76.8958 19.32H76.7638V16.2C76.7638 15.952 76.8278 15.764 76.9558 15.636C77.0838 15.508 77.2678 15.444 77.5078 15.444C77.7478 15.444 77.9318 15.508 78.0598 15.636C78.1958 15.764 78.2638 15.952 78.2638 16.2V23.328C78.2638 23.576 78.1998 23.768 78.0718 23.904C77.9438 24.032 77.7598 24.096 77.5198 24.096C77.2798 24.096 77.0958 24.032 76.9678 23.904C76.8398 23.768 76.7758 23.576 76.7758 23.328V22.392L76.9078 22.752C76.7878 23.168 76.5438 23.5 76.1758 23.748C75.8078 23.996 75.3758 24.12 74.8798 24.12ZM75.2998 22.98C75.5958 22.98 75.8558 22.908 76.0798 22.764C76.3038 22.62 76.4758 22.408 76.5958 22.128C76.7238 21.84 76.7878 21.484 76.7878 21.06C76.7878 20.42 76.6518 19.944 76.3798 19.632C76.1078 19.312 75.7478 19.152 75.2998 19.152C75.0038 19.152 74.7438 19.224 74.5198 19.368C74.2958 19.504 74.1198 19.716 73.9918 20.004C73.8718 20.284 73.8118 20.636 73.8118 21.06C73.8118 21.692 73.9478 22.172 74.2198 22.5C74.4918 22.82 74.8518 22.98 75.2998 22.98ZM82.7111 24.12C82.0471 24.12 81.4751 23.996 80.9951 23.748C80.5151 23.5 80.1431 23.148 79.8791 22.692C79.6231 22.236 79.4951 21.696 79.4951 21.072C79.4951 20.464 79.6191 19.932 79.8671 19.476C80.1231 19.02 80.4711 18.664 80.9111 18.408C81.3591 18.144 81.8671 18.012 82.4351 18.012C82.8511 18.012 83.2231 18.08 83.5511 18.216C83.8871 18.352 84.1711 18.548 84.4031 18.804C84.6431 19.06 84.8231 19.372 84.9431 19.74C85.0711 20.1 85.1351 20.508 85.1351 20.964C85.1351 21.108 85.0831 21.22 84.9791 21.3C84.8831 21.372 84.7431 21.408 84.5591 21.408H80.7071V20.544H84.0791L83.8871 20.724C83.8871 20.356 83.8311 20.048 83.7191 19.8C83.6151 19.552 83.4591 19.364 83.2511 19.236C83.0511 19.1 82.7991 19.032 82.4951 19.032C82.1591 19.032 81.8711 19.112 81.6311 19.272C81.3991 19.424 81.2191 19.644 81.0911 19.932C80.9711 20.212 80.9111 20.548 80.9111 20.94V21.024C80.9111 21.68 81.0631 22.172 81.3671 22.5C81.6791 22.82 82.1351 22.98 82.7351 22.98C82.9431 22.98 83.1751 22.956 83.4311 22.908C83.6951 22.852 83.9431 22.76 84.1751 22.632C84.3431 22.536 84.4911 22.496 84.6191 22.512C84.7471 22.52 84.8471 22.564 84.9191 22.644C84.9991 22.724 85.0471 22.824 85.0631 22.944C85.0791 23.056 85.0551 23.172 84.9911 23.292C84.9351 23.412 84.8351 23.516 84.6911 23.604C84.4111 23.78 84.0871 23.912 83.7191 24C83.3591 24.08 83.0231 24.12 82.7111 24.12ZM88.999 24.12C88.391 24.12 87.863 23.996 87.415 23.748C86.967 23.5 86.619 23.148 86.371 22.692C86.123 22.228 85.999 21.684 85.999 21.06C85.999 20.588 86.067 20.168 86.203 19.8C86.347 19.424 86.551 19.104 86.815 18.84C87.079 18.568 87.395 18.364 87.763 18.228C88.131 18.084 88.543 18.012 88.999 18.012C89.607 18.012 90.135 18.136 90.583 18.384C91.031 18.632 91.379 18.984 91.627 19.44C91.875 19.896 91.999 20.436 91.999 21.06C91.999 21.532 91.927 21.956 91.783 22.332C91.647 22.708 91.447 23.032 91.183 23.304C90.919 23.568 90.603 23.772 90.235 23.916C89.867 24.052 89.455 24.12 88.999 24.12ZM88.999 22.98C89.295 22.98 89.555 22.908 89.779 22.764C90.003 22.62 90.175 22.408 90.295 22.128C90.423 21.84 90.487 21.484 90.487 21.06C90.487 20.42 90.351 19.944 90.079 19.632C89.807 19.312 89.447 19.152 88.999 19.152C88.703 19.152 88.443 19.224 88.219 19.368C87.995 19.504 87.819 19.716 87.691 20.004C87.571 20.284 87.511 20.636 87.511 21.06C87.511 21.692 87.647 22.172 87.919 22.5C88.191 22.82 88.551 22.98 88.999 22.98ZM98.4268 24.12C98.0028 24.12 97.6228 24.04 97.2868 23.88C96.9588 23.712 96.6988 23.488 96.5068 23.208C96.3228 22.928 96.2308 22.612 96.2308 22.26C96.2308 21.828 96.3428 21.488 96.5668 21.24C96.7908 20.984 97.1548 20.8 97.6588 20.688C98.1628 20.576 98.8388 20.52 99.6868 20.52H100.287V21.384H99.6988C99.2028 21.384 98.8068 21.408 98.5108 21.456C98.2148 21.504 98.0028 21.588 97.8748 21.708C97.7548 21.82 97.6948 21.98 97.6948 22.188C97.6948 22.452 97.7868 22.668 97.9708 22.836C98.1548 23.004 98.4108 23.088 98.7388 23.088C99.0028 23.088 99.2348 23.028 99.4348 22.908C99.6428 22.78 99.8068 22.608 99.9268 22.392C100.047 22.176 100.107 21.928 100.107 21.648V20.268C100.107 19.868 100.019 19.58 99.8428 19.404C99.6668 19.228 99.3708 19.14 98.9548 19.14C98.7228 19.14 98.4708 19.168 98.1988 19.224C97.9348 19.28 97.6548 19.376 97.3588 19.512C97.2068 19.584 97.0708 19.604 96.9508 19.572C96.8388 19.54 96.7508 19.476 96.6868 19.38C96.6228 19.276 96.5908 19.164 96.5908 19.044C96.5908 18.924 96.6228 18.808 96.6868 18.696C96.7508 18.576 96.8588 18.488 97.0108 18.432C97.3788 18.28 97.7308 18.172 98.0668 18.108C98.4108 18.044 98.7228 18.012 99.0028 18.012C99.5788 18.012 100.051 18.1 100.419 18.276C100.795 18.452 101.075 18.72 101.259 19.08C101.443 19.432 101.535 19.888 101.535 20.448V23.328C101.535 23.576 101.475 23.768 101.355 23.904C101.235 24.032 101.063 24.096 100.839 24.096C100.615 24.096 100.439 24.032 100.311 23.904C100.191 23.768 100.131 23.576 100.131 23.328V22.752H100.227C100.171 23.032 100.059 23.276 99.8908 23.484C99.7308 23.684 99.5268 23.84 99.2788 23.952C99.0308 24.064 98.7468 24.12 98.4268 24.12ZM103.801 24.096C103.561 24.096 103.377 24.032 103.249 23.904C103.121 23.768 103.057 23.576 103.057 23.328V18.792C103.057 18.544 103.121 18.356 103.249 18.228C103.377 18.1 103.557 18.036 103.789 18.036C104.021 18.036 104.201 18.1 104.329 18.228C104.457 18.356 104.521 18.544 104.521 18.792V19.608L104.389 19.308C104.565 18.884 104.837 18.564 105.205 18.348C105.581 18.124 106.005 18.012 106.477 18.012C106.949 18.012 107.337 18.1 107.641 18.276C107.945 18.452 108.173 18.72 108.325 19.08C108.477 19.432 108.553 19.88 108.553 20.424V23.328C108.553 23.576 108.489 23.768 108.361 23.904C108.233 24.032 108.049 24.096 107.809 24.096C107.569 24.096 107.381 24.032 107.245 23.904C107.117 23.768 107.053 23.576 107.053 23.328V20.496C107.053 20.04 106.965 19.708 106.789 19.5C106.621 19.292 106.357 19.188 105.997 19.188C105.557 19.188 105.205 19.328 104.941 19.608C104.685 19.88 104.557 20.244 104.557 20.7V23.328C104.557 23.84 104.305 24.096 103.801 24.096ZM112.009 24.12C111.585 24.12 111.205 24.04 110.869 23.88C110.541 23.712 110.281 23.488 110.089 23.208C109.905 22.928 109.813 22.612 109.813 22.26C109.813 21.828 109.925 21.488 110.149 21.24C110.373 20.984 110.737 20.8 111.241 20.688C111.745 20.576 112.421 20.52 113.269 20.52H113.869V21.384H113.281C112.785 21.384 112.389 21.408 112.093 21.456C111.797 21.504 111.585 21.588 111.457 21.708C111.337 21.82 111.277 21.98 111.277 22.188C111.277 22.452 111.369 22.668 111.553 22.836C111.737 23.004 111.993 23.088 112.321 23.088C112.585 23.088 112.817 23.028 113.017 22.908C113.225 22.78 113.389 22.608 113.509 22.392C113.629 22.176 113.689 21.928 113.689 21.648V20.268C113.689 19.868 113.601 19.58 113.425 19.404C113.249 19.228 112.953 19.14 112.537 19.14C112.305 19.14 112.053 19.168 111.781 19.224C111.517 19.28 111.237 19.376 110.941 19.512C110.789 19.584 110.653 19.604 110.533 19.572C110.421 19.54 110.333 19.476 110.269 19.38C110.205 19.276 110.173 19.164 110.173 19.044C110.173 18.924 110.205 18.808 110.269 18.696C110.333 18.576 110.441 18.488 110.593 18.432C110.961 18.28 111.313 18.172 111.649 18.108C111.993 18.044 112.305 18.012 112.585 18.012C113.161 18.012 113.633 18.1 114.001 18.276C114.377 18.452 114.657 18.72 114.841 19.08C115.025 19.432 115.117 19.888 115.117 20.448V23.328C115.117 23.576 115.057 23.768 114.937 23.904C114.817 24.032 114.645 24.096 114.421 24.096C114.197 24.096 114.021 24.032 113.893 23.904C113.773 23.768 113.713 23.576 113.713 23.328V22.752H113.809C113.753 23.032 113.641 23.276 113.473 23.484C113.313 23.684 113.109 23.84 112.861 23.952C112.613 24.064 112.329 24.12 112.009 24.12ZM118.643 24.12C117.979 24.12 117.479 23.932 117.143 23.556C116.807 23.172 116.639 22.612 116.639 21.876V16.2C116.639 15.952 116.703 15.764 116.831 15.636C116.959 15.508 117.143 15.444 117.383 15.444C117.623 15.444 117.807 15.508 117.935 15.636C118.071 15.764 118.139 15.952 118.139 16.2V21.804C118.139 22.172 118.215 22.444 118.367 22.62C118.527 22.796 118.751 22.884 119.039 22.884C119.103 22.884 119.163 22.884 119.219 22.884C119.275 22.876 119.331 22.868 119.387 22.86C119.499 22.844 119.575 22.876 119.615 22.956C119.655 23.028 119.675 23.18 119.675 23.412C119.675 23.612 119.635 23.768 119.555 23.88C119.475 23.992 119.343 24.06 119.159 24.084C119.079 24.092 118.995 24.1 118.907 24.108C118.819 24.116 118.731 24.12 118.643 24.12ZM121.807 26.256C121.631 26.256 121.487 26.208 121.375 26.112C121.263 26.024 121.195 25.904 121.171 25.752C121.155 25.6 121.183 25.44 121.255 25.272L122.071 23.46V24.084L119.887 19.032C119.815 18.856 119.791 18.692 119.815 18.54C119.839 18.388 119.911 18.268 120.031 18.18C120.159 18.084 120.331 18.036 120.547 18.036C120.731 18.036 120.879 18.08 120.991 18.168C121.103 18.248 121.203 18.404 121.291 18.636L122.911 22.68H122.551L124.207 18.624C124.295 18.4 124.399 18.248 124.519 18.168C124.639 18.08 124.799 18.036 124.999 18.036C125.175 18.036 125.315 18.084 125.419 18.18C125.523 18.268 125.587 18.388 125.611 18.54C125.635 18.684 125.607 18.844 125.527 19.02L122.611 25.68C122.507 25.904 122.395 26.056 122.275 26.136C122.155 26.216 121.999 26.256 121.807 26.256ZM128.666 24.12C128.322 24.12 127.958 24.084 127.574 24.012C127.19 23.94 126.846 23.816 126.542 23.64C126.414 23.56 126.322 23.468 126.266 23.364C126.218 23.252 126.198 23.144 126.206 23.04C126.222 22.928 126.262 22.832 126.326 22.752C126.398 22.672 126.486 22.62 126.59 22.596C126.702 22.572 126.822 22.592 126.95 22.656C127.27 22.808 127.57 22.916 127.85 22.98C128.13 23.036 128.406 23.064 128.678 23.064C129.062 23.064 129.346 23 129.53 22.872C129.722 22.736 129.818 22.56 129.818 22.344C129.818 22.16 129.754 22.02 129.626 21.924C129.506 21.82 129.322 21.744 129.074 21.696L127.874 21.468C127.378 21.372 126.998 21.192 126.734 20.928C126.478 20.656 126.35 20.308 126.35 19.884C126.35 19.5 126.454 19.168 126.662 18.888C126.878 18.608 127.174 18.392 127.55 18.24C127.926 18.088 128.358 18.012 128.846 18.012C129.198 18.012 129.526 18.052 129.83 18.132C130.142 18.204 130.442 18.32 130.73 18.48C130.85 18.544 130.93 18.628 130.97 18.732C131.018 18.836 131.03 18.944 131.006 19.056C130.982 19.16 130.934 19.256 130.862 19.344C130.79 19.424 130.698 19.476 130.586 19.5C130.482 19.516 130.362 19.492 130.226 19.428C129.978 19.3 129.738 19.208 129.506 19.152C129.282 19.096 129.066 19.068 128.858 19.068C128.466 19.068 128.174 19.136 127.982 19.272C127.798 19.408 127.706 19.588 127.706 19.812C127.706 19.98 127.762 20.12 127.874 20.232C127.986 20.344 128.158 20.42 128.39 20.46L129.59 20.688C130.11 20.784 130.502 20.96 130.766 21.216C131.038 21.472 131.174 21.816 131.174 22.248C131.174 22.832 130.946 23.292 130.49 23.628C130.034 23.956 129.426 24.12 128.666 24.12ZM133.122 24.084C132.882 24.084 132.698 24.012 132.57 23.868C132.442 23.724 132.378 23.524 132.378 23.268V18.864C132.378 18.6 132.442 18.4 132.57 18.264C132.698 18.12 132.882 18.048 133.122 18.048C133.362 18.048 133.546 18.12 133.674 18.264C133.81 18.4 133.878 18.6 133.878 18.864V23.268C133.878 23.524 133.814 23.724 133.686 23.868C133.558 24.012 133.37 24.084 133.122 24.084ZM133.122 16.932C132.842 16.932 132.622 16.864 132.462 16.728C132.31 16.584 132.234 16.388 132.234 16.14C132.234 15.884 132.31 15.688 132.462 15.552C132.622 15.416 132.842 15.348 133.122 15.348C133.41 15.348 133.63 15.416 133.782 15.552C133.934 15.688 134.01 15.884 134.01 16.14C134.01 16.388 133.934 16.584 133.782 16.728C133.63 16.864 133.41 16.932 133.122 16.932ZM137.584 24.12C137.24 24.12 136.876 24.084 136.492 24.012C136.108 23.94 135.764 23.816 135.46 23.64C135.332 23.56 135.24 23.468 135.184 23.364C135.136 23.252 135.116 23.144 135.124 23.04C135.14 22.928 135.18 22.832 135.244 22.752C135.316 22.672 135.404 22.62 135.508 22.596C135.62 22.572 135.74 22.592 135.868 22.656C136.188 22.808 136.488 22.916 136.768 22.98C137.048 23.036 137.324 23.064 137.596 23.064C137.98 23.064 138.264 23 138.448 22.872C138.64 22.736 138.736 22.56 138.736 22.344C138.736 22.16 138.672 22.02 138.544 21.924C138.424 21.82 138.24 21.744 137.992 21.696L136.792 21.468C136.296 21.372 135.916 21.192 135.652 20.928C135.396 20.656 135.268 20.308 135.268 19.884C135.268 19.5 135.372 19.168 135.58 18.888C135.796 18.608 136.092 18.392 136.468 18.24C136.844 18.088 137.276 18.012 137.764 18.012C138.116 18.012 138.444 18.052 138.748 18.132C139.06 18.204 139.36 18.32 139.648 18.48C139.768 18.544 139.848 18.628 139.888 18.732C139.936 18.836 139.948 18.944 139.924 19.056C139.9 19.16 139.852 19.256 139.78 19.344C139.708 19.424 139.616 19.476 139.504 19.5C139.4 19.516 139.28 19.492 139.144 19.428C138.896 19.3 138.656 19.208 138.424 19.152C138.2 19.096 137.984 19.068 137.776 19.068C137.384 19.068 137.092 19.136 136.9 19.272C136.716 19.408 136.624 19.588 136.624 19.812C136.624 19.98 136.68 20.12 136.792 20.232C136.904 20.344 137.076 20.42 137.308 20.46L138.508 20.688C139.028 20.784 139.42 20.96 139.684 21.216C139.956 21.472 140.092 21.816 140.092 22.248C140.092 22.832 139.864 23.292 139.408 23.628C138.952 23.956 138.344 24.12 137.584 24.12Z" fill="#1B4965"/>
</g>
<g filter="url(#filter2_b_668_23341)">
<path d="M18.6667 11.5H16.1667C15.7246 11.5 15.3007 11.6756 14.9882 11.9882C14.6756 12.3007 14.5 12.7246 14.5 13.1667V15.6667M29.5 15.6667V13.1667C29.5 12.7246 29.3244 12.3007 29.0118 11.9882C28.6993 11.6756 28.2754 11.5 27.8333 11.5H25.3333M25.3333 26.5H27.8333C28.2754 26.5 28.6993 26.3244 29.0118 26.0118C29.3244 25.6993 29.5 25.2754 29.5 24.8333V22.3333M14.5 22.3333V24.8333C14.5 25.2754 14.6756 25.6993 14.9882 26.0118C15.3007 26.3244 15.7246 26.5 16.1667 26.5H18.6667" stroke="#1B4965" stroke-width="2" stroke-linecap="round" stroke-linejoin="round"/>
</g>
<defs>
<filter id="filter0_b_668_23341" x="-6" y="-6" width="165" height="50" filterUnits="userSpaceOnUse" color-interpolation-filters="sRGB">
<feFlood flood-opacity="0" result="BackgroundImageFix"/>
<feGaussianBlur in="BackgroundImageFix" stdDeviation="3"/>
<feComposite in2="SourceAlpha" operator="in" result="effect1_backgroundBlur_668_23341"/>
<feBlend mode="normal" in="SourceGraphic" in2="effect1_backgroundBlur_668_23341" result="shape"/>
</filter>
<filter id="filter1_b_668_23341" x="34.924" y="11.348" width="109.168" height="18.908" filterUnits="userSpaceOnUse" color-interpolation-filters="sRGB">
<feFlood flood-opacity="0" result="BackgroundImageFix"/>
<feGaussianBlur in="BackgroundImageFix" stdDeviation="2"/>
<feComposite in2="SourceAlpha" operator="in" result="effect1_backgroundBlur_668_23341"/>
<feBlend mode="normal" in="SourceGraphic" in2="effect1_backgroundBlur_668_23341" result="shape"/>
</filter>
<filter id="filter2_b_668_23341" x="8" y="5" width="28" height="28" filterUnits="userSpaceOnUse" color-interpolation-filters="sRGB">
<feFlood flood-opacity="0" result="BackgroundImageFix"/>
<feGaussianBlur in="BackgroundImageFix" stdDeviation="2"/>
<feComposite in2="SourceAlpha" operator="in" result="effect1_backgroundBlur_668_23341"/>
<feBlend mode="normal" in="SourceGraphic" in2="effect1_backgroundBlur_668_23341" result="shape"/>
</filter>
</defs>
</svg>
