<svg width="15" height="14" viewBox="0 0 15 14" fill="none" xmlns="http://www.w3.org/2000/svg">
<g id="trotting-horse 3" clip-path="url(#clip0_5132_9723)">
<path id="Vector" d="M8.25496 1.56554C8.69089 1.21792 9.27016 0.952862 10.0364 0.757757C11.6446 0.348183 12.9768 0.705485 14.0417 0.980236C14.2653 1.03792 14.4231 1.23906 14.4231 1.46995V6.5365C14.4231 6.86927 14.1032 7.1093 13.7926 6.98998C12.8875 6.64232 12.4162 6.25841 12.4162 6.25841C12.4162 6.25841 10.6305 8.68178 7.06055 9.28787L4.05762 13.7358C3.90012 13.9691 3.60507 14.0595 3.3466 13.9545L2.90152 13.7734C2.57844 13.6415 2.43475 13.2567 2.59052 12.9394L4.52299 8.42084C4.61818 8.22718 4.76103 8.06124 4.94103 7.94574C5.55834 7.55024 7.06055 6.97347 7.06055 5.04731C7.06055 3.93742 7.18896 3.07371 7.55296 2.40294C7.09321 2.543 6.03697 2.9537 4.61538 4.08344C2.99769 5.36911 0 4.08344 0 4.08344C0 4.08344 1.34308 4.31327 3.46154 2.33344C5.34363 0.574832 7.43684 1.21332 8.25496 1.56554Z" fill="white"/>
<path id="Vector_2" d="M12.6289 7.74023C11.9597 8.3819 10.8285 9.28105 9.23047 9.89355V9.91634L11.7692 13.7547C11.8788 13.9064 12.0522 13.9997 12.2368 13.9997H12.6807C13.1192 13.9997 13.4014 13.5155 13.1822 13.1247L11.5382 9.91634C12.542 9.23967 13.1597 8.5631 13.4943 8.11393C13.1597 7.99143 12.8712 7.86273 12.6289 7.74023Z" fill="white"/>
</g>
<defs>
<clipPath id="clip0_5132_9723">
<rect width="15" height="14" fill="white"/>
</clipPath>
</defs>
</svg>
