<svg width="32" height="32" viewBox="0 0 32 32" fill="none" xmlns="http://www.w3.org/2000/svg">
<path d="M16 4C15.6236 4 15.2753 4.09814 14.9666 4.25883L5.0973 9.50476C4.44494 9.86476 4 10.5322 4 11.3043V25.913C4 27.0661 4.97636 28 6.18182 28H25.8182C27.0236 28 28 27.0661 28 25.913V11.3043C28 10.5322 27.5551 9.86476 26.9027 9.50476L17.0334 4.25883C16.7247 4.09814 16.3764 4 16 4ZM18.9531 9.92867C19.1216 9.94505 19.2727 10.0798 19.2727 10.2527V12.3478C19.7331 12.711 20.7467 13.4775 20.9943 13.7113C21.3358 14.0337 21.44 14.7672 21.4695 15.0625C21.5764 15.2983 22.0584 16.5706 23.7472 18.1379C24.669 18.596 24.7358 19.1978 24.7358 19.8458C24.7227 19.9971 24.3651 21.6209 24.3651 21.6209C24.3651 21.6209 23.7687 21.9918 22.5327 21.9918C20.9345 21.9918 20.0355 20.7079 20.0355 20.7079C19.2533 20.7079 17.691 20.7502 16.6797 19.4219C15.1077 20.3349 16.0085 21.9684 16.0085 23.0109C16.0085 24.4467 15.3374 25.2018 15.3374 25.2018C7.95299 21.991 7.28125 18.7799 7.28125 18.7799C7.95216 14.9274 11.9809 10.9016 16.0085 10.2588L16.5689 11.716C17.3783 10.684 18.2612 10.1816 18.7848 9.95516C18.8399 9.93168 18.897 9.92321 18.9531 9.92867ZM19.8182 15.4783C19.6735 15.4783 19.5348 15.5332 19.4325 15.6311C19.3302 15.7289 19.2727 15.8616 19.2727 16C19.2727 16.1384 19.3302 16.2711 19.4325 16.3689C19.5348 16.4668 19.6735 16.5217 19.8182 16.5217C19.9628 16.5217 20.1016 16.4668 20.2039 16.3689C20.3062 16.2711 20.3636 16.1384 20.3636 16C20.3636 15.8616 20.3062 15.7289 20.2039 15.6311C20.1016 15.5332 19.9628 15.4783 19.8182 15.4783Z" fill="#A5B8C3" fill-opacity="0.5"/>
</svg>
