<svg width="20" height="21" viewBox="0 0 20 21" fill="none" xmlns="http://www.w3.org/2000/svg">
<g id="icon/action/info_outline_24px">
<path id="icon/action/info_outline_24px_2" fill-rule="evenodd" clip-rule="evenodd" d="M9.99935 2.16675C5.39935 2.16675 1.66602 5.90008 1.66602 10.5001C1.66602 15.1001 5.39935 18.8334 9.99935 18.8334C14.5993 18.8334 18.3327 15.1001 18.3327 10.5001C18.3327 5.90008 14.5993 2.16675 9.99935 2.16675ZM9.16602 6.33341V8.00008H10.8327V6.33341H9.16602ZM10.8327 13.8334C10.8327 14.2917 10.4577 14.6667 9.99935 14.6667C9.54102 14.6667 9.16602 14.2917 9.16602 13.8334V10.5001C9.16602 10.0417 9.54102 9.66675 9.99935 9.66675C10.4577 9.66675 10.8327 10.0417 10.8327 10.5001V13.8334ZM3.33268 10.5001C3.33268 14.1751 6.32435 17.1667 9.99935 17.1667C13.6743 17.1667 16.666 14.1751 16.666 10.5001C16.666 6.82508 13.6743 3.83341 9.99935 3.83341C6.32435 3.83341 3.33268 6.82508 3.33268 10.5001Z" fill="#262626"/>
</g>
</svg>
