<svg width="156" height="156" viewBox="0 0 156 156" fill="none" xmlns="http://www.w3.org/2000/svg">
<path d="M78 19.5C67.5431 19.5 59.0704 27.8801 58.6511 38.2395C49.9097 41.9715 42.4603 48.1942 37.232 56.1317C32.0036 64.0693 29.2275 73.3703 29.25 82.875C29.25 83.7135 29.211 84.63 29.25 85.6196C23.478 89.0078 19.5 95.2331 19.5 102.375C19.5 113.1 28.275 121.875 39 121.875C41.7983 121.875 44.5039 121.285 46.9219 120.198C55.3751 127.301 66.3829 131.625 78 131.625C89.6171 131.625 100.62 127.301 109.078 120.198C111.496 121.285 114.197 121.875 117 121.875C127.725 121.875 136.5 113.1 136.5 102.375C136.5 95.16 132.483 88.8371 126.599 85.4636C126.672 84.6836 126.75 83.8841 126.75 82.875C126.772 73.3703 123.996 64.0693 118.768 56.1317C113.54 48.1942 106.09 41.9715 97.3489 38.2395C96.9296 27.8801 88.4569 19.5 78 19.5ZM78 29.25C83.4454 29.25 87.75 33.5546 87.75 39C87.75 44.4454 83.4454 48.75 78 48.75C72.5546 48.75 68.25 44.4454 68.25 39C68.25 33.5546 72.5546 29.25 78 29.25ZM60.7864 47.9895C64.0575 54.1954 70.5364 58.5 78 58.5C85.4636 58.5 91.9425 54.1954 95.2136 47.9895C101.758 51.1677 107.273 56.1267 111.127 62.2973C114.98 68.4679 117.016 75.6 117 82.875C106.275 82.875 97.5 91.65 97.5 102.375C97.5 106.738 99.0064 110.697 101.463 113.953C94.6991 119.051 86.47 121.829 78 121.875C69.53 121.829 61.3009 119.051 54.5366 113.953C57.0912 110.633 58.4837 106.564 58.5 102.375C58.5 91.65 49.725 82.875 39 82.875C38.9841 75.6 41.0197 68.4679 44.8733 62.2973C48.7269 56.1267 54.2423 51.1677 60.7864 47.9895ZM39 92.625C44.4454 92.625 48.75 96.9296 48.75 102.375C48.75 107.82 44.4454 112.125 39 112.125C33.5546 112.125 29.25 107.82 29.25 102.375C29.25 96.9296 33.5546 92.625 39 92.625ZM117 92.625C122.445 92.625 126.75 96.9296 126.75 102.375C126.75 107.82 122.445 112.125 117 112.125C111.555 112.125 107.25 107.82 107.25 102.375C107.25 96.9296 111.555 92.625 117 92.625Z" fill="url(#paint0_linear_668_26095)"/>
<path d="M78 19.5C67.5431 19.5 59.0704 27.8801 58.6511 38.2395C49.9097 41.9715 42.4603 48.1942 37.232 56.1317C32.0036 64.0693 29.2275 73.3703 29.25 82.875C29.25 83.7135 29.211 84.63 29.25 85.6196C23.478 89.0078 19.5 95.2331 19.5 102.375C19.5 113.1 28.275 121.875 39 121.875C41.7983 121.875 44.5039 121.285 46.9219 120.198C55.3751 127.301 66.3829 131.625 78 131.625C89.6171 131.625 100.62 127.301 109.078 120.198C111.496 121.285 114.197 121.875 117 121.875C127.725 121.875 136.5 113.1 136.5 102.375C136.5 95.16 132.483 88.8371 126.599 85.4636C126.672 84.6836 126.75 83.8841 126.75 82.875C126.772 73.3703 123.996 64.0693 118.768 56.1317C113.54 48.1942 106.09 41.9715 97.3489 38.2395C96.9296 27.8801 88.4569 19.5 78 19.5ZM78 29.25C83.4454 29.25 87.75 33.5546 87.75 39C87.75 44.4454 83.4454 48.75 78 48.75C72.5546 48.75 68.25 44.4454 68.25 39C68.25 33.5546 72.5546 29.25 78 29.25ZM60.7864 47.9895C64.0575 54.1954 70.5364 58.5 78 58.5C85.4636 58.5 91.9425 54.1954 95.2136 47.9895C101.758 51.1677 107.273 56.1267 111.127 62.2973C114.98 68.4679 117.016 75.6 117 82.875C106.275 82.875 97.5 91.65 97.5 102.375C97.5 106.738 99.0064 110.697 101.463 113.953C94.6991 119.051 86.47 121.829 78 121.875C69.53 121.829 61.3009 119.051 54.5366 113.953C57.0912 110.633 58.4837 106.564 58.5 102.375C58.5 91.65 49.725 82.875 39 82.875C38.9841 75.6 41.0197 68.4679 44.8733 62.2973C48.7269 56.1267 54.2423 51.1677 60.7864 47.9895ZM39 92.625C44.4454 92.625 48.75 96.9296 48.75 102.375C48.75 107.82 44.4454 112.125 39 112.125C33.5546 112.125 29.25 107.82 29.25 102.375C29.25 96.9296 33.5546 92.625 39 92.625ZM117 92.625C122.445 92.625 126.75 96.9296 126.75 102.375C126.75 107.82 122.445 112.125 117 112.125C111.555 112.125 107.25 107.82 107.25 102.375C107.25 96.9296 111.555 92.625 117 92.625Z" fill="black" fill-opacity="0.2"/>
<g clip-path="url(#clip0_668_26095)">
<circle cx="77.371" cy="38.3709" r="28.3065" fill="#FAFAFA"/>
<circle cx="78.4128" cy="39.4128" r="19.7949" fill="#FAFAFA"/>
<path fill-rule="evenodd" clip-rule="evenodd" d="M77.3709 13.3669C63.5612 13.3669 52.3669 24.5612 52.3669 38.371C52.3669 52.1807 63.5612 63.375 77.3709 63.375C91.1806 63.375 102.375 52.1807 102.375 38.371C102.375 24.5612 91.1806 13.3669 77.3709 13.3669ZM68.6195 32.12C68.6195 30.9707 68.8459 29.8327 69.2857 28.7709C69.7255 27.7092 70.3701 26.7444 71.1827 25.9318C71.9954 25.1191 72.9601 24.4745 74.0219 24.0347C75.0837 23.5949 76.2217 23.3686 77.3709 23.3686C78.5202 23.3686 79.6582 23.5949 80.7199 24.0347C81.7817 24.4745 82.7465 25.1191 83.5591 25.9318C84.3717 26.7444 85.0164 27.7092 85.4562 28.7709C85.896 29.8327 86.1223 30.9707 86.1223 32.12C86.1223 34.441 85.2003 36.6669 83.5591 38.3081C81.9179 39.9494 79.6919 40.8714 77.3709 40.8714C75.0499 40.8714 72.8239 39.9494 71.1827 38.3081C69.5415 36.6669 68.6195 34.441 68.6195 32.12ZM93.0184 50.833C91.1467 53.1874 88.7673 55.0886 86.0577 56.3944C83.3482 57.7002 80.3787 58.377 77.3709 58.3742C74.3631 58.377 71.3936 57.7002 68.6841 56.3944C65.9746 55.0886 63.5951 53.1874 61.7234 50.833C65.7765 47.925 71.3074 45.8722 77.3709 45.8722C83.4344 45.8722 88.9653 47.925 93.0184 50.833Z" fill="url(#paint1_linear_668_26095)"/>
</g>
<g clip-path="url(#clip1_668_26095)">
<circle cx="38.371" cy="105.048" r="28.3065" fill="#FAFAFA"/>
<circle cx="39.4128" cy="106.09" r="19.7949" fill="#FAFAFA"/>
<path fill-rule="evenodd" clip-rule="evenodd" d="M38.371 80.0439C24.5612 80.0439 13.3669 91.2383 13.3669 105.048C13.3669 118.858 24.5612 130.052 38.371 130.052C52.1807 130.052 63.375 118.858 63.375 105.048C63.375 91.2383 52.1807 80.0439 38.371 80.0439ZM29.6196 98.797C29.6196 97.6477 29.8459 96.5097 30.2857 95.4479C30.7255 94.3862 31.3701 93.4214 32.1828 92.6088C32.9954 91.7961 33.9602 91.1515 35.022 90.7117C36.0837 90.2719 37.2217 90.0456 38.371 90.0456C39.5202 90.0456 40.6582 90.2719 41.72 90.7117C42.7818 91.1515 43.7465 91.7961 44.5592 92.6088C45.3718 93.4214 46.0164 94.3862 46.4562 95.4479C46.896 96.5097 47.1224 97.6477 47.1224 98.797C47.1224 101.118 46.2004 103.344 44.5592 104.985C42.9179 106.626 40.692 107.548 38.371 107.548C36.05 107.548 33.824 106.626 32.1828 104.985C30.5416 103.344 29.6196 101.118 29.6196 98.797ZM54.0185 117.51C52.1468 119.864 49.7673 121.766 47.0578 123.071C44.3483 124.377 41.3787 125.054 38.371 125.051C35.3632 125.054 32.3937 124.377 29.6842 123.071C26.9746 121.766 24.5952 119.864 22.7235 117.51C26.7766 114.602 32.3075 112.549 38.371 112.549C44.4345 112.549 49.9653 114.602 54.0185 117.51Z" fill="url(#paint2_linear_668_26095)"/>
</g>
<g clip-path="url(#clip2_668_26095)">
<circle cx="118.887" cy="105.048" r="28.3065" fill="#FAFAFA"/>
<circle cx="119.929" cy="106.09" r="19.7949" fill="#FAFAFA"/>
<path fill-rule="evenodd" clip-rule="evenodd" d="M118.887 80.0439C105.077 80.0439 93.8831 91.2383 93.8831 105.048C93.8831 118.858 105.077 130.052 118.887 130.052C132.697 130.052 143.891 118.858 143.891 105.048C143.891 91.2383 132.697 80.0439 118.887 80.0439ZM110.136 98.797C110.136 97.6477 110.362 96.5097 110.802 95.4479C111.242 94.3862 111.886 93.4214 112.699 92.6088C113.512 91.7961 114.476 91.1515 115.538 90.7117C116.6 90.2719 117.738 90.0456 118.887 90.0456C120.036 90.0456 121.174 90.2719 122.236 90.7117C123.298 91.1515 124.263 91.7961 125.075 92.6088C125.888 93.4214 126.533 94.3862 126.972 95.4479C127.412 96.5097 127.639 97.6477 127.639 98.797C127.639 101.118 126.716 103.344 125.075 104.985C123.434 106.626 121.208 107.548 118.887 107.548C116.566 107.548 114.34 106.626 112.699 104.985C111.058 103.344 110.136 101.118 110.136 98.797ZM134.535 117.51C132.663 119.864 130.283 121.766 127.574 123.071C124.864 124.377 121.895 125.054 118.887 125.051C115.879 125.054 112.91 124.377 110.2 123.071C107.491 121.766 105.111 119.864 103.24 117.51C107.293 114.602 112.824 112.549 118.887 112.549C124.951 112.549 130.481 114.602 134.535 117.51Z" fill="url(#paint3_linear_668_26095)"/>
</g>
<defs>
<linearGradient id="paint0_linear_668_26095" x1="78" y1="19.5" x2="78" y2="131.625" gradientUnits="userSpaceOnUse">
<stop stop-color="#3E479B"/>
<stop offset="1" stop-color="#558EE6"/>
</linearGradient>
<linearGradient id="paint1_linear_668_26095" x1="77.3709" y1="13.3669" x2="77.3709" y2="63.375" gradientUnits="userSpaceOnUse">
<stop stop-color="#3E479B"/>
<stop offset="1" stop-color="#558EE6"/>
</linearGradient>
<linearGradient id="paint2_linear_668_26095" x1="38.371" y1="80.0439" x2="38.371" y2="130.052" gradientUnits="userSpaceOnUse">
<stop stop-color="#3E479B"/>
<stop offset="1" stop-color="#558EE6"/>
</linearGradient>
<linearGradient id="paint3_linear_668_26095" x1="118.887" y1="80.0439" x2="118.887" y2="130.052" gradientUnits="userSpaceOnUse">
<stop stop-color="#3E479B"/>
<stop offset="1" stop-color="#558EE6"/>
</linearGradient>
<clipPath id="clip0_668_26095">
<rect width="66.6774" height="66.6774" fill="white" transform="translate(44.0322 5.03223)"/>
</clipPath>
<clipPath id="clip1_668_26095">
<rect width="66.6774" height="66.6774" fill="white" transform="translate(5.03229 71.7095)"/>
</clipPath>
<clipPath id="clip2_668_26095">
<rect width="66.6774" height="66.6774" fill="white" transform="translate(85.5484 71.7095)"/>
</clipPath>
</defs>
</svg>
