<svg width="16" height="16" viewBox="0 0 16 16" fill="none" xmlns="http://www.w3.org/2000/svg">
<g id="jam:medical">
<path id="Vector" d="M6.00065 9.94532V10.334C6.00065 11.1296 6.31672 11.8927 6.87933 12.4553C7.44194 13.0179 8.205 13.334 9.00065 13.334C9.7963 13.334 10.5594 13.0179 11.122 12.4553C11.6846 11.8927 12.0007 11.1296 12.0007 10.334V9.22065C11.5557 9.06338 11.1806 8.75385 10.9417 8.34678C10.7029 7.93971 10.6157 7.4613 10.6954 6.99613C10.7752 6.53095 11.0169 6.10895 11.3777 5.80474C11.7386 5.50052 12.1953 5.33366 12.6673 5.33366C13.1393 5.33366 13.5961 5.50052 13.9569 5.80474C14.3177 6.10895 14.5594 6.53095 14.6392 6.99613C14.719 7.4613 14.6317 7.93971 14.3929 8.34678C14.154 8.75385 13.779 9.06338 13.334 9.22065V10.334C13.334 11.4833 12.8774 12.5855 12.0648 13.3981C11.2521 14.2108 10.1499 14.6673 9.00065 14.6673C7.85138 14.6673 6.74918 14.2108 5.93652 13.3981C5.12386 12.5855 4.66732 11.4833 4.66732 10.334V9.94532C3.73527 9.7875 2.88919 9.3048 2.27905 8.58275C1.66891 7.86071 1.33411 6.94597 1.33398 6.00065L1.33398 2.66732C1.33398 2.3137 1.47446 1.97456 1.72451 1.72451C1.97456 1.47446 2.3137 1.33398 2.66732 1.33398H3.33398C3.5108 1.33398 3.68036 1.40422 3.80539 1.52925C3.93041 1.65427 4.00065 1.82384 4.00065 2.00065C4.00065 2.17746 3.93041 2.34703 3.80539 2.47206C3.68036 2.59708 3.5108 2.66732 3.33398 2.66732H2.66732V6.00065C2.66732 6.70789 2.94827 7.38617 3.44837 7.88627C3.94846 8.38637 4.62674 8.66732 5.33398 8.66732C6.04123 8.66732 6.71951 8.38637 7.2196 7.88627C7.7197 7.38617 8.00065 6.70789 8.00065 6.00065V2.66732H7.33398C7.15717 2.66732 6.9876 2.59708 6.86258 2.47206C6.73756 2.34703 6.66732 2.17746 6.66732 2.00065C6.66732 1.82384 6.73756 1.65427 6.86258 1.52925C6.9876 1.40422 7.15717 1.33398 7.33398 1.33398H8.00065C8.35427 1.33398 8.69341 1.47446 8.94346 1.72451C9.19351 1.97456 9.33398 2.3137 9.33398 2.66732V6.00065C9.33386 6.94597 8.99906 7.86071 8.38892 8.58275C7.77878 9.3048 6.9327 9.7875 6.00065 9.94532ZM12.6673 8.00065C12.8441 8.00065 13.0137 7.93041 13.1387 7.80539C13.2637 7.68036 13.334 7.5108 13.334 7.33398C13.334 7.15717 13.2637 6.9876 13.1387 6.86258C13.0137 6.73756 12.8441 6.66732 12.6673 6.66732C12.4905 6.66732 12.3209 6.73756 12.1959 6.86258C12.0709 6.9876 12.0007 7.15717 12.0007 7.33398C12.0007 7.5108 12.0709 7.68036 12.1959 7.80539C12.3209 7.93041 12.4905 8.00065 12.6673 8.00065Z" fill="white"/>
</g>
</svg>
