<svg width="32" height="32" viewBox="0 0 32 32" fill="none" xmlns="http://www.w3.org/2000/svg">
<g clip-path="url(#clip0_668_24118)">
<path fill-rule="evenodd" clip-rule="evenodd" d="M16 4C9.3724 4 4 9.3724 4 16C4 22.6276 9.3724 28 16 28C22.6276 28 28 22.6276 28 16C28 9.3724 22.6276 4 16 4ZM11.8 13C11.8 12.4484 11.9086 11.9023 12.1197 11.3927C12.3308 10.8832 12.6401 10.4202 13.0302 10.0302C13.4202 9.64015 13.8832 9.33078 14.3927 9.11971C14.9023 8.90864 15.4484 8.8 16 8.8C16.5516 8.8 17.0977 8.90864 17.6073 9.11971C18.1168 9.33078 18.5798 9.64015 18.9698 10.0302C19.3599 10.4202 19.6692 10.8832 19.8803 11.3927C20.0914 11.9023 20.2 12.4484 20.2 13C20.2 14.1139 19.7575 15.1822 18.9698 15.9698C18.1822 16.7575 17.1139 17.2 16 17.2C14.8861 17.2 13.8178 16.7575 13.0302 15.9698C12.2425 15.1822 11.8 14.1139 11.8 13ZM23.5096 21.9808C22.6113 23.1107 21.4694 24.0231 20.169 24.6498C18.8686 25.2765 17.4435 25.6013 16 25.6C14.5565 25.6013 13.1314 25.2765 11.831 24.6498C10.5306 24.0231 9.38868 23.1107 8.4904 21.9808C10.4356 20.5852 13.09 19.6 16 19.6C18.91 19.6 21.5644 20.5852 23.5096 21.9808Z" fill="#A5B8C3" fill-opacity="0.5"/>
</g>
<defs>
<clipPath id="clip0_668_24118">
<rect width="32" height="32" fill="white"/>
</clipPath>
</defs>
</svg>
