<svg width="172" height="172" viewBox="0 0 172 172" fill="none" xmlns="http://www.w3.org/2000/svg">
<g clip-path="url(#clip0_668_22465)">
<path d="M65.0377 46.4937C64.5001 45.9562 63.6939 45.6875 62.6189 45.6875C61.5439 45.6875 61.0064 46.4937 60.7376 47.0312L0.268897 167.969C-0.268603 169.044 0.000147117 170.119 0.806397 171.194C1.61265 172 2.9564 171.194 4.0314 170.656L124.969 110.188C125.775 109.919 126.313 109.112 126.313 108.306C126.581 107.5 126.044 106.694 125.506 105.888L65.0377 46.4937Z" fill="#F1C40F"/>
<path d="M2.6874 172C2.95615 172 3.49365 172 3.7624 171.731L124.7 111.263C125.506 110.994 126.044 110.188 126.044 109.381C126.044 108.575 125.775 107.769 125.237 106.962L95.4062 76.5938L0.806152 171.194C1.34365 171.731 1.88115 172 2.6874 172Z" fill="#F39C12"/>
<path d="M39.2378 138.137L21.769 155.606L8.33154 152.112L18.2753 132.494L39.2378 138.137ZM37.6253 93.2562L27.9503 112.875L56.7065 120.669L74.1753 103.2L37.6253 93.2562ZM98.0941 79.2812L65.0378 46.4937C64.5003 45.9562 63.694 45.6875 62.619 45.6875C61.544 45.6875 61.0065 46.4937 60.7378 47.0312L47.569 73.3687L91.9128 85.1937L98.0941 79.2812Z" fill="#E74C3C"/>
<path d="M35.2063 136.794L60.2 143.513L31.175 158.025L17.4688 154.263L35.2063 136.794ZM52.4062 119.594L88.6875 129.269L117.713 114.756L69.875 102.125L52.4062 119.594Z" fill="#C0392B"/>
<path d="M80.894 47.0313C88.419 51.0626 97.2877 57.7813 105.888 66.1126C144.588 104.813 121.744 127.656 83.044 88.9563C74.444 80.3563 67.7252 71.4876 63.9627 63.9626C62.0815 60.2001 60.7377 56.7063 60.2002 53.4813C59.6627 50.5251 60.2002 47.3001 62.3502 45.1501C64.5002 43.0001 67.7252 42.7313 70.6815 43.0001C73.6377 43.5376 77.1315 44.8813 80.894 47.0313ZM115.563 53.7501C117.175 53.7501 118.25 52.6751 118.25 51.0626C118.25 49.4501 117.175 48.3751 115.563 48.3751C113.95 48.3751 112.875 49.4501 112.875 51.0626C112.875 52.6751 113.95 53.7501 115.563 53.7501Z" fill="#BDC3C7"/>
<path d="M83.0439 88.9562C91.6439 97.5562 100.513 104.275 108.038 108.038C111.8 109.919 115.294 111.262 118.519 111.8C121.475 112.337 124.7 111.8 126.85 109.65C129 107.5 129.269 104.275 129 101.319C128.463 98.3625 127.119 94.6 125.238 90.8375C121.206 83.3125 114.488 74.4438 106.156 65.8438L83.0439 88.9562Z" fill="#ECF0F1"/>
<path d="M145.125 10.75C145.125 16.6625 140.287 21.5 134.375 21.5C131.419 21.5 129 23.9188 129 26.875V29.5625C129 31.175 127.925 32.25 126.312 32.25C124.7 32.25 123.625 31.175 123.625 29.5625V26.875C123.625 20.9625 128.463 16.125 134.375 16.125C137.331 16.125 139.75 13.7063 139.75 10.75V8.0625C139.75 6.45 140.825 5.375 142.438 5.375C144.05 5.375 145.125 6.45 145.125 8.0625V10.75ZM72.5625 32.25C77.1313 32.25 80.625 28.7563 80.625 24.1875C80.625 19.6187 77.1313 16.125 72.5625 16.125C67.9937 16.125 64.5 19.6187 64.5 24.1875C64.5 28.7563 67.9937 32.25 72.5625 32.25ZM142.438 69.875C140.825 69.875 139.75 70.95 139.75 72.5625C139.75 74.175 140.825 75.25 142.438 75.25C144.05 75.25 145.125 74.175 145.125 72.5625C145.125 70.95 144.05 69.875 142.438 69.875Z" fill="#F1C40F"/>
<path d="M59.125 2.6875C59.125 1.075 60.2 0 61.8125 0C63.425 0 64.5 1.075 64.5 2.6875C64.5 4.3 63.425 5.375 61.8125 5.375C60.2 5.375 59.125 4.3 59.125 2.6875ZM163.938 69.875C168.506 69.875 172 66.3812 172 61.8125C172 57.2438 168.506 53.75 163.938 53.75C159.369 53.75 155.875 57.2438 155.875 61.8125C155.875 66.3812 159.369 69.875 163.938 69.875ZM107.5 30.3687C107.769 29.025 106.962 27.4125 105.619 27.1438C104.275 26.875 102.662 27.6812 102.394 29.025C98.3625 43.2687 91.9125 55.0938 81.7 65.575C80.625 66.65 80.625 68.2625 81.7 69.3375C82.775 70.4125 84.3875 70.4125 85.4625 69.3375C96.2125 58.05 103.2 45.4188 107.5 30.3687ZM161.25 104.812C161.25 103.2 160.175 102.125 158.562 102.125C156.95 102.125 155.875 103.2 155.875 104.812V107.5H153.188C151.575 107.5 150.5 108.575 150.5 110.188C150.5 111.8 151.575 112.875 153.188 112.875H155.875V115.562C155.875 117.175 156.95 118.25 158.562 118.25C160.175 118.25 161.25 117.175 161.25 115.562V112.875H163.938C165.55 112.875 166.625 111.8 166.625 110.188C166.625 108.575 165.55 107.5 163.938 107.5H161.25V104.812Z" fill="#9B59B6"/>
<path d="M166.625 5.375H169.312C170.925 5.375 172 6.45 172 8.0625C172 9.675 170.925 10.75 169.312 10.75H166.625V13.4375C166.625 15.05 165.55 16.125 163.938 16.125C162.325 16.125 161.25 15.05 161.25 13.4375V10.75H158.562C156.95 10.75 155.875 9.675 155.875 8.0625C155.875 6.45 156.95 5.375 158.562 5.375H161.25V2.6875C161.25 1.075 162.325 0 163.938 0C165.55 0 166.625 1.075 166.625 2.6875V5.375ZM139.75 48.375C133.838 48.375 129 53.2125 129 59.125C129 62.0812 126.581 64.5 123.625 64.5H120.938C119.325 64.5 118.25 65.575 118.25 67.1875C118.25 68.8 119.325 69.875 120.938 69.875H123.625C129.537 69.875 134.375 65.0375 134.375 59.125C134.375 56.1688 136.794 53.75 139.75 53.75H142.438C144.05 53.75 145.125 52.675 145.125 51.0625C145.125 49.45 144.05 48.375 142.438 48.375H139.75ZM83.3125 43C84.925 43 86 41.925 86 40.3125C86 38.7 84.925 37.625 83.3125 37.625C81.7 37.625 80.625 38.7 80.625 40.3125C80.625 41.925 81.7 43 83.3125 43ZM169.312 91.375C170.925 91.375 172 90.3 172 88.6875C172 87.075 170.925 86 169.312 86C167.7 86 166.625 87.075 166.625 88.6875C166.625 90.3 167.7 91.375 169.312 91.375Z" fill="#E74C3C"/>
<path d="M107.5 5.375H110.188C111.8 5.375 112.875 6.45 112.875 8.0625C112.875 9.675 111.8 10.75 110.188 10.75H107.5V13.4375C107.5 15.05 106.425 16.125 104.812 16.125C103.2 16.125 102.125 15.05 102.125 13.4375V10.75H99.4375C97.825 10.75 96.75 9.675 96.75 8.0625C96.75 6.45 97.825 5.375 99.4375 5.375H102.125V2.6875C102.125 1.075 103.2 0 104.812 0C106.425 0 107.5 1.075 107.5 2.6875V5.375ZM148.888 86.2687C142.169 83.3125 134.375 82.775 127.119 83.5813C119.862 84.6562 112.875 87.6125 108.306 92.1813C107.231 93.2562 107.231 94.8688 108.306 95.9437C109.381 97.0188 110.994 97.0188 112.069 95.9437C115.563 92.45 121.206 90.0312 127.925 88.9562C134.375 87.8812 141.362 88.6875 146.737 91.1063C148.081 91.6438 149.694 91.1063 150.231 89.7625C150.769 88.4188 150.231 86.8062 148.888 86.2687ZM153.188 37.625C154.8 37.625 155.875 36.55 155.875 34.9375C155.875 33.325 154.8 32.25 153.188 32.25C151.575 32.25 150.5 33.325 150.5 34.9375C150.5 36.55 151.575 37.625 153.188 37.625Z" fill="#3498DB"/>
</g>
<defs>
<clipPath id="clip0_668_22465">
<rect width="172" height="172" fill="white"/>
</clipPath>
</defs>
</svg>
