<svg width="23" height="24" viewBox="0 0 23 24" fill="none" xmlns="http://www.w3.org/2000/svg">
<g id="Play">
<path id="Vector" fill-rule="evenodd" clip-rule="evenodd" d="M18.1599 10.7947C18.1599 10.7947 18.475 10.9837 18.657 11.3043C18.657 11.3043 18.8405 11.6275 18.8405 11.9997C18.8405 11.9997 18.8405 12.3718 18.657 12.695C18.657 12.695 18.4735 13.0183 18.1547 13.2077L5.52271 20.9697C5.52271 20.9697 5.19999 21.1697 4.81819 21.1782C4.81819 21.1782 4.43639 21.1867 4.10282 20.9999C4.10282 20.9999 3.76925 20.8131 3.57563 20.4823C3.57563 20.4823 3.38201 20.1516 3.38159 19.7679L3.38159 4.23222C3.38159 4.23222 3.38201 3.84772 3.57563 3.51698C3.57563 3.51698 3.76925 3.18623 4.10283 2.99941C4.10283 2.99941 4.4364 2.8126 4.8182 2.82108C4.8182 2.82108 5.19999 2.82957 5.52502 3.03102L18.1599 10.7947ZM4.78712 4.233L17.4269 11.9997L4.78943 19.7649L4.78712 19.7663L4.78712 4.233Z" fill="#0369D8" stroke="#0369D8" stroke-width="1.5"/>
</g>
</svg>
