<svg width="20" height="20" viewBox="0 0 20 20" fill="none" xmlns="http://www.w3.org/2000/svg">
<g id="pepicons-pop:plus">
<g id="Group">
<path id="Vector" d="M3.75 11.25C3.41848 11.25 3.10054 11.1183 2.86612 10.8839C2.6317 10.6495 2.5 10.3315 2.5 10C2.5 9.66848 2.6317 9.35054 2.86612 9.11612C3.10054 8.8817 3.41848 8.75 3.75 8.75H16.25C16.5815 8.75 16.8995 8.8817 17.1339 9.11612C17.3683 9.35054 17.5 9.66848 17.5 10C17.5 10.3315 17.3683 10.6495 17.1339 10.8839C16.8995 11.1183 16.5815 11.25 16.25 11.25H3.75Z" fill="#0369D8"/>
<path id="Vector_2" d="M8.75 3.75C8.75 3.41848 8.8817 3.10054 9.11612 2.86612C9.35054 2.6317 9.66848 2.5 10 2.5C10.3315 2.5 10.6495 2.6317 10.8839 2.86612C11.1183 3.10054 11.25 3.41848 11.25 3.75V16.25C11.25 16.5815 11.1183 16.8995 10.8839 17.1339C10.6495 17.3683 10.3315 17.5 10 17.5C9.66848 17.5 9.35054 17.3683 9.11612 17.1339C8.8817 16.8995 8.75 16.5815 8.75 16.25V3.75Z" fill="#0369D8"/>
</g>
</g>
</svg>
