<svg width="331" height="51" viewBox="0 0 331 51" fill="none" xmlns="http://www.w3.org/2000/svg">
<path d="M0.0320001 50V1.72H21.384C23.6053 1.72 25.6453 2.17333 27.504 3.08C29.408 3.98666 31.04 5.21067 32.4 6.752C33.8053 8.29333 34.8707 10.016 35.596 11.92C36.3667 13.824 36.752 15.7733 36.752 17.768C36.752 19.808 36.3893 21.78 35.664 23.684C34.984 25.5427 33.9867 27.1747 32.672 28.58C31.3573 29.9853 29.816 31.0733 28.048 31.844L39.064 50H28.728L18.8 33.816H9.416V50H0.0320001ZM9.416 25.588H21.18C22.3587 25.588 23.4013 25.248 24.308 24.568C25.2147 23.8427 25.94 22.8907 26.484 21.712C27.028 20.5333 27.3 19.2187 27.3 17.768C27.3 16.2267 26.9827 14.8893 26.348 13.756C25.7133 12.5773 24.8973 11.648 23.9 10.968C22.948 10.288 21.9053 9.948 20.772 9.948H9.416V25.588ZM59.6993 50.68C56.8433 50.68 54.2593 50.204 51.9473 49.252C49.6353 48.2547 47.6633 46.9173 46.0313 45.24C44.3993 43.5173 43.13 41.568 42.2233 39.392C41.362 37.1707 40.9313 34.836 40.9313 32.388C40.9313 28.988 41.6793 25.8827 43.1753 23.072C44.7167 20.2613 46.8927 18.0173 49.7033 16.34C52.5593 14.6173 55.914 13.756 59.7673 13.756C63.666 13.756 66.998 14.6173 69.7633 16.34C72.5287 18.0173 74.6367 20.2613 76.0873 23.072C77.5833 25.8373 78.3313 28.8293 78.3313 32.048C78.3313 32.592 78.3087 33.1587 78.2633 33.748C78.218 34.292 78.1727 34.7453 78.1273 35.108H50.5873C50.7687 36.9213 51.29 38.508 52.1513 39.868C53.058 41.228 54.1913 42.2707 55.5513 42.996C56.9567 43.676 58.4527 44.016 60.0393 44.016C61.8527 44.016 63.5527 43.5853 65.1393 42.724C66.7713 41.8173 67.882 40.6387 68.4713 39.188L76.2913 41.364C75.43 43.1773 74.1833 44.7867 72.5513 46.192C70.9647 47.5973 69.0833 48.708 66.9073 49.524C64.7313 50.2947 62.3287 50.68 59.6993 50.68ZM50.3833 29.328H69.0153C68.834 27.5147 68.3127 25.9507 67.4513 24.636C66.6353 23.276 65.5473 22.2333 64.1873 21.508C62.8273 20.7373 61.3087 20.352 59.6313 20.352C57.9993 20.352 56.5033 20.7373 55.1433 21.508C53.8287 22.2333 52.7407 23.276 51.8793 24.636C51.0633 25.9507 50.5647 27.5147 50.3833 29.328ZM81.4344 39.46C81.4344 37.148 82.069 35.1307 83.3384 33.408C84.653 31.64 86.4664 30.28 88.7784 29.328C91.0904 28.376 93.7424 27.9 96.7344 27.9C98.2304 27.9 99.749 28.0133 101.29 28.24C102.832 28.4667 104.169 28.8293 105.302 29.328V27.424C105.302 25.1573 104.622 23.412 103.262 22.188C101.948 20.964 99.9757 20.352 97.3464 20.352C95.397 20.352 93.5384 20.692 91.7704 21.372C90.0024 22.052 88.1437 23.0493 86.1944 24.364L83.2704 18.38C85.6277 16.8387 88.0304 15.6827 90.4784 14.912C92.9717 14.1413 95.5784 13.756 98.2984 13.756C103.376 13.756 107.32 15.0253 110.13 17.564C112.986 20.1027 114.414 23.7293 114.414 28.444V39.8C114.414 40.752 114.573 41.432 114.89 41.84C115.253 42.248 115.82 42.4973 116.59 42.588V50C115.774 50.136 115.026 50.2493 114.346 50.34C113.712 50.4307 113.168 50.476 112.714 50.476C110.901 50.476 109.518 50.068 108.566 49.252C107.66 48.436 107.093 47.4387 106.866 46.26L106.662 44.424C105.121 46.4187 103.194 47.96 100.882 49.048C98.5704 50.136 96.213 50.68 93.8104 50.68C91.453 50.68 89.3224 50.204 87.4184 49.252C85.5597 48.2547 84.0864 46.9173 82.9984 45.24C81.9557 43.5173 81.4344 41.5907 81.4344 39.46ZM103.602 41.296C104.101 40.752 104.509 40.208 104.826 39.664C105.144 39.12 105.302 38.6213 105.302 38.168V34.564C104.214 34.1107 103.036 33.7707 101.766 33.544C100.497 33.272 99.2957 33.136 98.1624 33.136C95.805 33.136 93.8557 33.6573 92.3144 34.7C90.8184 35.6973 90.0704 37.0347 90.0704 38.712C90.0704 39.6187 90.3197 40.48 90.8184 41.296C91.317 42.112 92.0424 42.7693 92.9944 43.268C93.9464 43.7667 95.0797 44.016 96.3944 44.016C97.7544 44.016 99.0917 43.7667 100.406 43.268C101.721 42.724 102.786 42.0667 103.602 41.296ZM122.861 0.359999H131.973V38.576C131.973 40.208 132.245 41.3187 132.789 41.908C133.333 42.452 134.081 42.724 135.033 42.724C135.759 42.724 136.507 42.6333 137.277 42.452C138.048 42.2707 138.728 42.044 139.317 41.772L140.541 48.708C139.317 49.2973 137.889 49.7507 136.257 50.068C134.625 50.3853 133.152 50.544 131.837 50.544C128.981 50.544 126.76 49.796 125.173 48.3C123.632 46.7587 122.861 44.5827 122.861 41.772V0.359999ZM185.991 1.72V50H176.675V29.396H154.779V50H145.395V1.72H154.779V21.236H176.675V1.72H185.991ZM211.038 50.68C208.136 50.68 205.53 50.204 203.218 49.252C200.906 48.2547 198.934 46.8947 197.302 45.172C195.715 43.4493 194.491 41.4773 193.63 39.256C192.768 37.0347 192.338 34.7 192.338 32.252C192.338 29.7587 192.768 27.4013 193.63 25.18C194.491 22.9587 195.715 20.9867 197.302 19.264C198.934 17.5413 200.906 16.204 203.218 15.252C205.53 14.2547 208.136 13.756 211.038 13.756C213.939 13.756 216.523 14.2547 218.79 15.252C221.102 16.204 223.074 17.5413 224.706 19.264C226.338 20.9867 227.562 22.9587 228.378 25.18C229.239 27.4013 229.67 29.7587 229.67 32.252C229.67 34.7 229.239 37.0347 228.378 39.256C227.562 41.4773 226.338 43.4493 224.706 45.172C223.119 46.8947 221.17 48.2547 218.858 49.252C216.546 50.204 213.939 50.68 211.038 50.68ZM201.722 32.252C201.722 34.3373 202.13 36.196 202.946 37.828C203.762 39.4147 204.872 40.6613 206.278 41.568C207.683 42.4747 209.27 42.928 211.038 42.928C212.76 42.928 214.324 42.4747 215.73 41.568C217.135 40.616 218.246 39.3467 219.062 37.76C219.923 36.128 220.354 34.2693 220.354 32.184C220.354 30.144 219.923 28.308 219.062 26.676C218.246 25.044 217.135 23.7747 215.73 22.868C214.324 21.9613 212.76 21.508 211.038 21.508C209.27 21.508 207.683 21.984 206.278 22.936C204.872 23.8427 203.762 25.112 202.946 26.744C202.13 28.3307 201.722 30.1667 201.722 32.252ZM257.036 22.256C254.271 22.256 251.8 22.8 249.624 23.888C247.448 24.9307 245.884 26.4493 244.932 28.444V50H235.82V14.368H244.184V21.984C245.453 19.536 247.063 17.6093 249.012 16.204C250.961 14.7987 253.024 14.028 255.2 13.892C255.699 13.892 256.084 13.892 256.356 13.892C256.628 13.892 256.855 13.9147 257.036 13.96V22.256ZM275.241 50.68C272.203 50.68 269.302 50.1813 266.537 49.184C263.771 48.1867 261.391 46.7133 259.397 44.764L262.661 38.848C264.791 40.5707 266.877 41.84 268.917 42.656C271.002 43.472 272.997 43.88 274.901 43.88C276.669 43.88 278.074 43.5627 279.117 42.928C280.205 42.2933 280.749 41.3413 280.749 40.072C280.749 39.2107 280.454 38.5533 279.865 38.1C279.275 37.6013 278.414 37.1707 277.281 36.808C276.193 36.4453 274.855 36.0373 273.269 35.584C270.639 34.7227 268.441 33.884 266.673 33.068C264.905 32.252 263.567 31.232 262.661 30.008C261.799 28.7387 261.369 27.1293 261.369 25.18C261.369 22.8227 261.958 20.8053 263.137 19.128C264.361 17.4053 266.038 16.068 268.169 15.116C270.345 14.164 272.883 13.688 275.785 13.688C278.323 13.688 280.726 14.096 282.993 14.912C285.259 15.6827 287.322 16.952 289.181 18.72L285.509 24.5C283.695 23.0947 281.973 22.0747 280.341 21.44C278.709 20.76 277.054 20.42 275.377 20.42C274.425 20.42 273.518 20.5333 272.657 20.76C271.841 20.9867 271.161 21.372 270.617 21.916C270.118 22.4147 269.869 23.14 269.869 24.092C269.869 24.9533 270.095 25.6333 270.549 26.132C271.047 26.5853 271.773 26.9933 272.725 27.356C273.722 27.7187 274.923 28.1267 276.329 28.58C279.185 29.396 281.587 30.2347 283.537 31.096C285.531 31.9573 287.027 33.0227 288.025 34.292C289.022 35.516 289.521 37.216 289.521 39.392C289.521 42.928 288.229 45.6933 285.645 47.688C283.061 49.6827 279.593 50.68 275.241 50.68ZM312.242 50.68C309.386 50.68 306.802 50.204 304.49 49.252C302.178 48.2547 300.206 46.9173 298.574 45.24C296.942 43.5173 295.673 41.568 294.766 39.392C293.905 37.1707 293.474 34.836 293.474 32.388C293.474 28.988 294.222 25.8827 295.718 23.072C297.26 20.2613 299.436 18.0173 302.246 16.34C305.102 14.6173 308.457 13.756 312.31 13.756C316.209 13.756 319.541 14.6173 322.306 16.34C325.072 18.0173 327.18 20.2613 328.63 23.072C330.126 25.8373 330.874 28.8293 330.874 32.048C330.874 32.592 330.852 33.1587 330.806 33.748C330.761 34.292 330.716 34.7453 330.67 35.108H303.13C303.312 36.9213 303.833 38.508 304.694 39.868C305.601 41.228 306.734 42.2707 308.094 42.996C309.5 43.676 310.996 44.016 312.582 44.016C314.396 44.016 316.096 43.5853 317.682 42.724C319.314 41.8173 320.425 40.6387 321.014 39.188L328.834 41.364C327.973 43.1773 326.726 44.7867 325.094 46.192C323.508 47.5973 321.626 48.708 319.45 49.524C317.274 50.2947 314.872 50.68 312.242 50.68ZM302.926 29.328H321.558C321.377 27.5147 320.856 25.9507 319.994 24.636C319.178 23.276 318.09 22.2333 316.73 21.508C315.37 20.7373 313.852 20.352 312.174 20.352C310.542 20.352 309.046 20.7373 307.686 21.508C306.372 22.2333 305.284 23.276 304.422 24.636C303.606 25.9507 303.108 27.5147 302.926 29.328Z" fill="#1B4965"/>
</svg>
