<svg width="28" height="28" viewBox="0 0 28 28" fill="none" xmlns="http://www.w3.org/2000/svg">
<g id="Send_hor_fill">
<path id="Vector 121" d="M4.88182 8.28334L7.47762 13.0423C7.73315 13.5108 7.86091 13.745 7.86091 14C7.86091 14.255 7.73315 14.4892 7.47762 14.9577L4.88182 19.7167C3.6909 21.9 3.09544 22.9917 3.58753 23.5193C4.07962 24.0468 5.21005 23.5287 7.47092 22.4925L22.0332 15.8181C23.7443 15.0338 24.5999 14.6417 24.5999 14C24.5999 13.3583 23.7443 12.9662 22.0332 12.1819L7.47092 5.50751C5.21005 4.47127 4.07962 3.95316 3.58753 4.48074C3.09544 5.00831 3.6909 6.09999 4.88182 8.28334Z" fill="#0369D8"/>
</g>
</svg>
