<svg width="15" height="16" viewBox="0 0 15 16" fill="none" xmlns="http://www.w3.org/2000/svg">
<g id="fi:share-2">
<path id="Vector" d="M11.25 14.25C12.2855 14.25 13.125 13.4105 13.125 12.375C13.125 11.3395 12.2855 10.5 11.25 10.5C10.2145 10.5 9.375 11.3395 9.375 12.375C9.375 13.4105 10.2145 14.25 11.25 14.25Z" stroke="white" stroke-width="1.5" stroke-linecap="round" stroke-linejoin="round"/>
<path id="Vector_2" d="M3.75 9.875C4.78553 9.875 5.625 9.03553 5.625 8C5.625 6.96447 4.78553 6.125 3.75 6.125C2.71447 6.125 1.875 6.96447 1.875 8C1.875 9.03553 2.71447 9.875 3.75 9.875Z" stroke="white" stroke-width="1.5" stroke-linecap="round" stroke-linejoin="round"/>
<path id="Vector_3" d="M5.36865 8.94336L9.6374 11.4309" stroke="white" stroke-width="1.5" stroke-linecap="round" stroke-linejoin="round"/>
<path id="Vector_4" d="M11.25 5.5C12.2855 5.5 13.125 4.66053 13.125 3.625C13.125 2.58947 12.2855 1.75 11.25 1.75C10.2145 1.75 9.375 2.58947 9.375 3.625C9.375 4.66053 10.2145 5.5 11.25 5.5Z" stroke="white" stroke-width="1.5" stroke-linecap="round" stroke-linejoin="round"/>
<path id="Vector_5" d="M9.63115 4.56836L5.36865 7.05586" stroke="white" stroke-width="1.5" stroke-linecap="round" stroke-linejoin="round"/>
</g>
</svg>
