<svg width="140" height="40" viewBox="0 0 140 40" fill="none" xmlns="http://www.w3.org/2000/svg">
<rect width="140" height="40" rx="20" fill="#0369D8"/>
<path d="M19 21C18.7348 21 18.4804 20.8946 18.2929 20.7071C18.1054 20.5196 18 20.2652 18 20C18 19.7348 18.1054 19.4804 18.2929 19.2929C18.4804 19.1054 18.7348 19 19 19H29C29.2652 19 29.5196 19.1054 29.7071 19.2929C29.8946 19.4804 30 19.7348 30 20C30 20.2652 29.8946 20.5196 29.7071 20.7071C29.5196 20.8946 29.2652 21 29 21H19Z" fill="white"/>
<path d="M23 15C23 14.7348 23.1054 14.4804 23.2929 14.2929C23.4804 14.1054 23.7348 14 24 14C24.2652 14 24.5196 14.1054 24.7071 14.2929C24.8946 14.4804 25 14.7348 25 15V25C25 25.2652 24.8946 25.5196 24.7071 25.7071C24.5196 25.8946 24.2652 26 24 26C23.7348 26 23.4804 25.8946 23.2929 25.7071C23.1054 25.5196 23 25.2652 23 25V15Z" fill="white"/>
<path d="M39.918 25.112C39.6473 25.112 39.4373 25.0373 39.288 24.888C39.148 24.7387 39.078 24.524 39.078 24.244V15.914C39.078 15.6247 39.148 15.4053 39.288 15.256C39.4373 15.0973 39.6287 15.018 39.862 15.018C40.0767 15.018 40.2353 15.06 40.338 15.144C40.45 15.2187 40.5807 15.3493 40.73 15.536L46.092 22.494H45.728V15.872C45.728 15.6013 45.798 15.3913 45.938 15.242C46.0873 15.0927 46.2973 15.018 46.568 15.018C46.8387 15.018 47.044 15.0927 47.184 15.242C47.324 15.3913 47.394 15.6013 47.394 15.872V24.272C47.394 24.5333 47.3287 24.7387 47.198 24.888C47.0673 25.0373 46.89 25.112 46.666 25.112C46.4513 25.112 46.2787 25.07 46.148 24.986C46.0267 24.902 45.8913 24.7667 45.742 24.58L40.394 17.622H40.744V24.244C40.744 24.524 40.674 24.7387 40.534 24.888C40.394 25.0373 40.1887 25.112 39.918 25.112ZM52.7567 25.14C51.982 25.14 51.3147 24.9953 50.7547 24.706C50.1947 24.4167 49.7607 24.006 49.4527 23.474C49.154 22.942 49.0047 22.312 49.0047 21.584C49.0047 20.8747 49.1493 20.254 49.4387 19.722C49.7373 19.19 50.1433 18.7747 50.6567 18.476C51.1793 18.168 51.772 18.014 52.4347 18.014C52.92 18.014 53.354 18.0933 53.7367 18.252C54.1287 18.4107 54.46 18.6393 54.7307 18.938C55.0107 19.2367 55.2207 19.6007 55.3607 20.03C55.51 20.45 55.5847 20.926 55.5847 21.458C55.5847 21.626 55.524 21.7567 55.4027 21.85C55.2907 21.934 55.1273 21.976 54.9127 21.976H50.4187V20.968H54.3527L54.1287 21.178C54.1287 20.7487 54.0633 20.3893 53.9327 20.1C53.8113 19.8107 53.6293 19.5913 53.3867 19.442C53.1533 19.2833 52.8593 19.204 52.5047 19.204C52.1127 19.204 51.7767 19.2973 51.4967 19.484C51.226 19.6613 51.016 19.918 50.8667 20.254C50.7267 20.5807 50.6567 20.9727 50.6567 21.43V21.528C50.6567 22.2933 50.834 22.8673 51.1887 23.25C51.5527 23.6233 52.0847 23.81 52.7847 23.81C53.0273 23.81 53.298 23.782 53.5967 23.726C53.9047 23.6607 54.194 23.5533 54.4647 23.404C54.6607 23.292 54.8333 23.2453 54.9827 23.264C55.132 23.2733 55.2487 23.3247 55.3327 23.418C55.426 23.5113 55.482 23.628 55.5007 23.768C55.5193 23.8987 55.4913 24.034 55.4167 24.174C55.3513 24.314 55.2347 24.4353 55.0667 24.538C54.74 24.7433 54.362 24.8973 53.9327 25C53.5127 25.0933 53.1207 25.14 52.7567 25.14ZM59.5072 25.112C59.2738 25.112 59.0732 25.056 58.9052 24.944C58.7372 24.8227 58.6018 24.636 58.4992 24.384L56.4692 19.204C56.3852 18.98 56.3572 18.784 56.3852 18.616C56.4225 18.4387 56.5112 18.2987 56.6512 18.196C56.7912 18.0933 56.9778 18.042 57.2112 18.042C57.4165 18.042 57.5845 18.0933 57.7152 18.196C57.8458 18.2893 57.9578 18.4713 58.0512 18.742L59.7452 23.404H59.4232L61.1732 18.63C61.2478 18.4247 61.3458 18.2753 61.4672 18.182C61.5978 18.0887 61.7658 18.042 61.9712 18.042C62.1765 18.042 62.3445 18.0933 62.4752 18.196C62.6058 18.2893 62.7038 18.434 62.7692 18.63L64.4912 23.404H64.1972L65.9052 18.7C65.9985 18.448 66.1152 18.2753 66.2552 18.182C66.4045 18.0887 66.5678 18.042 66.7452 18.042C66.9692 18.042 67.1418 18.098 67.2632 18.21C67.3845 18.322 67.4545 18.4667 67.4732 18.644C67.4918 18.812 67.4592 18.9987 67.3752 19.204L65.3592 24.384C65.2658 24.6267 65.1305 24.8087 64.9532 24.93C64.7852 25.0513 64.5845 25.112 64.3512 25.112C64.1178 25.112 63.9125 25.0513 63.7352 24.93C63.5672 24.8087 63.4365 24.6267 63.3432 24.384L61.5092 19.526H62.3072L60.5152 24.37C60.4218 24.622 60.2912 24.8087 60.1232 24.93C59.9552 25.0513 59.7498 25.112 59.5072 25.112ZM74.8515 25.14C74.3568 25.14 73.9135 25.0467 73.5215 24.86C73.1388 24.664 72.8355 24.4027 72.6115 24.076C72.3968 23.7493 72.2895 23.3807 72.2895 22.97C72.2895 22.466 72.4202 22.0693 72.6815 21.78C72.9428 21.4813 73.3675 21.2667 73.9555 21.136C74.5435 21.0053 75.3322 20.94 76.3215 20.94H77.0215V21.948H76.3355C75.7568 21.948 75.2948 21.976 74.9495 22.032C74.6042 22.088 74.3568 22.186 74.2075 22.326C74.0675 22.4567 73.9975 22.6433 73.9975 22.886C73.9975 23.194 74.1048 23.446 74.3195 23.642C74.5342 23.838 74.8328 23.936 75.2155 23.936C75.5235 23.936 75.7942 23.866 76.0275 23.726C76.2702 23.5767 76.4615 23.376 76.6015 23.124C76.7415 22.872 76.8115 22.5827 76.8115 22.256V20.646C76.8115 20.1793 76.7088 19.8433 76.5035 19.638C76.2982 19.4327 75.9528 19.33 75.4675 19.33C75.1968 19.33 74.9028 19.3627 74.5855 19.428C74.2775 19.4933 73.9508 19.6053 73.6055 19.764C73.4282 19.848 73.2695 19.8713 73.1295 19.834C72.9988 19.7967 72.8962 19.722 72.8215 19.61C72.7468 19.4887 72.7095 19.358 72.7095 19.218C72.7095 19.078 72.7468 18.9427 72.8215 18.812C72.8962 18.672 73.0222 18.5693 73.1995 18.504C73.6288 18.3267 74.0395 18.2007 74.4315 18.126C74.8328 18.0513 75.1968 18.014 75.5235 18.014C76.1955 18.014 76.7462 18.1167 77.1755 18.322C77.6142 18.5273 77.9408 18.84 78.1555 19.26C78.3702 19.6707 78.4775 20.2027 78.4775 20.856V24.216C78.4775 24.5053 78.4075 24.7293 78.2675 24.888C78.1275 25.0373 77.9268 25.112 77.6655 25.112C77.4042 25.112 77.1988 25.0373 77.0495 24.888C76.9095 24.7293 76.8395 24.5053 76.8395 24.216V23.544H76.9515C76.8862 23.8707 76.7555 24.1553 76.5595 24.398C76.3728 24.6313 76.1348 24.8133 75.8455 24.944C75.5562 25.0747 75.2248 25.14 74.8515 25.14ZM81.1218 25.112C80.8418 25.112 80.6271 25.0373 80.4778 24.888C80.3284 24.7293 80.2538 24.5053 80.2538 24.216V18.924C80.2538 18.6347 80.3284 18.4153 80.4778 18.266C80.6271 18.1167 80.8371 18.042 81.1078 18.042C81.3784 18.042 81.5884 18.1167 81.7378 18.266C81.8871 18.4153 81.9618 18.6347 81.9618 18.924V19.876L81.8078 19.526C82.0131 19.0313 82.3304 18.658 82.7598 18.406C83.1984 18.1447 83.6931 18.014 84.2438 18.014C84.7944 18.014 85.2471 18.1167 85.6018 18.322C85.9564 18.5273 86.2224 18.84 86.3998 19.26C86.5771 19.6707 86.6658 20.1933 86.6658 20.828V24.216C86.6658 24.5053 86.5911 24.7293 86.4418 24.888C86.2924 25.0373 86.0778 25.112 85.7978 25.112C85.5178 25.112 85.2984 25.0373 85.1398 24.888C84.9904 24.7293 84.9158 24.5053 84.9158 24.216V20.912C84.9158 20.38 84.8131 19.9927 84.6078 19.75C84.4118 19.5073 84.1038 19.386 83.6838 19.386C83.1704 19.386 82.7598 19.5493 82.4518 19.876C82.1531 20.1933 82.0038 20.618 82.0038 21.15V24.216C82.0038 24.8133 81.7098 25.112 81.1218 25.112ZM90.6972 25.14C90.2025 25.14 89.7592 25.0467 89.3672 24.86C88.9845 24.664 88.6812 24.4027 88.4572 24.076C88.2425 23.7493 88.1352 23.3807 88.1352 22.97C88.1352 22.466 88.2659 22.0693 88.5272 21.78C88.7885 21.4813 89.2132 21.2667 89.8012 21.136C90.3892 21.0053 91.1779 20.94 92.1672 20.94H92.8672V21.948H92.1812C91.6025 21.948 91.1405 21.976 90.7952 22.032C90.4499 22.088 90.2025 22.186 90.0532 22.326C89.9132 22.4567 89.8432 22.6433 89.8432 22.886C89.8432 23.194 89.9505 23.446 90.1652 23.642C90.3799 23.838 90.6785 23.936 91.0612 23.936C91.3692 23.936 91.6399 23.866 91.8732 23.726C92.1159 23.5767 92.3072 23.376 92.4472 23.124C92.5872 22.872 92.6572 22.5827 92.6572 22.256V20.646C92.6572 20.1793 92.5545 19.8433 92.3492 19.638C92.1439 19.4327 91.7985 19.33 91.3132 19.33C91.0425 19.33 90.7485 19.3627 90.4312 19.428C90.1232 19.4933 89.7965 19.6053 89.4512 19.764C89.2739 19.848 89.1152 19.8713 88.9752 19.834C88.8445 19.7967 88.7419 19.722 88.6672 19.61C88.5925 19.4887 88.5552 19.358 88.5552 19.218C88.5552 19.078 88.5925 18.9427 88.6672 18.812C88.7419 18.672 88.8679 18.5693 89.0452 18.504C89.4745 18.3267 89.8852 18.2007 90.2772 18.126C90.6785 18.0513 91.0425 18.014 91.3692 18.014C92.0412 18.014 92.5919 18.1167 93.0212 18.322C93.4599 18.5273 93.7865 18.84 94.0012 19.26C94.2159 19.6707 94.3232 20.2027 94.3232 20.856V24.216C94.3232 24.5053 94.2532 24.7293 94.1132 24.888C93.9732 25.0373 93.7725 25.112 93.5112 25.112C93.2499 25.112 93.0445 25.0373 92.8952 24.888C92.7552 24.7293 92.6852 24.5053 92.6852 24.216V23.544H92.7972C92.7319 23.8707 92.6012 24.1553 92.4052 24.398C92.2185 24.6313 91.9805 24.8133 91.6912 24.944C91.4019 25.0747 91.0705 25.14 90.6972 25.14ZM98.4375 25.14C97.6628 25.14 97.0795 24.9207 96.6875 24.482C96.2955 24.034 96.0995 23.3807 96.0995 22.522V15.9C96.0995 15.6107 96.1741 15.3913 96.3235 15.242C96.4728 15.0927 96.6875 15.018 96.9675 15.018C97.2475 15.018 97.4621 15.0927 97.6115 15.242C97.7701 15.3913 97.8495 15.6107 97.8495 15.9V22.438C97.8495 22.8673 97.9381 23.1847 98.1155 23.39C98.3021 23.5953 98.5635 23.698 98.8995 23.698C98.9741 23.698 99.0441 23.698 99.1095 23.698C99.1748 23.6887 99.2401 23.6793 99.3055 23.67C99.4361 23.6513 99.5248 23.6887 99.5715 23.782C99.6181 23.866 99.6415 24.0433 99.6415 24.314C99.6415 24.5473 99.5948 24.7293 99.5015 24.86C99.4081 24.9907 99.2541 25.07 99.0395 25.098C98.9461 25.1073 98.8481 25.1167 98.7455 25.126C98.6428 25.1353 98.5401 25.14 98.4375 25.14ZM102.128 27.632C101.923 27.632 101.755 27.576 101.624 27.464C101.494 27.3613 101.414 27.2213 101.386 27.044C101.368 26.8667 101.4 26.68 101.484 26.484L102.436 24.37V25.098L99.8884 19.204C99.8044 18.9987 99.7764 18.8073 99.8044 18.63C99.8324 18.4527 99.9164 18.3127 100.056 18.21C100.206 18.098 100.406 18.042 100.658 18.042C100.873 18.042 101.046 18.0933 101.176 18.196C101.307 18.2893 101.424 18.4713 101.526 18.742L103.416 23.46H102.996L104.928 18.728C105.031 18.4667 105.152 18.2893 105.292 18.196C105.432 18.0933 105.619 18.042 105.852 18.042C106.058 18.042 106.221 18.098 106.342 18.21C106.464 18.3127 106.538 18.4527 106.566 18.63C106.594 18.798 106.562 18.9847 106.468 19.19L103.066 26.96C102.945 27.2213 102.814 27.3987 102.674 27.492C102.534 27.5853 102.352 27.632 102.128 27.632ZM110.131 25.14C109.73 25.14 109.305 25.098 108.857 25.014C108.409 24.93 108.008 24.7853 107.653 24.58C107.504 24.4867 107.396 24.3793 107.331 24.258C107.275 24.1273 107.252 24.0013 107.261 23.88C107.28 23.7493 107.326 23.6373 107.401 23.544C107.485 23.4507 107.588 23.39 107.709 23.362C107.84 23.334 107.98 23.3573 108.129 23.432C108.502 23.6093 108.852 23.7353 109.179 23.81C109.506 23.8753 109.828 23.908 110.145 23.908C110.593 23.908 110.924 23.8333 111.139 23.684C111.363 23.5253 111.475 23.32 111.475 23.068C111.475 22.8533 111.4 22.69 111.251 22.578C111.111 22.4567 110.896 22.368 110.607 22.312L109.207 22.046C108.628 21.934 108.185 21.724 107.877 21.416C107.578 21.0987 107.429 20.6927 107.429 20.198C107.429 19.75 107.55 19.3627 107.793 19.036C108.045 18.7093 108.39 18.4573 108.829 18.28C109.268 18.1027 109.772 18.014 110.341 18.014C110.752 18.014 111.134 18.0607 111.489 18.154C111.853 18.238 112.203 18.3733 112.539 18.56C112.679 18.6347 112.772 18.7327 112.819 18.854C112.875 18.9753 112.889 19.1013 112.861 19.232C112.833 19.3533 112.777 19.4653 112.693 19.568C112.609 19.6613 112.502 19.722 112.371 19.75C112.25 19.7687 112.11 19.7407 111.951 19.666C111.662 19.5167 111.382 19.4093 111.111 19.344C110.85 19.2787 110.598 19.246 110.355 19.246C109.898 19.246 109.557 19.3253 109.333 19.484C109.118 19.6427 109.011 19.8527 109.011 20.114C109.011 20.31 109.076 20.4733 109.207 20.604C109.338 20.7347 109.538 20.8233 109.809 20.87L111.209 21.136C111.816 21.248 112.273 21.4533 112.581 21.752C112.898 22.0507 113.057 22.452 113.057 22.956C113.057 23.6373 112.791 24.174 112.259 24.566C111.727 24.9487 111.018 25.14 110.131 25.14ZM115.329 25.098C115.049 25.098 114.834 25.014 114.685 24.846C114.535 24.678 114.461 24.4447 114.461 24.146V19.008C114.461 18.7 114.535 18.4667 114.685 18.308C114.834 18.14 115.049 18.056 115.329 18.056C115.609 18.056 115.823 18.14 115.973 18.308C116.131 18.4667 116.211 18.7 116.211 19.008V24.146C116.211 24.4447 116.136 24.678 115.987 24.846C115.837 25.014 115.618 25.098 115.329 25.098ZM115.329 16.754C115.002 16.754 114.745 16.6747 114.559 16.516C114.381 16.348 114.293 16.1193 114.293 15.83C114.293 15.5313 114.381 15.3027 114.559 15.144C114.745 14.9853 115.002 14.906 115.329 14.906C115.665 14.906 115.921 14.9853 116.099 15.144C116.276 15.3027 116.365 15.5313 116.365 15.83C116.365 16.1193 116.276 16.348 116.099 16.516C115.921 16.6747 115.665 16.754 115.329 16.754ZM120.535 25.14C120.134 25.14 119.709 25.098 119.261 25.014C118.813 24.93 118.412 24.7853 118.057 24.58C117.908 24.4867 117.8 24.3793 117.735 24.258C117.679 24.1273 117.656 24.0013 117.665 23.88C117.684 23.7493 117.73 23.6373 117.805 23.544C117.889 23.4507 117.992 23.39 118.113 23.362C118.244 23.334 118.384 23.3573 118.533 23.432C118.906 23.6093 119.256 23.7353 119.583 23.81C119.91 23.8753 120.232 23.908 120.549 23.908C120.997 23.908 121.328 23.8333 121.543 23.684C121.767 23.5253 121.879 23.32 121.879 23.068C121.879 22.8533 121.804 22.69 121.655 22.578C121.515 22.4567 121.3 22.368 121.011 22.312L119.611 22.046C119.032 21.934 118.589 21.724 118.281 21.416C117.982 21.0987 117.833 20.6927 117.833 20.198C117.833 19.75 117.954 19.3627 118.197 19.036C118.449 18.7093 118.794 18.4573 119.233 18.28C119.672 18.1027 120.176 18.014 120.745 18.014C121.156 18.014 121.538 18.0607 121.893 18.154C122.257 18.238 122.607 18.3733 122.943 18.56C123.083 18.6347 123.176 18.7327 123.223 18.854C123.279 18.9753 123.293 19.1013 123.265 19.232C123.237 19.3533 123.181 19.4653 123.097 19.568C123.013 19.6613 122.906 19.722 122.775 19.75C122.654 19.7687 122.514 19.7407 122.355 19.666C122.066 19.5167 121.786 19.4093 121.515 19.344C121.254 19.2787 121.002 19.246 120.759 19.246C120.302 19.246 119.961 19.3253 119.737 19.484C119.522 19.6427 119.415 19.8527 119.415 20.114C119.415 20.31 119.48 20.4733 119.611 20.604C119.742 20.7347 119.942 20.8233 120.213 20.87L121.613 21.136C122.22 21.248 122.677 21.4533 122.985 21.752C123.302 22.0507 123.461 22.452 123.461 22.956C123.461 23.6373 123.195 24.174 122.663 24.566C122.131 24.9487 121.422 25.14 120.535 25.14Z" fill="white"/>
</svg>
