<svg width="50" height="50" viewBox="0 0 50 50" fill="none" xmlns="http://www.w3.org/2000/svg">
<path d="M43.2266 8.00178C41.3715 8.05817 37.243 8.73314 33.8965 13.2264C30.8025 17.3814 29.7717 19.0994 26.6777 19.0994C24.5987 19.0994 21.5215 17.2597 17.3965 18.2987C16.0683 18.6331 15.0642 19.0875 14.3086 19.6834C12.8905 19.0796 9.2623 17.9851 6 20.9998C2.328 24.3938 0 23.9998 0 23.9998C0 23.9998 5.196 26.2038 8 23.9998C10.4641 22.0631 12.2949 21.3591 13.0918 21.119C12.4609 22.2689 12.2383 23.7495 12.2383 25.6522C12.2383 28.9542 9.63445 29.9429 8.56445 30.6209C8.25245 30.8189 8.00484 31.1034 7.83984 31.4354L4.49023 39.1815C4.22023 39.7255 4.4693 40.3852 5.0293 40.6112L5.80078 40.9217C6.24878 41.1017 6.7602 40.9467 7.0332 40.5467L12.2383 32.9217C18.4263 31.8827 21.5215 27.7283 21.5215 27.7283C21.5215 27.7283 26.6789 31.8834 35.9609 28.7674L41.1172 32.9237L44.8418 40.4256C45.0718 40.8876 45.6048 41.1101 46.0918 40.9471L47.207 40.5721C47.802 40.3721 48.0857 39.6859 47.8047 39.1209L44.2109 31.8846L40.0859 25.6522C40.0859 25.6522 41.8376 23.5768 40.8066 20.4608C39.7756 17.3448 41 14.9998 41 14.9998C41 14.9998 41.1177 16.3446 43.1797 16.3436C44.4827 16.3436 46.1972 17.172 47.2832 17.783C47.9242 18.143 48.7212 18.0326 49.2402 17.5096C49.8802 16.8656 49.8802 15.8196 49.2402 15.1756L48.3359 14.2655C47.3049 13.2275 44.2109 10.1112 44.2109 10.1112V8.03303C44.2109 8.03303 43.8449 7.98298 43.2266 8.00178ZM21.8906 30.2694C20.7306 31.3694 18.77 32.9108 16 33.9608V33.9998L20.4004 40.5799C20.5904 40.8399 20.8909 40.9998 21.2109 40.9998H21.9805C22.7405 40.9998 23.2296 40.1698 22.8496 39.4998L20 33.9998C21.74 32.8398 22.8106 31.68 23.3906 30.91C22.8106 30.7 22.3106 30.4794 21.8906 30.2694ZM35.5391 30.9998C34.1491 31.3998 32.7795 31.6704 31.4395 31.8104L31 33.9998L26.6895 37.3006C26.2695 37.5606 26 37.8098 26 38.2498V38.9803C26 39.7003 26.7306 40.1902 27.3906 39.9002L33.3594 36.3299C33.7794 36.1199 34.0993 35.7697 34.2793 35.3397L35.6504 31.0897L35.5391 30.9998Z" fill="black"/>
</svg>
