<svg width="15" height="14" viewBox="0 0 15 14" fill="none" xmlns="http://www.w3.org/2000/svg">
<g id="trotting-horse 3" clip-path="url(#clip0_5220_12096)">
<path id="Vector" d="M8.25496 1.56541C8.69089 1.21779 9.27016 0.95274 10.0364 0.757634C11.6446 0.348061 12.9768 0.705363 14.0417 0.980114C14.2653 1.03779 14.4231 1.23894 14.4231 1.46983V6.53638C14.4231 6.86914 14.1032 7.10918 13.7926 6.98985C12.8875 6.6422 12.4162 6.25829 12.4162 6.25829C12.4162 6.25829 10.6305 8.68166 7.06055 9.28774L4.05762 13.7357C3.90012 13.969 3.60507 14.0594 3.3466 13.9544L2.90152 13.7733C2.57844 13.6414 2.43475 13.2566 2.59052 12.9393L4.52299 8.42072C4.61818 8.22705 4.76103 8.06112 4.94103 7.94562C5.55834 7.55012 7.06055 6.97335 7.06055 5.04719C7.06055 3.9373 7.18896 3.07359 7.55296 2.40282C7.09321 2.54288 6.03697 2.95358 4.61538 4.08332C2.99769 5.36898 0 4.08332 0 4.08332C0 4.08332 1.34308 4.31315 3.46154 2.33332C5.34363 0.57471 7.43684 1.2132 8.25496 1.56541Z" fill="#1B4965"/>
<path id="Vector_2" d="M12.6294 7.74054C11.9602 8.38221 10.829 9.28136 9.23096 9.89386V9.91665L11.7696 13.755C11.8793 13.9067 12.0527 14 12.2373 14H12.6812C13.1197 14 13.4019 13.5158 13.1827 13.125L11.5386 9.91665C12.5425 9.23998 13.1602 8.5634 13.4948 8.11424C13.1602 7.99174 12.8717 7.86304 12.6294 7.74054Z" fill="#1B4965"/>
</g>
<defs>
<clipPath id="clip0_5220_12096">
<rect width="15" height="14" fill="white"/>
</clipPath>
</defs>
</svg>
