<svg width="73" height="72" viewBox="0 0 73 72" fill="none" xmlns="http://www.w3.org/2000/svg">
<g clip-path="url(#clip0_668_21320)">
<path d="M62.7463 11.5227C60.075 11.6039 54.1299 12.5758 49.3109 19.0461C44.8556 25.0293 43.3713 27.5033 38.9159 27.5033C35.9222 27.5033 31.4909 24.854 25.5509 26.3502C23.6383 26.8318 22.1925 27.4861 21.1044 28.3442C19.0623 27.4748 13.8377 25.8986 9.14 30.2399C3.85232 35.1272 0.5 34.5599 0.5 34.5599C0.5 34.5599 7.98224 37.7336 12.02 34.5599C15.5683 31.771 18.2047 30.7572 19.3522 30.4114C18.4437 32.0673 18.1231 34.1994 18.1231 36.9392C18.1231 41.6941 14.3736 43.1179 12.8328 44.0942C12.3835 44.3794 12.027 44.789 11.7894 45.2671L6.96594 56.4214C6.57714 57.2048 6.93579 58.1547 7.74219 58.4802L8.85313 58.9274C9.49825 59.1866 10.2347 58.9634 10.6278 58.3874L18.1231 47.4074C27.0338 45.9112 31.4909 39.9289 31.4909 39.9289C31.4909 39.9289 38.9177 45.9122 52.2838 41.4252L59.7088 47.4102L65.0722 58.213C65.4034 58.8783 66.1709 59.1987 66.8722 58.9639L68.4781 58.4239C69.3349 58.1359 69.7434 57.1478 69.3388 56.3342L64.1638 45.9139L58.2238 36.9392C58.2238 36.9392 60.7462 33.9507 59.2616 29.4636C57.7769 24.9766 59.54 21.5999 59.54 21.5999C59.54 21.5999 59.7095 23.5363 62.6788 23.5349C64.5551 23.5349 67.024 24.7278 68.5878 25.6077C69.5109 26.1261 70.6586 25.9671 71.4059 25.2139C72.3275 24.2866 72.3275 22.7804 71.4059 21.853L70.1038 20.5424C68.6191 19.0477 64.1638 14.5602 64.1638 14.5602V11.5677C64.1638 11.5677 63.6367 11.4956 62.7463 11.5227ZM32.0225 43.588C30.3521 45.172 27.5288 47.3916 23.54 48.9036V48.9599L29.8766 58.4352C30.1502 58.8096 30.583 59.0399 31.0438 59.0399H32.1519C33.2463 59.0399 33.9506 57.8447 33.4034 56.8799L29.3 48.9599C31.8056 47.2895 33.3473 45.6193 34.1825 44.5105C33.3473 44.2081 32.6273 43.8904 32.0225 43.588ZM51.6763 44.6399C49.6747 45.2159 47.7024 45.6055 45.7728 45.8071L45.14 48.9599L38.9328 53.713C38.328 54.0874 37.94 54.4463 37.94 55.0799V56.1317C37.94 57.1685 38.9921 57.874 39.9425 57.4564L48.5375 52.3152C49.1423 52.0128 49.603 51.5084 49.8622 50.8892L51.8366 44.7692L51.6763 44.6399Z" fill="#1B4965"/>
</g>
<defs>
<clipPath id="clip0_668_21320">
<rect width="72" height="72" fill="white" transform="translate(0.5)"/>
</clipPath>
</defs>
</svg>
