<svg width="15" height="14" viewBox="0 0 15 14" fill="none" xmlns="http://www.w3.org/2000/svg">
<g clip-path="url(#clip0_1494_5340)">
<path d="M8.25496 1.56554C8.69089 1.21792 9.27016 0.952862 10.0364 0.757757C11.6446 0.348183 12.9768 0.705485 14.0417 0.980236C14.2653 1.03792 14.4231 1.23906 14.4231 1.46995V6.5365C14.4231 6.86927 14.1032 7.1093 13.7926 6.98998C12.8875 6.64232 12.4162 6.25841 12.4162 6.25841C12.4162 6.25841 10.6305 8.68178 7.06055 9.28787L4.05762 13.7358C3.90012 13.9691 3.60507 14.0595 3.3466 13.9545L2.90152 13.7734C2.57844 13.6415 2.43475 13.2567 2.59052 12.9394L4.52299 8.42084C4.61818 8.22718 4.76103 8.06124 4.94103 7.94574C5.55834 7.55024 7.06055 6.97347 7.06055 5.04731C7.06055 3.93742 7.18896 3.07371 7.55296 2.40294C7.09321 2.543 6.03697 2.9537 4.61538 4.08344C2.99769 5.36911 0 4.08344 0 4.08344C0 4.08344 1.34308 4.31327 3.46154 2.33344C5.34363 0.574832 7.43684 1.21332 8.25496 1.56554Z" fill="#1B4965"/>
<path d="M12.6294 7.74072C11.9602 8.38239 10.829 9.28154 9.23096 9.89404V9.91683L11.7696 13.7552C11.8793 13.9069 12.0527 14.0002 12.2373 14.0002H12.6812C13.1197 14.0002 13.4019 13.516 13.1827 13.1252L11.5386 9.91683C12.5425 9.24016 13.1602 8.56359 13.4948 8.11442C13.1602 7.99192 12.8717 7.86322 12.6294 7.74072Z" fill="#1B4965"/>
</g>
<defs>
<clipPath id="clip0_1494_5340">
<rect width="15" height="14" fill="white"/>
</clipPath>
</defs>
</svg>
