<svg width="16" height="14" viewBox="0 0 16 14" fill="none" xmlns="http://www.w3.org/2000/svg">
<g id="trotting-horse 1" clip-path="url(#clip0_5220_12004)">
<path id="Intersect" fill-rule="evenodd" clip-rule="evenodd" d="M8.40199 14H2C0.895431 14 0 13.1046 0 12V8.21387C0.139236 8.09576 0.277391 7.96576 0.416425 7.82353C1.06186 7.16323 1.72624 6.23919 2.60551 5.01626C2.76829 4.78986 2.93843 4.55321 3.11719 4.3061C5.79439 0.605773 9.09723 0.049917 10.5813 0.00347762C11.0759 -0.0120022 11.3688 0.0292129 11.3688 0.0292129V1.74061C11.3688 1.74061 13.844 4.30697 14.6688 5.1618L15.3922 5.91134C15.9042 6.44169 15.9042 7.30309 15.3922 7.83344C14.977 8.26415 14.3394 8.35509 13.8266 8.05862C12.9578 7.55545 11.5862 6.87319 10.5438 6.87319C8.89415 6.87402 8.8 5.76657 8.8 5.76657C8.8 5.76657 7.82051 7.6977 8.64531 10.2638C9.19493 11.9738 8.75603 13.3032 8.40199 14Z" fill="#1B4965"/>
</g>
<defs>
<clipPath id="clip0_5220_12004">
<rect width="16" height="14" fill="white"/>
</clipPath>
</defs>
</svg>
