<svg width="12" height="12" viewBox="0 0 12 12" fill="none" xmlns="http://www.w3.org/2000/svg">
<g id="fi:video-off" clip-path="url(#clip0_5137_11350)">
<g id="Vector" filter="url(#filter0_d_5137_11350)">
<path d="M5.33 2.5H7C7.26522 2.5 7.51957 2.60536 7.70711 2.79289C7.89464 2.98043 8 3.23478 8 3.5V5.17L8.5 5.67L11.5 3.5V8.5M8 8V8.5C8 8.76522 7.89464 9.01957 7.70711 9.20711C7.51957 9.39464 7.26522 9.5 7 9.5H1.5C1.23478 9.5 0.98043 9.39464 0.792893 9.20711C0.605357 9.01957 0.5 8.76522 0.5 8.5V3.5C0.5 3.23478 0.605357 2.98043 0.792893 2.79289C0.98043 2.60536 1.23478 2.5 1.5 2.5H2.5L8 8Z" stroke="white" stroke-width="1.5" stroke-linecap="round" stroke-linejoin="round" shape-rendering="crispEdges"/>
</g>
<g id="Vector_2" filter="url(#filter1_d_5137_11350)">
<path d="M0.5 0.5L11.5 11.5" stroke="white" stroke-width="1.5" stroke-linecap="round" stroke-linejoin="round"/>
</g>
</g>
<defs>
<filter id="filter0_d_5137_11350" x="-0.25" y="1.75" width="14.5" height="10.5" filterUnits="userSpaceOnUse" color-interpolation-filters="sRGB">
<feFlood flood-opacity="0" result="BackgroundImageFix"/>
<feColorMatrix in="SourceAlpha" type="matrix" values="0 0 0 0 0 0 0 0 0 0 0 0 0 0 0 0 0 0 127 0" result="hardAlpha"/>
<feOffset dx="1" dy="1"/>
<feGaussianBlur stdDeviation="0.5"/>
<feComposite in2="hardAlpha" operator="out"/>
<feColorMatrix type="matrix" values="0 0 0 0 0 0 0 0 0 0 0 0 0 0 0 0 0 0 0.4 0"/>
<feBlend mode="normal" in2="BackgroundImageFix" result="effect1_dropShadow_5137_11350"/>
<feBlend mode="normal" in="SourceGraphic" in2="effect1_dropShadow_5137_11350" result="shape"/>
</filter>
<filter id="filter1_d_5137_11350" x="-0.25" y="-0.25" width="14.5" height="14.5" filterUnits="userSpaceOnUse" color-interpolation-filters="sRGB">
<feFlood flood-opacity="0" result="BackgroundImageFix"/>
<feColorMatrix in="SourceAlpha" type="matrix" values="0 0 0 0 0 0 0 0 0 0 0 0 0 0 0 0 0 0 127 0" result="hardAlpha"/>
<feOffset dx="1" dy="1"/>
<feGaussianBlur stdDeviation="0.5"/>
<feComposite in2="hardAlpha" operator="out"/>
<feColorMatrix type="matrix" values="0 0 0 0 0 0 0 0 0 0 0 0 0 0 0 0 0 0 0.8 0"/>
<feBlend mode="normal" in2="BackgroundImageFix" result="effect1_dropShadow_5137_11350"/>
<feBlend mode="normal" in="SourceGraphic" in2="effect1_dropShadow_5137_11350" result="shape"/>
</filter>
<clipPath id="clip0_5137_11350">
<rect width="12" height="12" fill="white"/>
</clipPath>
</defs>
</svg>
