<svg width="18" height="18" viewBox="0 0 18 18" fill="none" xmlns="http://www.w3.org/2000/svg">
<g id="icon/action/swap_horiz_24px">
<path id="Path" d="M9.10901 4.60179L7.01651 2.51679C6.86651 2.37429 6.63401 2.37429 6.48401 2.51679L4.39151 4.60179C4.15151 4.83429 4.32401 5.23929 4.654 5.23929L6.00401 5.23929L6.00401 9.74679C6.00401 10.1593 6.34151 10.4968 6.75401 10.4968C7.1665 10.4968 7.50401 10.1593 7.50401 9.74679L7.50401 5.23929L8.84651 5.23929C9.18401 5.23929 9.34901 4.83429 9.10901 4.60179Z" fill="white"/>
<path id="Path_2" d="M11.5162 15.4843L13.6087 13.3993C13.8487 13.1668 13.6762 12.7618 13.3462 12.7618L12.0037 12.7618L12.0037 8.24683C12.0037 7.83433 11.6662 7.49683 11.2537 7.49683C10.8412 7.49683 10.5037 7.83433 10.5037 8.24683L10.5037 12.7543L9.16116 12.7543C8.82366 12.7543 8.65866 13.1593 8.89866 13.3918L10.9912 15.4768C11.1337 15.6268 11.3737 15.6268 11.5162 15.4843Z" fill="white"/>
</g>
</svg>
